<?xml version="1.0" encoding="UTF-8" standalone="no"?>
<!-- Creator: CorelDRAW X5 -->

<svg
   xml:space="preserve"
   width="1312.7256"
   height="878.28717"
   style="clip-rule:evenodd;fill-rule:evenodd;image-rendering:optimizeQuality;shape-rendering:geometricPrecision;text-rendering:geometricPrecision"
   viewBox="0 0 1312725.6 877939.11"
   version="1.1"
   id="svg20"
   sodipodi:docname="logo-kementan.svg"
   inkscape:version="1.1.1 (3bf5ae0d25, 2021-09-20, custom)"
   xmlns:inkscape="http://www.inkscape.org/namespaces/inkscape"
   xmlns:sodipodi="http://sodipodi.sourceforge.net/DTD/sodipodi-0.dtd"
   xmlns="http://www.w3.org/2000/svg"
   xmlns:svg="http://www.w3.org/2000/svg"><sodipodi:namedview
   id="namedview22"
   pagecolor="#ffffff"
   bordercolor="#666666"
   borderopacity="1.0"
   inkscape:pageshadow="2"
   inkscape:pageopacity="0.0"
   inkscape:pagecheckerboard="0"
   showgrid="false"
   fit-margin-top="0"
   fit-margin-left="0"
   fit-margin-right="0"
   fit-margin-bottom="0"
   inkscape:zoom="0.31837692"
   inkscape:cx="1017.6617"
   inkscape:cy="461.71689"
   inkscape:window-width="1366"
   inkscape:window-height="713"
   inkscape:window-x="0"
   inkscape:window-y="27"
   inkscape:window-maximized="1"
   inkscape:current-layer="g17038" />
 <defs
   id="defs4">
  <style
   type="text/css"
   id="style2">
   <![CDATA[
    .fil3 {fill:#1C6F0A}
    .fil0 {fill:#F8EE05}
    .fil4 {fill:#1C6F0A;fill-rule:nonzero}
    .fil1 {fill:#842B24;fill-rule:nonzero}
    .fil2 {fill:red;fill-rule:nonzero}
   ]]>
  </style>
 </defs>
 <g
   id="Pertanian"
   inkscape:label="Pertanian"
   inkscape:groupmode="layer"
   transform="translate(356362.83,-404.93559)">
  <metadata
   id="CorelCorpID_0Corel-Layer" />
  
  
  
  
  
  
 <g
   id="g17038"><g
     id="g17739"><path
       class="fil0"
       d="m 300445.49,577686 c 13061,-13864 30370,-33817 47591,-46329 19124,-13895 76514,-15246 110319,-39806 33804,-24560 46383,-74046 64193,-86986 18535,-13466 42214,-23284 63109,-35036 -9149,-16706 -22777,-39334 -29354,-59579 -7305,-22481 9145,-77480 -3767,-117220 -12912,-39739 -56089,-66994 -62891,-87931 -7080,-21789 -9099,-47343 -13820,-70847 -18715,3539 -44447,9507 -65734,9507 -23639,0 -70862,-32640 -112647,-32640 -41784,0 -81047,32641 -103062,32641 -22911,0 -47838,-5976 -71650,-8750 -2418,18893 -4693,45210 -11271,65455 -7305,22481 -52940,57308 -65852,97047 -12912,39739 5999,87167 -805,108104 -7080,21790 -20466,43650 -30462,65440 17222,8138 41547,18434 58768,30946 19124,13894 38144,68058 71948,92618 33804,24560 84755,21231 102565,34171 18535,13467 35189,32953 52823,49194 z"
       id="path7" /><path
       class="fil1"
       d="m 314996,577338 c -3466,3746 -6791,7340 -7023,7586 l -7169,7609 -7679,-7072 c -6167,-5680 -12348,-11889 -18531,-18100 -10937,-10987 -21882,-21981 -33341,-30308 -5602,-4070 -17875,-6428 -32097,-9159 -22382,-4298 -48992,-9409 -70467,-25012 C 117705,487636 102624,462990 89678,441832 80927,427530 73259,414999 66741,410264 53240,400455 34563,391835 19040,384671 c -3148,-1453 -6169,-2847 -9371,-4360 l -9436,-4459 4349,-9479 c 3527,-7688 7504,-15449 11482,-23212 7060,-13778 14125,-27567 18526,-41111 2122,-6530 567,-18969 -1236,-33382 -2823,-22579 -6180,-49422 2041,-74722 8013,-24662 26786,-46613 42903,-65457 10904,-12750 20457,-23921 22949,-31590 5127,-15778 7558,-36245 9579,-53256 220,-1855 433,-3645 1279,-10255 l 1329,-10385 10334,1204 c 8086,942 16853,2351 25623,3761 15387,2473 30784,4948 44827,4948 v -42 c 6996,0 18285,-5295 31367,-11430 20660,-9690 45222,-21211 71695,-21211 25908,0 52600,11077 75515,20587 15481,6424 29044,12053 37132,12053 16699,0 36881,-4006 53655,-7335 2669,-530 5240,-1040 10134,-1965 l 10225,-1933 2058,10246 c 1698,8455 3030,16991 4362,25529 2387,15294 4775,30598 9168,44118 2138,6580 10676,15695 20570,26258 15586,16640 34117,36422 42321,61674 8029,24711 5746,53473 3787,78166 -1330,16755 -2495,31435 -19,39054 5168,15906 15208,33851 23553,48766 1653,2955 3238,5787 5016,9034 l 5010,9147 -9104,5121 c -7232,4068 -15084,8046 -22938,12025 -13833,7008 -27675,14023 -39138,22350 -5581,4054 -11613,14995 -18604,27673 -11007,19962 -24093,43695 -45589,59313 -20925,15202 -49048,21935 -73193,27714 -16283,3898 -30549,7313 -37127,12092 -13605,9885 -27516,24921 -39080,37419 z m -15157,-14646 c 12257,-13247 26953,-29088 41829,-39896 9840,-7149 26098,-11041 44654,-15483 22174,-5308 48003,-11491 65665,-24322 17677,-12843 29513,-34309 39469,-52365 8225,-14918 15324,-27792 24724,-34621 12689,-9219 27366,-16656 42033,-24087 4293,-2175 8585,-4350 12866,-6599 -8783,-15699 -19277,-34516 -24991,-52100 -3795,-11681 -2477,-28288 -973,-47243 1808,-22786 3915,-49327 -2794,-69977 -6758,-20800 -23513,-38688 -37606,-53733 -11648,-12436 -21701,-23168 -25285,-34198 -4831,-14870 -7373,-31155 -9912,-47428 -746,-4780 -1492,-9559 -2292,-14260 -17639,3501 -38775,7668 -57299,7668 -12207,0 -27632,-6401 -45238,-13708 -21074,-8745 -45622,-18932 -67409,-18932 -21949,0 -44116,10397 -62762,19142 -15448,7246 -28779,13498 -40300,13498 v -42 c -15810,0 -31979,-2599 -48136,-5196 -4740,-762 -9480,-1524 -14302,-2223 -2116,17817 -4682,39146 -10433,56845 -3779,11631 -14624,24312 -27003,38786 -14839,17351 -32124,37561 -38849,58261 -6743,20751 -3694,45123 -1131,65623 2107,16855 3927,31401 326,42482 -4824,14848 -12340,29515 -19849,44171 -2204,4302 -4408,8602 -6539,12914 16326,7535 35864,16586 50848,27472 9901,7193 18615,21434 28561,37689 11911,19466 25786,42141 43387,54929 17698,12858 41777,17483 62030,21373 16724,3212 31156,5984 40535,12798 12692,9221 24302,20885 35905,32541 3408,3424 6816,6847 10272,10219 z"
       id="path9" /><path
       class="fil2"
       d="m 297279,86064 c 53912,0 102721,21853 138052,57184 35331,35331 57184,84140 57184,138052 0,53912 -21853,102721 -57184,138052 -35331,35331 -84140,57184 -138052,57184 -53912,0 -102721,-21853 -138052,-57184 -35331,-35331 -57184,-84140 -57184,-138052 0,-53912 21853,-102721 57184,-138052 35331,-35331 84140,-57184 138052,-57184 z m 129069,66167 C 393317,119200 347684,98770 297279,98770 c -50405,0 -96038,20430 -129069,53461 -33031,33031 -53461,78664 -53461,129069 0,50405 20430,96038 53461,129069 33031,33031 78664,53462 129069,53462 50405,0 96038,-20430 129069,-53462 33031,-33031 53462,-78664 53462,-129069 0,-50405 -20430,-96038 -53462,-129069 z"
       id="path11" /><path
       class="fil3"
       d="m 291189,334102 h 24 c 1682,-22102 3023,-44205 -3943,-66307 -3877,2103 -7887,3771 -11985,5042 -17814,5524 -37169,3474 -54053,-2888 -16861,-6353 -31427,-17113 -39635,-28986 -2676,-3871 -4709,-7894 -5973,-11969 l -1516,-4890 4494,-2505 c 2561,-1428 5032,-2704 7413,-3836 30337,-14422 54572,-10581 72628,-667 3929,2158 7554,4608 10875,7220 -7369,-42347 25267,-85750 25392,-85920 l 5045,-6826 5104,6777 c 18,24 26406,35129 26406,72859 h 25 c 0,4304 -335,8636 -1076,12951 3266,-2552 6822,-4946 10671,-7060 18055,-9914 42291,-13756 72627,667 2382,1132 4852,2408 7413,3836 l 4494,2505 -1516,4890 c -1264,4075 -3297,8098 -5973,11969 -8208,11874 -22774,22633 -39635,28986 -16884,6362 -36239,8412 -54053,2888 -4005,-1242 -7927,-2864 -11723,-4901 -6912,22047 -5577,44093 -3900,66139 2743,-11083 7874,-24036 17683,-34420 17277,-18292 48313,-28324 104388,-5613 l 7966,3226 -5434,6650 c -38250,46806 -106942,55503 -119049,56695 v 27827 h -29222 v -27874 c -13325,-1364 -80795,-10419 -118573,-56647 l -5434,-6650 7965,-3226 c 56075,-22711 87112,-12678 104389,5613 9816,10393 14949,23358 17689,34447 z m 9268,-56929 2872,-4974 2872,-4974 h -5743 -5743 l 2872,4974 2872,4974 z m -465,-123586 c -11493,18662 -35762,67437 16,100406 13985,-12871 18778,-28040 18778,-42787 h 25 c 0,-23540 -11811,-46229 -18819,-57619 z m -18727,103056 c -5038,-8425 -14605,-20676 -28726,-28430 -14951,-8210 -35248,-11283 -61114,1014 -561,266 -1121,538 -1680,815 658,1243 1419,2487 2275,3724 6794,9828 19168,18854 33680,24322 14489,5459 30942,7267 45864,2640 3317,-1029 6564,-2380 9701,-4084 z m 65926,-28430 c -14121,7754 -23687,20004 -28726,28430 3137,1704 6383,3055 9701,4084 14922,4627 31375,2820 45864,-2640 14512,-5468 26886,-14494 33680,-24322 855,-1237 1617,-2481 2275,-3724 -559,-277 -1119,-549 -1680,-815 -25866,-12297 -46162,-9224 -61114,-1014 z m -11455,80126 c -11090,11742 -15026,28094 -16544,38924 18569,-2558 66982,-12130 98488,-44696 -44384,-16004 -68643,-8311 -81944,5771 z m -54923,38924 c -1518,-10830 -5454,-27182 -16544,-38924 -13301,-14082 -37560,-21775 -81944,-5771 31506,32566 79919,42137 98488,44696 z"
       id="path13" /><path
       class="fil4"
       d="m 353732,399246 c 0,5114 -1738,9745 -4548,13097 -2810,3352 -6692,5425 -10979,5425 -4288,0 -8170,-2073 -10979,-5425 -355,-423 -692,-866 -1011,-1328 -319,462 -656,905 -1011,1328 -2810,3352 -6692,5425 -10979,5425 -4288,0 -8170,-2073 -10979,-5425 -355,-423 -692,-866 -1011,-1328 -319,462 -656,905 -1011,1328 -2810,3352 -6692,5425 -10979,5425 -4288,0 -8169,-2073 -10979,-5425 -355,-423 -692,-866 -1011,-1328 -319,462 -657,905 -1011,1328 -2810,3352 -6692,5425 -10979,5425 -4288,0 -8169,-2073 -10979,-5425 -2810,-3352 -4548,-7982 -4548,-13097 h 7075 c 0,2785 946,5306 2475,7130 1530,1824 3643,2953 5977,2953 2335,0 4448,-1129 5978,-2953 1529,-1824 2475,-4345 2475,-7130 h 7074 c 0,2785 946,5306 2476,7130 1530,1824 3643,2953 5977,2953 2335,0 4448,-1129 5977,-2953 1530,-1824 2476,-4345 2476,-7130 h 7074 c 0,2785 946,5306 2476,7130 1529,1824 3643,2953 5977,2953 2334,0 4448,-1129 5977,-2953 1530,-1824 2476,-4345 2476,-7130 h 7074 c 0,2785 946,5306 2475,7130 1530,1824 3643,2953 5978,2953 2334,0 4448,-1129 5977,-2953 1530,-1824 2475,-4345 2475,-7130 z"
       id="path15" /><path
       class="fil4"
       d="m 366945.5,410768 c 0,6691 -2260,12750 -5913,17135 -3653,4386 -8700,7098 -14273,7098 -5574,0 -10620,-2712 -14273,-7098 -461,-553 -899,-1133 -1314,-1738 -415,604 -853,1185 -1314,1738 -3653,4386 -8700,7098 -14273,7098 -5574,0 -10620,-2712 -14273,-7098 -461,-553 -899,-1133 -1314,-1738 -415,604 -854,1185 -1314,1738 -3653,4386 -8699,7098 -14273,7098 -5574,0 -10620,-2712 -14273,-7098 -461,-553 -899,-1133 -1314,-1738 -415,604 -853,1185 -1314,1738 -3653,4386 -8700,7098 -14273,7098 -5574,0 -10620,-2712 -14273,-7098 -3653,-4385 -5913,-10444 -5913,-17135 h 9197 c 0,3644 1230,6942 3218,9329 1988,2387 4736,3863 7771,3863 3035,0 5783,-1476 7771,-3863 1988,-2387 3218,-5685 3218,-9329 h 9197 c 0,3644 1230,6942 3218,9329 1988,2387 4736,3863 7771,3863 3035,0 5782,-1476 7771,-3863 1988,-2387 3218,-5685 3218,-9329 h 9197 c 0,3644 1230,6942 3218,9329 1988,2387 4736,3863 7771,3863 3035,0 5783,-1476 7771,-3863 1988,-2387 3218,-5685 3218,-9329 h 9197 c 0,3644 1230,6942 3218,9329 1988,2387 4736,3863 7771,3863 3035,0 5782,-1476 7771,-3863 1988,-2387 3218,-5685 3218,-9329 h 9197 z"
       id="path17" /><g
       id="g17511"
       transform="matrix(1.4063952,0,0,1.4063952,-121918.56,-195073.3)"
       style="font-size:66325.4px;line-height:1.25;stroke-width:3553.14"><path
         d="m -127235.09,662749.79 4974.41,-5173.38 15851.77,21356.78 h 11872.242 l -21356.782,-27525.04 19300.695,-20826.18 h -11739.595 l -18902.74,21224.13 v -21224.13 h -9948.81 v 48351.22 h 9948.81 z"
         style="font-weight:bold;text-align:center;text-anchor:middle"
         id="path17056" /><path
         d="m -79414.505,658107.01 h 23147.564 v -8290.67 h -23147.564 v -10943.69 h 25004.675 v -8290.68 h -34953.485 v 48351.22 h 36147.342 v -8290.68 h -26198.532 z"
         style="font-weight:bold;text-align:center;text-anchor:middle"
         id="path17058" /><path
         d="m -36037.708,641260.36 8688.627,37672.83 h 9948.81 l 8555.9764,-37672.83 v 37672.83 H 1104.5152 V 630581.97 H -13885.025 l -8489.651,38468.73 -8754.952,-38468.73 h -14856.89 v 48351.22 h 9948.81 z"
         style="font-weight:bold;text-align:center;text-anchor:middle"
         id="path17060" /><path
         d="m 20073.6,658107.01 h 23147.564 v -8290.67 H 20073.6 v -10943.69 h 25004.676 v -8290.68 H 10124.791 v 48351.22 h 36147.342 v -8290.68 H 20073.6 Z"
         style="font-weight:bold;text-align:center;text-anchor:middle"
         id="path17062" /><path
         d="m 83016.378,678933.19 h 9948.81 v -48351.22 h -9948.81 v 32897.4 l -19168.04,-32897.4 H 53634.227 v 48351.22 h 9948.81 v -33428 z"
         style="font-weight:bold;text-align:center;text-anchor:middle"
         id="path17064" /><path
         d="m 122546.33,638872.65 h 14127.31 v -8290.68 H 97939.608 v 8290.68 h 14657.912 v 40060.54 h 9948.81 z"
         style="font-weight:bold;text-align:center;text-anchor:middle"
         id="path17066" /><path
         d="m 152193.82,658107.01 h 23147.56 v -8290.67 h -23147.56 v -10943.69 h 25004.67 v -8290.68 h -34953.48 v 48351.22 h 36147.34 v -8290.68 h -26198.53 z"
         style="font-weight:bold;text-align:center;text-anchor:middle"
         id="path17068" /><path
         d="m 196499.18,659765.15 h 11407.96 c 4311.16,0 6168.27,1724.46 6168.27,5703.98 v 1989.76 c -66.33,1260.19 -66.33,2454.04 -66.33,3183.62 0,4576.46 265.3,5969.29 1459.16,8290.68 h 10678.39 v -1790.79 c -1525.49,-862.23 -2122.41,-1857.11 -2122.41,-3979.52 -265.31,-14259.96 -530.61,-14923.22 -6698.87,-17576.23 5438.68,-2122.42 8158.02,-6035.61 8158.02,-11938.57 0,-3846.88 -1326.5,-7362.12 -3647.89,-9749.84 -2188.74,-2255.06 -5239.71,-3316.27 -9351.88,-3316.27 h -25933.23 v 48351.22 h 9948.81 z m 0,-8290.68 v -12601.82 h 12004.89 c 2851.99,0 3979.53,265.3 5239.71,1260.18 1193.86,994.88 1790.79,2653.02 1790.79,4908.08 0,2321.39 -596.93,4178.5 -1790.79,5173.38 -1127.53,928.56 -2387.72,1260.18 -5239.71,1260.18 z"
         style="font-weight:bold;text-align:center;text-anchor:middle"
         id="path17070" /><path
         d="m 243523.86,630581.97 h -9948.81 v 48351.22 h 9948.81 z"
         style="font-weight:bold;text-align:center;text-anchor:middle"
         id="path17072" /><path
         d="m 280533.48,669183.35 3183.62,9749.84 h 10214.11 l -16714,-48351.22 H 266207.2 l -17178.28,48351.22 h 10147.79 l 3249.94,-9749.84 z m -2719.34,-8290.67 h -12601.82 l 6300.91,-18902.74 z"
         style="font-weight:bold;text-align:center;text-anchor:middle"
         id="path17074" /><path
         d="m 329083.68,678933.19 h 9948.8 v -48351.22 h -9948.8 v 32897.4 l -19168.04,-32897.4 h -10214.12 v 48351.22 h 9948.81 v -33428 z"
         style="font-weight:bold;text-align:center;text-anchor:middle"
         id="path17076" /><path
         d="m 376506.34,661688.58 h 12402.85 c 8887.61,0 14591.59,-6300.91 14591.59,-16117.07 0,-9683.51 -5505.01,-14989.54 -15586.47,-14989.54 h -21356.78 v 48351.22 h 9948.81 z m 0,-8290.67 v -14525.26 h 9285.56 c 5306.03,0 7760.07,2321.39 7760.07,7229.47 0,4974.4 -2454.04,7295.79 -7760.07,7295.79 z"
         style="font-weight:bold;text-align:center;text-anchor:middle"
         id="path17078" /><path
         d="m 419750.48,658107.01 h 23147.56 v -8290.67 h -23147.56 v -10943.69 h 25004.67 v -8290.68 h -34953.48 v 48351.22 h 36147.34 v -8290.68 h -26198.53 z"
         style="font-weight:bold;text-align:center;text-anchor:middle"
         id="path17080" /><path
         d="m 464055.86,659765.15 h 11407.97 c 4311.15,0 6168.26,1724.46 6168.26,5703.98 v 1989.76 c -66.32,1260.19 -66.32,2454.04 -66.32,3183.62 0,4576.46 265.3,5969.29 1459.16,8290.68 h 10678.39 v -1790.79 c -1525.49,-862.23 -2122.42,-1857.11 -2122.42,-3979.52 -265.3,-14259.96 -530.6,-14923.22 -6698.86,-17576.23 5438.68,-2122.42 8158.02,-6035.61 8158.02,-11938.57 0,-3846.88 -1326.51,-7362.12 -3647.89,-9749.84 -2188.74,-2255.06 -5239.71,-3316.27 -9351.89,-3316.27 h -25933.23 v 48351.22 h 9948.81 z m 0,-8290.68 v -12601.82 h 12004.9 c 2851.99,0 3979.52,265.3 5239.71,1260.18 1193.85,994.88 1790.78,2653.02 1790.78,4908.08 0,2321.39 -596.93,4178.5 -1790.78,5173.38 -1127.53,928.56 -2387.72,1260.18 -5239.71,1260.18 z"
         style="font-weight:bold;text-align:center;text-anchor:middle"
         id="path17082" /><path
         d="m 522090.55,638872.65 h 14127.31 v -8290.68 h -38734.03 v 8290.68 h 14657.91 v 40060.54 h 9948.81 z"
         style="font-weight:bold;text-align:center;text-anchor:middle"
         id="path17084" /><path
         d="m 564472.48,669183.35 3183.62,9749.84 h 10214.11 l -16714,-48351.22 H 550146.2 l -17178.28,48351.22 h 10147.79 l 3249.94,-9749.84 z m -2719.34,-8290.67 h -12601.82 l 6300.91,-18902.74 z"
         style="font-weight:bold;text-align:center;text-anchor:middle"
         id="path17086" /><path
         d="m 613022.74,678933.19 h 9948.81 v -48351.22 h -9948.81 v 32897.4 l -19168.04,-32897.4 h -10214.11 v 48351.22 h 9948.81 v -33428 z"
         style="font-weight:bold;text-align:center;text-anchor:middle"
         id="path17088" /><path
         d="m 641144.71,630581.97 h -9948.81 v 48351.22 h 9948.81 z"
         style="font-weight:bold;text-align:center;text-anchor:middle"
         id="path17090" /><path
         d="m 678154.3,669183.35 3183.62,9749.84 h 10214.11 l -16714,-48351.22 h -11010.02 l -17178.28,48351.22 h 10147.79 l 3249.94,-9749.84 z m -2719.35,-8290.67 h -12601.82 l 6300.91,-18902.74 z"
         style="font-weight:bold;text-align:center;text-anchor:middle"
         id="path17092" /><path
         d="m 726704.49,678933.19 h 9948.81 v -48351.22 h -9948.81 v 32897.4 l -19168.04,-32897.4 h -10214.11 v 48351.22 h 9948.81 v -33428 z"
         style="font-weight:bold;text-align:center;text-anchor:middle"
         id="path17094" /><path
         d="m -166698.71,761839.94 h 21754.73 c 5571.34,0 9285.56,-1061.21 12203.88,-3515.25 2918.32,-2454.04 4775.43,-6499.89 4775.43,-10413.09 0,-4775.43 -2520.37,-8555.97 -8025.38,-11739.59 4775.43,-3050.97 6632.54,-5836.64 6632.54,-9948.81 0,-3382.6 -1658.13,-6831.52 -4377.47,-9219.23 -2851.99,-2454.04 -6234.59,-3515.25 -11407.97,-3515.25 h -21555.76 z m 9948.81,-40060.55 h 10811.04 c 4642.78,0 7030.5,1857.12 7030.5,5438.69 0,3647.89 -2387.72,5505.01 -7030.5,5505.01 h -10811.04 z m 0,19234.37 h 11872.25 c 4841.75,0 7362.12,2122.41 7362.12,6300.91 0,4112.18 -2520.37,6234.59 -7362.12,6234.59 h -11872.25 z"
         style="font-weight:bold;text-align:center;text-anchor:middle"
         id="path17096" /><path
         d="m -93077.516,752090.1 3183.619,9749.84 h 10214.111 l -16714,-48351.22 H -107403.8 l -17178.28,48351.22 h 10147.79 l 3249.94,-9749.84 z m -2719.342,-8290.67 h -12601.822 l 6300.91,-18902.74 z"
         style="font-weight:bold;text-align:center;text-anchor:middle"
         id="path17098" /><path
         d="m -73312.536,761839.94 h 18902.739 c 7362.119,0 12004.897,-1724.46 15321.167,-5637.66 3780.547,-4510.13 5836.635,-11010.02 5836.635,-18571.11 0,-7494.77 -2056.088,-13994.66 -5836.635,-18571.12 -3316.27,-3913.19 -7892.723,-5571.33 -15321.167,-5571.33 h -18902.739 z m 9948.81,-8290.68 v -31769.87 h 8953.929 c 7494.77,0 11208.992,5239.71 11208.992,15918.1 0,10612.06 -3714.222,15851.77 -11208.992,15851.77 z"
         style="font-weight:bold;text-align:center;text-anchor:middle"
         id="path17100" /><path
         d="m 109.7143,752090.1 3183.6191,9749.84 H 13507.445 L -3206.5556,713488.72 H -14216.572 l -17178.278,48351.22 h 10147.786 l 3249.945,-9749.84 z m -2719.3413,-8290.67 h -12601.826 l 6300.9131,-18902.74 z"
         style="font-weight:bold;text-align:center;text-anchor:middle"
         id="path17102" /><path
         d="m 48659.921,761839.94 h 9948.81 v -48351.22 h -9948.81 v 32897.4 l -19168.04,-32897.4 H 19277.77 v 48351.22 h 9948.81 v -33428.01 z"
         style="font-weight:bold;text-align:center;text-anchor:middle"
         id="path17104" /><path
         d="m 96347.875,713488.72 h -9948.81 v 48351.22 h 33096.375 v -8290.68 H 96347.875 Z"
         style="font-weight:bold;text-align:center;text-anchor:middle"
         id="path17106" /><path
         d="m 135745.17,713488.72 h -9948.81 v 48351.22 h 9948.81 z"
         style="font-weight:bold;text-align:center;text-anchor:middle"
         id="path17108" /><path
         d="m 165458.89,721779.39 h 14127.31 v -8290.67 h -38734.03 v 8290.67 h 14657.91 v 40060.55 h 9948.81 z"
         style="font-weight:bold;text-align:center;text-anchor:middle"
         id="path17110" /><path
         d="m 185223.86,761839.94 h 21754.73 c 5571.33,0 9285.55,-1061.21 12203.87,-3515.25 2918.32,-2454.04 4775.43,-6499.89 4775.43,-10413.09 0,-4775.43 -2520.37,-8555.97 -8025.37,-11739.59 4775.42,-3050.97 6632.54,-5836.64 6632.54,-9948.81 0,-3382.6 -1658.14,-6831.52 -4377.48,-9219.23 -2851.99,-2454.04 -6234.59,-3515.25 -11407.97,-3515.25 h -21555.75 z m 9948.81,-40060.55 h 10811.04 c 4642.77,0 7030.49,1857.12 7030.49,5438.69 0,3647.89 -2387.72,5505.01 -7030.49,5505.01 h -10811.04 z m 0,19234.37 h 11872.24 c 4841.76,0 7362.12,2122.41 7362.12,6300.91 0,4112.18 -2520.36,6234.59 -7362.12,6234.59 h -11872.24 z"
         style="font-weight:bold;text-align:center;text-anchor:middle"
         id="path17112" /><path
         d="m 258845.04,752090.1 3183.62,9749.84 h 10214.11 l -16714,-48351.22 h -11010.01 l -17178.28,48351.22 h 10147.78 l 3249.95,-9749.84 z m -2719.34,-8290.67 h -12601.82 l 6300.91,-18902.74 z"
         style="font-weight:bold;text-align:center;text-anchor:middle"
         id="path17114" /><path
         d="m 307395.23,761839.94 h 9948.81 v -48351.22 h -9948.81 v 32897.4 l -19168.04,-32897.4 h -10214.11 v 48351.22 h 9948.81 v -33428.01 z"
         style="font-weight:bold;text-align:center;text-anchor:middle"
         id="path17116" /><path
         d="m 368679.97,735840.38 h -19367.02 v 8290.67 h 11010.02 c -265.3,2719.35 -928.56,4377.48 -2387.71,6101.94 -2387.72,2918.32 -6101.94,4642.78 -9882.49,4642.78 -8091.7,0 -13795.68,-7030.49 -13795.68,-16979.3 0,-10413.09 5040.73,-16714 13530.38,-16714 3448.92,0 6367.24,994.88 8555.98,2918.31 1392.83,1193.86 2122.41,2321.39 2984.64,4841.76 h 9351.88 c -1193.86,-10015.14 -9285.56,-16249.72 -20958.83,-16249.72 -13928.33,0 -23412.86,10280.43 -23412.86,25336.3 0,14657.91 9550.86,25336.3 22616.96,25336.3 6499.89,0 10877.36,-2321.39 14591.59,-7760.07 l 1193.85,6367.24 h 5969.29 z"
         style="font-weight:bold;text-align:center;text-anchor:middle"
         id="path17118" /><path
         d="m 406551.78,744595.33 h 12402.85 c 8887.6,0 14591.58,-6300.91 14591.58,-16117.07 0,-9683.51 -5505,-14989.54 -15586.46,-14989.54 h -21356.78 v 48351.22 h 9948.81 z m 0,-8290.67 v -14525.27 h 9285.55 c 5306.03,0 7760.07,2321.39 7760.07,7229.47 0,4974.41 -2454.04,7295.8 -7760.07,7295.8 z"
         style="font-weight:bold;text-align:center;text-anchor:middle"
         id="path17120" /><path
         d="m 449795.94,741013.76 h 23147.56 v -8290.67 h -23147.56 v -10943.7 h 25004.68 v -8290.67 h -34953.49 v 48351.22 h 36147.34 v -8290.68 h -26198.53 z"
         style="font-weight:bold;text-align:center;text-anchor:middle"
         id="path17122" /><path
         d="m 494101.27,742671.9 h 11407.96 c 4311.16,0 6168.27,1724.46 6168.27,5703.98 v 1989.76 c -66.33,1260.18 -66.33,2454.04 -66.33,3183.62 0,4576.45 265.3,5969.29 1459.16,8290.68 h 10678.39 v -1790.79 c -1525.49,-862.23 -2122.41,-1857.11 -2122.41,-3979.52 -265.31,-14259.96 -530.61,-14923.22 -6698.87,-17576.23 5438.68,-2122.42 8158.02,-6035.62 8158.02,-11938.58 0,-3846.87 -1326.5,-7362.12 -3647.89,-9749.83 -2188.74,-2255.06 -5239.71,-3316.27 -9351.88,-3316.27 h -25933.23 v 48351.22 h 9948.81 z m 0,-8290.68 v -12601.83 h 12004.89 c 2851.99,0 3979.53,265.31 5239.71,1260.19 1193.86,994.88 1790.79,2653.01 1790.79,4908.08 0,2321.39 -596.93,4178.5 -1790.79,5173.38 -1127.53,928.55 -2387.72,1260.18 -5239.71,1260.18 z"
         style="font-weight:bold;text-align:center;text-anchor:middle"
         id="path17124" /><path
         d="m 552135.95,721779.39 h 14127.31 v -8290.67 h -38734.03 v 8290.67 h 14657.91 v 40060.55 h 9948.81 z"
         style="font-weight:bold;text-align:center;text-anchor:middle"
         id="path17126" /><path
         d="m 594517.95,752090.1 3183.62,9749.84 h 10214.11 l -16714,-48351.22 h -11010.02 l -17178.28,48351.22 h 10147.79 l 3249.94,-9749.84 z m -2719.34,-8290.67 h -12601.83 l 6300.91,-18902.74 z"
         style="font-weight:bold;text-align:center;text-anchor:middle"
         id="path17128" /><path
         d="m 643068.14,761839.94 h 9948.81 v -48351.22 h -9948.81 v 32897.4 l -19168.04,-32897.4 h -10214.11 v 48351.22 h 9948.81 v -33428.01 z"
         style="font-weight:bold;text-align:center;text-anchor:middle"
         id="path17130" /><path
         d="m 671190.11,713488.72 h -9948.81 v 48351.22 h 9948.81 z"
         style="font-weight:bold;text-align:center;text-anchor:middle"
         id="path17132" /><path
         d="m 708199.7,752090.1 3183.62,9749.84 h 10214.11 l -16714,-48351.22 h -11010.02 l -17178.28,48351.22 h 10147.79 l 3249.94,-9749.84 z m -2719.34,-8290.67 h -12601.83 l 6300.91,-18902.74 z"
         style="font-weight:bold;text-align:center;text-anchor:middle"
         id="path17134" /><path
         d="m 756749.89,761839.94 h 9948.81 v -48351.22 h -9948.81 v 32897.4 l -19168.04,-32897.4 h -10214.11 v 48351.22 h 9948.81 v -33428.01 z"
         style="font-weight:bold;text-align:center;text-anchor:middle"
         id="path17136" /></g></g></g></g>
</svg>
