<?xml version="1.0" encoding="UTF-8" standalone="no"?>
<!-- Created with Inkscape (http://www.inkscape.org/) -->

<svg
   width="32.620296mm"
   height="41.4674mm"
   viewBox="0 0 32.620296 41.4674"
   version="1.1"
   id="svg1721"
   inkscape:version="1.1.1 (3bf5ae0d25, 2021-09-20, custom)"
   sodipodi:docname="logo.svg"
   xmlns:inkscape="http://www.inkscape.org/namespaces/inkscape"
   xmlns:sodipodi="http://sodipodi.sourceforge.net/DTD/sodipodi-0.dtd"
   xmlns="http://www.w3.org/2000/svg"
   xmlns:svg="http://www.w3.org/2000/svg">
  <sodipodi:namedview
     id="namedview1723"
     pagecolor="#ffffff"
     bordercolor="#666666"
     borderopacity="1.0"
     inkscape:pageshadow="2"
     inkscape:pageopacity="0.0"
     inkscape:pagecheckerboard="0"
     inkscape:document-units="mm"
     showgrid="false"
     inkscape:zoom="0.95143098"
     inkscape:cx="132.4321"
     inkscape:cy="-10.510484"
     inkscape:window-width="1366"
     inkscape:window-height="713"
     inkscape:window-x="0"
     inkscape:window-y="27"
     inkscape:window-maximized="1"
     inkscape:current-layer="layer1"
     fit-margin-top="0"
     fit-margin-left="0"
     fit-margin-right="0"
     fit-margin-bottom="0" />
  <defs
     id="defs1718" />
  <g
     inkscape:label="Layer 1"
     inkscape:groupmode="layer"
     id="layer1"
     transform="translate(-119.47996,-56.197958)">
    <g
       aria-label="S"
       id="text2818"
       style="font-size:54.2767px;line-height:1.25;fill:#318527;stroke-width:2.90767">
      <path
         d="m 150.68906,68.898706 c -0.0543,-8.195782 -5.53622,-12.700748 -15.52314,-12.700748 -9.49842,0 -14.98037,4.45069 -14.98037,12.157981 0,6.133267 3.09378,9.118485 11.12673,10.638233 l 5.53622,1.085534 c 5.42767,1.031257 7.43591,2.551005 7.43591,5.75333 0,3.310879 -3.0395,5.319116 -7.97868,5.319116 -5.53622,0 -8.62999,-2.333898 -8.90137,-6.56748 h -7.9244 c 0.48849,8.467165 6.29609,13.080684 16.39156,13.080684 10.20402,0 16.22873,-4.722073 16.22873,-12.809301 0,-6.24182 -3.14805,-9.498422 -10.4754,-10.909616 l -6.18754,-1.194088 c -5.80761,-1.13981 -7.49019,-2.279621 -7.49019,-5.156286 0,-2.985218 2.60528,-4.884903 6.83887,-4.884903 5.15628,0 8.03295,2.171068 8.30433,6.187544 z"
         style="font-weight:bold;-inkscape-font-specification:'sans-serif Bold'"
         id="path8236" />
    </g>
  </g>
</svg>
