<?xml version="1.0" standalone="no"?>
<!DOCTYPE svg PUBLIC "-//W3C//DTD SVG 20010904//EN"
 "http://www.w3.org/TR/2001/REC-SVG-20010904/DTD/svg10.dtd">
<svg version="1.0" xmlns="http://www.w3.org/2000/svg"
 width="1256.000000pt" height="1256.000000pt" viewBox="0 0 1256.000000 1256.000000"
 preserveAspectRatio="xMidYMid meet">
<metadata>
Created by potrace 1.14, written by Peter Selinger 2001-2017
</metadata>
<g transform="translate(0.000000,1256.000000) scale(0.100000,-0.100000)"
fill="#000000" stroke="none">
<path d="M5728 12555 c-2 -2 -58 -6 -124 -9 -67 -3 -144 -8 -170 -11 -27 -3
-76 -7 -109 -10 -67 -6 -120 -11 -180 -19 -22 -3 -62 -8 -90 -12 -27 -3 -63
-8 -80 -11 -16 -3 -46 -7 -65 -8 -19 -2 -45 -6 -56 -8 -12 -3 -39 -8 -60 -12
-73 -11 -99 -16 -114 -20 -8 -2 -31 -7 -50 -10 -19 -3 -55 -11 -80 -16 -25 -6
-56 -13 -70 -15 -14 -3 -32 -7 -40 -11 -8 -3 -24 -7 -36 -8 -11 -2 -40 -9 -65
-15 -24 -7 -51 -14 -59 -15 -8 -2 -46 -13 -85 -25 -38 -11 -77 -22 -85 -24
-26 -7 -293 -98 -327 -113 -18 -7 -35 -13 -38 -13 -3 0 -19 -7 -35 -15 -17 -9
-30 -13 -30 -10 0 3 -12 -2 -27 -12 -14 -9 -32 -18 -38 -19 -29 -4 -407 -197
-440 -224 -8 -7 -15 -9 -15 -6 0 4 -7 1 -15 -6 -31 -28 -44 -38 -51 -38 -8 0
-135 -80 -144 -90 -3 -3 -39 -30 -80 -60 -94 -67 -238 -187 -307 -256 -29 -28
-54 -50 -56 -48 -2 2 -10 -7 -17 -21 -7 -14 -19 -25 -27 -25 -7 0 -13 -3 -13
-8 0 -4 -19 -28 -42 -53 -140 -151 -368 -461 -368 -498 0 -6 -4 -11 -10 -11
-5 0 -10 -7 -10 -15 0 -8 -5 -15 -12 -15 -6 0 -8 -3 -5 -6 4 -4 -2 -19 -11
-33 -46 -67 -158 -307 -202 -431 -12 -36 -27 -76 -33 -90 -6 -14 -11 -29 -11
-35 -1 -5 -6 -23 -12 -40 -17 -46 -35 -102 -39 -124 -2 -11 -10 -46 -19 -78
-8 -32 -18 -71 -22 -88 -4 -16 -8 -34 -10 -40 -4 -18 -14 -69 -20 -104 -3 -18
-8 -43 -10 -55 -2 -11 -6 -39 -9 -61 -3 -22 -7 -49 -9 -60 -2 -12 -7 -48 -11
-80 -3 -33 -8 -74 -10 -90 -25 -187 -24 -675 0 -910 3 -22 7 -65 10 -95 6 -54
10 -81 20 -130 2 -13 7 -42 10 -65 4 -22 18 -89 32 -150 14 -60 26 -115 27
-122 1 -7 5 -16 9 -19 4 -4 7 -18 7 -30 0 -13 5 -26 10 -29 5 -3 10 -17 10
-31 0 -13 4 -32 9 -42 10 -18 22 -50 26 -67 8 -30 92 -224 108 -248 10 -15 15
-27 11 -27 -4 0 0 -8 9 -18 8 -9 20 -28 26 -42 6 -14 22 -43 36 -65 13 -22 32
-53 41 -70 9 -16 20 -32 23 -35 3 -3 20 -25 36 -50 17 -25 33 -46 37 -48 4 -2
17 -19 29 -38 11 -19 40 -56 63 -81 88 -99 319 -322 333 -321 2 0 15 -8 27
-18 61 -53 252 -184 266 -184 6 0 10 -4 10 -10 0 -5 6 -10 14 -10 7 0 24 -8
37 -19 13 -10 65 -40 114 -66 50 -26 95 -52 101 -56 6 -5 13 -7 16 -4 3 3 11
-1 18 -10 7 -8 17 -15 22 -15 6 0 48 -18 94 -40 47 -22 88 -40 93 -40 4 0 29
-11 55 -25 25 -13 48 -25 51 -25 11 0 26 -5 60 -19 87 -36 445 -158 482 -165
7 -1 15 -5 19 -8 3 -4 12 -4 20 -1 8 3 14 -1 14 -8 0 -7 3 -10 6 -6 3 3 26 0
50 -8 24 -7 44 -11 44 -8 0 3 6 1 13 -4 6 -6 40 -16 75 -24 34 -7 62 -17 62
-22 0 -4 3 -6 8 -3 4 2 70 -11 147 -29 77 -19 152 -36 168 -39 15 -2 35 -7 45
-10 16 -5 40 -10 100 -21 15 -3 47 -10 72 -15 25 -6 54 -12 65 -14 72 -13 111
-20 115 -21 40 -9 70 -15 95 -20 17 -2 41 -7 55 -10 14 -2 36 -7 50 -9 27 -5
157 -31 203 -40 15 -3 39 -8 55 -11 15 -3 47 -9 72 -15 25 -5 63 -12 85 -16
22 -4 45 -8 50 -9 6 -2 35 -7 65 -14 30 -6 69 -13 85 -17 29 -6 78 -15 173
-33 26 -5 58 -12 72 -15 14 -4 39 -8 55 -10 17 -3 37 -7 45 -10 8 -3 31 -7 50
-10 19 -3 60 -10 90 -17 30 -6 64 -12 75 -14 19 -3 43 -8 95 -20 14 -3 39 -7
55 -9 17 -2 37 -7 45 -10 8 -3 31 -7 50 -10 45 -7 119 -22 130 -26 3 -1 9 -2
14 -1 5 1 16 -1 25 -5 9 -4 25 -8 36 -9 23 -3 54 -10 145 -31 36 -9 73 -17 84
-19 10 -3 57 -14 105 -26 47 -12 90 -22 96 -24 5 -1 17 -5 25 -8 8 -4 26 -8
40 -11 32 -6 119 -32 192 -57 32 -11 67 -21 78 -22 11 -1 20 -5 20 -9 0 -4 3
-7 8 -6 4 2 21 -2 37 -9 46 -17 70 -26 75 -28 151 -52 486 -216 520 -254 6 -7
40 -29 59 -38 8 -3 22 -14 31 -22 9 -9 34 -29 55 -46 102 -78 269 -271 295
-340 5 -14 14 -25 20 -25 5 0 10 -7 10 -15 0 -8 9 -30 20 -50 22 -39 87 -227
95 -277 3 -18 8 -46 11 -63 3 -16 7 -48 9 -70 2 -22 5 -40 6 -40 9 0 12 -261
4 -358 -6 -77 -9 -93 -21 -140 -3 -12 -7 -31 -8 -42 -1 -11 -5 -26 -9 -32 -5
-7 -6 -13 -3 -13 10 0 -55 -171 -95 -254 -76 -154 -216 -327 -362 -447 -81
-66 -85 -70 -132 -100 -124 -80 -155 -99 -155 -93 0 3 -12 -3 -27 -13 -27 -18
-82 -46 -94 -47 -3 -1 -21 -8 -40 -17 -58 -29 -81 -38 -179 -73 -84 -30 -220
-71 -268 -81 -9 -2 -37 -8 -62 -14 -25 -5 -61 -13 -80 -16 -19 -4 -39 -8 -45
-9 -27 -7 -126 -23 -185 -31 -127 -16 -183 -22 -320 -31 -141 -9 -537 -12
-576 -3 -18 3 -38 3 -45 -2 -7 -4 -18 -5 -23 -1 -6 3 -29 7 -51 9 -72 4 -170
12 -170 13 0 2 -34 6 -110 14 -33 4 -71 9 -85 11 -78 12 -107 17 -122 21 -10
3 -30 7 -45 10 -151 25 -471 117 -510 147 -7 5 -13 6 -13 3 0 -4 -12 -1 -27 7
-16 8 -39 19 -53 25 -40 16 -205 96 -210 102 -3 3 -16 11 -30 18 -26 12 -32
16 -115 70 -173 113 -413 344 -490 472 -5 9 -25 39 -42 66 -18 27 -33 55 -33
62 0 6 -4 12 -9 12 -5 0 -14 15 -22 33 -7 17 -20 43 -30 57 -9 14 -17 28 -18
33 0 4 -10 29 -21 55 -60 134 -132 395 -145 522 -2 19 -4 35 -5 35 -4 0 -9 44
-13 108 -2 37 -7 70 -10 73 -9 10 -167 10 -167 0 0 -4 -6 -4 -12 1 -7 6 -22 8
-33 6 -11 -2 -24 -4 -30 -4 -5 0 -19 2 -30 4 -11 2 -26 0 -32 -6 -7 -5 -13 -6
-13 -1 0 5 -38 9 -85 9 -47 0 -85 -4 -85 -9 0 -5 -6 -5 -12 0 -15 11 -509 11
-526 0 -7 -4 -12 -3 -12 1 0 11 -50 10 -67 0 -7 -5 -13 -5 -13 0 0 4 -38 8
-85 8 -47 0 -85 -4 -85 -9 0 -5 -7 -2 -17 5 -9 8 -17 14 -18 14 -1 0 -9 -6
-18 -14 -10 -7 -17 -10 -17 -5 0 11 -571 11 -588 0 -7 -4 -12 -4 -12 1 0 4
-29 8 -65 8 -36 0 -65 -4 -65 -9 0 -5 -6 -4 -13 1 -6 6 -21 8 -32 6 -11 -2
-24 -4 -30 -4 -5 0 -19 2 -30 4 -11 2 -26 0 -33 -6 -6 -5 -12 -6 -12 -1 0 7
-89 10 -147 5 -14 -1 -10 -102 11 -286 4 -27 9 -72 12 -100 3 -27 8 -63 11
-80 2 -16 6 -39 8 -50 10 -65 17 -106 25 -150 5 -27 11 -61 14 -75 2 -14 9
-44 15 -68 7 -23 9 -47 6 -52 -3 -6 -2 -10 3 -10 6 0 12 -15 15 -32 7 -45 13
-71 38 -153 25 -84 24 -83 33 -120 4 -16 11 -39 16 -50 4 -11 27 -74 50 -140
23 -66 53 -142 67 -170 14 -27 25 -52 25 -55 3 -40 252 -508 288 -540 3 -3 23
-32 45 -65 21 -33 48 -72 59 -86 12 -14 32 -41 46 -59 121 -163 363 -413 530
-550 30 -25 57 -48 58 -52 2 -5 10 -8 18 -8 8 0 14 -4 14 -9 0 -4 28 -28 63
-52 34 -24 71 -51 81 -61 11 -10 24 -18 29 -18 4 0 15 -6 22 -12 31 -28 44
-38 50 -38 4 0 22 -12 41 -26 19 -15 34 -23 34 -19 0 3 7 0 15 -7 33 -30 45
-38 45 -32 0 4 8 0 18 -8 9 -9 33 -24 52 -33 19 -10 38 -22 41 -27 3 -5 9 -9
13 -9 12 1 41 -13 54 -26 7 -7 22 -13 32 -13 11 0 23 -8 29 -17 5 -10 12 -17
15 -15 3 1 45 -16 94 -39 146 -69 348 -154 387 -163 6 -1 26 -9 45 -18 19 -8
47 -18 62 -21 15 -4 40 -12 55 -19 15 -6 33 -12 38 -13 6 -2 71 -21 145 -43
74 -23 191 -54 260 -71 168 -40 181 -43 208 -45 12 0 22 -4 22 -8 0 -3 8 -5
18 -3 9 1 24 -1 32 -5 8 -4 33 -10 55 -13 22 -3 50 -8 61 -10 24 -6 65 -12
139 -22 28 -4 61 -9 75 -11 39 -7 80 -13 135 -19 28 -3 68 -8 90 -11 52 -7 81
-10 190 -18 50 -4 106 -9 125 -11 202 -26 1185 -26 1365 1 17 2 62 6 100 9 76
5 163 13 210 20 17 2 57 7 90 10 33 4 71 9 85 11 31 6 86 14 125 19 17 2 30 4
30 5 0 1 11 3 25 5 69 8 136 20 168 29 19 5 91 18 110 19 6 0 12 3 12 6 0 3
16 7 36 8 20 1 44 5 53 9 9 4 23 8 31 9 56 7 425 107 490 132 20 8 21 9 55 18
17 4 42 14 57 21 15 8 35 16 45 17 10 2 31 9 46 15 16 7 30 12 32 12 2 0 16 5
32 12 15 6 30 12 33 13 13 5 47 18 65 25 205 87 376 169 387 185 4 5 8 7 8 3
0 -8 194 101 257 143 23 16 46 29 52 29 6 0 11 5 11 10 0 6 6 10 13 10 6 0 27
14 46 30 18 17 40 30 47 30 8 0 14 4 14 8 0 4 13 15 29 25 31 18 206 156 277
217 44 39 288 284 319 321 11 13 42 51 68 84 26 33 53 67 60 75 7 8 14 18 15
23 1 4 10 16 20 26 28 32 36 42 94 132 76 116 171 281 171 297 0 6 3 12 6 12
6 0 41 71 91 184 59 133 122 310 155 434 14 54 29 104 32 112 3 8 7 22 8 30 1
8 5 26 8 40 3 14 8 36 11 50 3 14 8 36 11 50 3 14 8 36 11 50 3 14 7 36 9 50
2 14 6 41 10 60 6 37 11 73 20 155 3 28 8 64 10 80 26 170 27 755 1 960 -2 17
-6 57 -10 90 -3 33 -8 71 -11 85 -2 14 -7 42 -10 62 -2 21 -9 58 -15 83 -6 25
-10 48 -9 52 1 5 1 10 -1 13 -1 5 -9 42 -13 70 -1 8 -5 20 -8 25 -6 9 -23 90
-20 90 1 0 -7 26 -18 58 -11 31 -17 57 -14 57 3 0 1 6 -4 13 -9 11 -47 122
-48 139 0 4 -6 13 -12 20 -7 6 -13 22 -13 33 0 12 -3 25 -7 29 -5 4 -8 11 -9
14 0 4 -15 38 -32 76 -18 38 -32 70 -32 72 0 5 -143 259 -149 264 -4 3 -15 19
-25 35 -70 112 -205 273 -331 395 -118 113 -137 130 -235 203 -52 40 -96 75
-98 80 -2 4 -7 7 -12 7 -4 0 -54 31 -111 68 -57 38 -135 86 -174 107 -38 20
-76 42 -82 47 -7 6 -13 7 -13 2 0 -5 -4 -4 -8 1 -7 11 -140 77 -179 89 -13 4
-23 11 -23 15 0 4 -6 8 -12 9 -7 0 -78 27 -158 60 -185 75 -462 171 -548 188
-13 2 -42 11 -65 19 -36 12 -212 58 -272 70 -11 3 -32 7 -47 11 -15 3 -29 5
-30 4 -2 -1 -15 3 -29 9 -15 5 -46 13 -70 16 -24 4 -47 8 -50 11 -4 2 -24 6
-45 9 -22 3 -46 8 -54 11 -8 3 -32 8 -53 11 -45 6 -72 11 -72 13 0 1 -11 3
-25 6 -14 2 -45 8 -70 14 -25 5 -60 12 -77 15 -18 3 -48 7 -65 10 -18 3 -44 8
-58 12 -14 3 -34 7 -45 8 -11 2 -31 5 -45 8 -55 13 -78 17 -135 28 -33 6 -69
12 -81 13 -11 2 -25 5 -30 8 -5 3 -31 9 -58 12 -27 4 -52 9 -56 11 -3 2 -24 6
-46 9 -21 3 -50 8 -64 10 -14 3 -50 11 -80 17 -30 7 -64 13 -75 15 -23 3 -68
11 -105 19 -23 5 -105 21 -155 30 -19 4 -107 21 -150 29 -11 2 -31 7 -45 10
-14 4 -41 9 -60 11 -19 2 -57 9 -85 15 -27 6 -63 14 -80 16 -16 3 -40 7 -52 9
-13 2 -26 6 -31 9 -4 2 -26 7 -48 10 -43 6 -66 10 -169 32 -74 16 -92 20 -140
30 -42 8 -304 71 -400 95 -44 12 -87 22 -95 24 -8 2 -27 8 -42 14 -16 6 -28 8
-28 5 0 -4 -7 -1 -15 6 -8 7 -15 9 -15 5 0 -4 -6 -2 -13 4 -8 6 -16 8 -19 5
-4 -3 -20 2 -37 10 -17 9 -33 16 -36 16 -3 0 -6 0 -7 1 -2 0 -11 2 -20 4 -25
5 -149 45 -173 56 -11 5 -51 20 -90 35 -92 34 -290 126 -360 167 -119 70 -197
130 -287 219 -37 37 -68 72 -68 77 0 5 -4 11 -8 13 -35 14 -149 240 -167 331
-3 10 -7 27 -10 37 -9 30 -16 63 -20 95 -1 17 -4 30 -5 30 -5 0 -11 107 -12
220 -1 119 3 176 16 260 5 29 8 44 22 110 3 17 11 36 16 43 6 6 8 12 5 12 -9
0 33 111 74 193 40 80 96 169 111 175 4 2 8 10 8 18 0 8 5 14 10 14 6 0 10 5
10 11 0 14 217 229 230 229 5 0 15 6 22 13 53 53 327 205 428 237 25 8 47 17
50 20 5 5 99 36 138 45 9 3 51 13 92 24 71 19 121 30 165 36 11 2 20 4 20 5 0
2 35 8 89 15 27 4 58 9 70 11 25 5 99 12 226 21 118 9 473 8 600 -1 52 -4 121
-9 153 -11 31 -2 60 -6 65 -8 4 -3 34 -8 67 -11 33 -3 70 -8 82 -10 11 -3 43
-8 70 -12 26 -5 50 -8 53 -9 3 -1 19 -4 35 -8 17 -4 42 -9 58 -12 52 -10 72
-15 142 -36 39 -11 84 -24 100 -29 32 -8 140 -46 165 -57 8 -3 17 -7 20 -8 21
-7 92 -39 123 -55 22 -11 45 -20 53 -20 8 0 14 -4 14 -8 0 -5 21 -18 48 -30
52 -24 196 -118 263 -172 87 -70 226 -200 214 -200 -2 0 8 -12 23 -27 38 -39
92 -110 92 -122 0 -5 4 -11 8 -13 10 -4 42 -50 73 -103 26 -46 109 -212 109
-219 0 -3 5 -17 12 -33 6 -15 13 -37 15 -48 2 -10 7 -22 11 -25 4 -3 9 -12 10
-20 2 -8 5 -22 7 -30 2 -8 9 -31 15 -50 32 -104 75 -348 79 -456 l1 -22 1150
0 c842 1 1150 4 1151 12 3 69 3 116 -1 116 -3 0 -5 45 -5 100 0 55 -2 100 -5
100 -3 0 -5 21 -6 48 -1 81 -24 276 -50 422 -4 19 -8 44 -10 55 -11 68 -19
102 -44 205 -49 195 -89 330 -111 372 -5 10 -9 22 -9 27 0 5 -5 22 -12 38 -6
15 -12 30 -13 33 -6 17 -20 51 -36 87 -10 24 -19 45 -19 49 0 3 -16 37 -35 75
-19 38 -31 69 -27 69 4 0 2 4 -3 8 -9 6 -30 43 -94 167 -9 16 -20 33 -26 37
-7 5 -7 8 0 8 6 0 6 3 0 8 -13 9 -42 54 -43 66 0 5 -5 12 -10 15 -5 3 -22 26
-37 51 -128 204 -396 502 -604 670 -24 19 -62 50 -84 68 -22 18 -49 38 -60 43
-11 6 -33 23 -49 37 -16 15 -35 29 -41 32 -7 3 -52 32 -102 64 -102 67 -234
145 -282 167 -18 7 -33 17 -33 21 0 5 -5 8 -12 8 -6 0 -48 18 -92 39 -142 69
-216 101 -231 101 -8 0 -15 4 -15 8 0 5 -6 9 -12 10 -7 0 -73 23 -146 50 -73
28 -135 50 -138 50 -3 0 -17 4 -32 10 -15 5 -61 20 -102 32 -41 11 -85 25 -98
31 -13 5 -33 9 -46 9 -12 0 -26 3 -30 7 -3 4 -14 8 -24 10 -9 2 -21 5 -27 7
-5 1 -28 7 -50 11 -22 5 -42 10 -45 10 -3 1 -16 5 -30 8 -27 7 -72 16 -105 22
-11 1 -36 7 -55 12 -19 6 -43 9 -52 7 -10 -1 -18 1 -18 5 0 4 -8 7 -17 8 -26
1 -94 11 -123 18 -22 4 -45 8 -125 20 -11 1 -20 3 -20 4 0 2 -12 4 -120 15
-27 3 -72 8 -100 12 -27 3 -62 7 -77 7 -16 0 -28 3 -28 6 0 3 -17 6 -37 6 -40
1 -249 15 -318 21 -51 5 -882 13 -887 9z"/>
</g>
</svg>
