<?xml version="1.0" encoding="UTF-8" standalone="no"?>
<!-- Created with Inkscape (http://www.inkscape.org/) -->

<svg
   width="121.62118mm"
   height="53.309795mm"
   viewBox="0 0 121.62118 53.309795"
   version="1.1"
   id="svg1697"
   sodipodi:docname="logo-ugm-white.svg"
   inkscape:version="1.1.1 (3bf5ae0d25, 2021-09-20, custom)"
   xmlns:inkscape="http://www.inkscape.org/namespaces/inkscape"
   xmlns:sodipodi="http://sodipodi.sourceforge.net/DTD/sodipodi-0.dtd"
   xmlns="http://www.w3.org/2000/svg"
   xmlns:svg="http://www.w3.org/2000/svg">
  <sodipodi:namedview
     id="namedview41"
     pagecolor="#ffffff"
     bordercolor="#666666"
     borderopacity="1.0"
     inkscape:pageshadow="2"
     inkscape:pageopacity="0.0"
     inkscape:pagecheckerboard="0"
     inkscape:document-units="mm"
     showgrid="false"
     showguides="true"
     inkscape:guide-bbox="true"
     fit-margin-top="0"
     fit-margin-left="0"
     fit-margin-right="0"
     fit-margin-bottom="0"
     inkscape:zoom="0.66792746"
     inkscape:cx="-36.68063"
     inkscape:cy="241.04414"
     inkscape:window-width="1366"
     inkscape:window-height="713"
     inkscape:window-x="0"
     inkscape:window-y="27"
     inkscape:window-maximized="1"
     inkscape:current-layer="svg1697">
    <sodipodi:guide
       position="115.76191,13.101595"
       orientation="0,-1"
       id="guide20825" />
    <sodipodi:guide
       position="115.2642,7.7454568"
       orientation="0,-1"
       id="guide20827" />
  </sodipodi:namedview>
  <defs
     id="defs1694" />
  <g
     id="g23313"
     transform="translate(35.296288,64.3308)"
     style="fill:#ffffff;fill-opacity:1">
    <path
       class="fil1"
       d="m -25.488901,-24.0464 0.3302,0.0762 c 0.127,0 0.2032,0.1016 0.2032,0.2286 v 0 3.1496 c 0,1.27 0.889,1.9558 2.1336,1.9558 1.2192,0 2.1082,-0.6858 2.1082,-1.9558 v -3.1496 h 0.0254 c 0,-0.127 0.0762,-0.2286 0.2032,-0.2286 l 0.3302,-0.0762 v -0.1016 h -1.7272 v 0.1016 l 0.3302,0.0508 c 0.127,0.0254 0.2032,0.127 0.2032,0.254 v 3.5052 c 0,0.7874 -0.5588,1.2954 -1.4732,1.2954 -0.9398,0 -1.4986,-0.508 -1.4986,-1.2954 v -3.5052 c 0,-0.127 0.1016,-0.2286 0.2286,-0.254 l 0.3302,-0.0508 v -0.1016 h -1.7272 z m 11.4046,-0.1016 h -1.524 v 0.1016 l 0.3302,0.0508 c 0.1016,0.0254 0.2032,0.127 0.2032,0.254 v 3.5052 l -3.3782,-3.8608 c 0,-0.0254 -0.0762,-0.0508 -0.1524,-0.0508 h -1.0922 v 0.1016 l 0.3302,0.0508 c 0.127,0.0254 0.2286,0.127 0.2286,0.254 v 4.572 c 0,0.127 -0.1016,0.2286 -0.2286,0.254 l -0.3302,0.0508 v 0.1016 h 1.524 v -0.1016 l -0.3302,-0.0508 c -0.127,-0.0254 -0.2032,-0.127 -0.2286,-0.254 v -4.1402 l 3.9624,4.5466 h 0.127 v -4.9784 c 0,-0.127 0.1016,-0.2286 0.2032,-0.254 l 0.3556,-0.0508 z m 1.8288,0.1524 0.3556,-0.0508 v -0.1016 h -1.7272 v 0.1016 l 0.3302,0.0508 c 0.127,0.0254 0.2032,0.127 0.2032,0.254 v 4.572 c 0,0.1016 -0.0508,0.2286 -0.2032,0.254 l -0.3302,0.0508 v 0.1016 h 1.7272 v -0.1016 l -0.3556,-0.0508 c -0.1016,-0.0254 -0.2032,-0.127 -0.2032,-0.254 v -4.572 c 0,-0.127 0.1016,-0.2286 0.2032,-0.254 z m 4.5720004,-0.1524 v 0.1016 l 0.1778,0.0254 c 0.127,0.0254 0.2032,0.127 0.2032,0.254 0,0.0254 0,0.0254 0,0.0508 l -1.4732,3.8354 -1.4478004,-3.7846 c -0.0254,-0.0508 -0.0254,-0.0762 -0.0254,-0.1016 0,-0.127 0.0762,-0.2286 0.2032,-0.254 l 0.1778004,-0.0254 v -0.1016 h -1.7272004 v 0.1016 l 0.4064,0.0762 c 0.0508,0 0.1524,0.0508 0.1778,0.1524 l 1.9558004,5.1308 h 0.3556 l 1.9812,-5.1308 c 0.0254,-0.0762 0.1016,-0.127 0.1778,-0.1524 l 0.4064,-0.0762 v -0.1016 z m 5.461,4.445 h -0.0762 l -0.0762,0.3302 c -0.0254,0.127 -0.127,0.2032 -0.254,0.2032 h -1.778 c -0.127,0 -0.2286,-0.1016 -0.2286,-0.2286 v -2.032 c 0,-0.1016 0.0508,-0.1524 0.127,-0.1524 h 1.0922 c 0.127,0 0.2286,0.1016 0.254,0.2286 l 0.0508,0.3302 h 0.1016 v -1.4224 h -0.1016 l -0.0508,0.3302 c -0.0254,0.127 -0.127,0.2032 -0.254,0.2032 h -1.0922 c -0.0762,0 -0.127,-0.0508 -0.127,-0.127 v -1.5748 c 0,-0.0762 0.0508,-0.127 0.1016,-0.127 h 1.6256 c 0.127,0 0.2286,0.0762 0.254,0.2032 l 0.0762,0.3302 h 0.1016 v -0.7366 c 0,-0.127 -0.1016,-0.2032 -0.2286,-0.2032 h -3.1242 v 0.1016 l 0.3302,0.0508 c 0.127,0.0254 0.2286,0.127 0.2286,0.254 v 4.572 c 0,0.127 -0.1016,0.2286 -0.2286,0.254 l -0.3302,0.0508 v 0.1016 h 3.4036 c 0.127,0 0.2032,-0.1016 0.2032,-0.2032 z m 4.7498,0.762 v 0 c -0.254,-0.0254 -0.4572,-0.1778 -0.6096,-0.3556 L 0.54609939,-20.973 c 0.86360001,0 1.42240001,-0.635 1.42240001,-1.6256 0,-0.9398 -0.6604,-1.5494 -1.67640001,-1.5494 H -1.8161006 v 0.1016 l 0.3302,0.0508 c 0.1016,0.0254 0.2032,0.127 0.2032,0.254 v 4.572 c 0,0.127 -0.1016,0.2286 -0.2032,0.254 l -0.3302,0.0508 v 0.1016 h 1.70179999 v -0.1016 l -0.3302,-0.0508 c -0.127,-0.0254 -0.2286,-0.127 -0.2286,-0.254 v -1.8034 h 0.5334 l 1.54940001,1.9304 c 0.2794,0.3302 0.635,0.2794 1.4732,0.2794 v -0.1016 z m -3.17500001,-4.699 c 0,-0.0508 0.0508,-0.1016 0.127,-0.1016 h 0.6096 c 0.7112,0 1.16840001,0.4318 1.16840001,1.1176 -0.0254,0.762 -0.48260001,1.27 -1.16840001,1.27 h -0.7366 z m 6.83260001,3.7592 c 0,-0.7874 -0.254,-1.27 -1.0414,-1.7018 -0.7112,-0.4318 -1.7018,-0.8382 -1.7018,-1.4732 0,-0.9652 1.016,-1.143 1.905,-0.7112 0.2032,0.1016 0.2794,0.2286 0.381,0.6858 h 0.1016 v -1.2192 h -0.1016 l -0.0254,0.0762 c -0.0254,0.1778 -0.1524,0.254 -0.3556,0.1778 -0.6096,-0.254 -1.0922,-0.254 -1.0922,-0.254 -0.8636,0 -1.4478,0.5588 -1.4478,1.3716 0.0254,0.5842 0.4572,0.9652 0.8382,1.2446 l 1.016,0.6096 c 0.6858,0.4572 0.8636,0.9144 0.889,1.2192 0,0.9652 -0.9398,1.2954 -2.1336,0.5334 -0.4064,-0.254 -0.4826,-1.0414 -0.4826,-1.0414 h -0.1016 v 1.6002 h 0.1016 l 0.0254,-0.254 c 0,-0.0762 0.0762,-0.127 0.1778,-0.127 0.0762,0 0.0762,0 0.4826,0.254 1.1938,0.6096 2.5654,0.2286 2.5654,-0.9906 z m 1.8542,-4.1148 0.3302,-0.0508 v -0.1016 h -1.7018 v 0.1016 l 0.3302,0.0508 c 0.1016,0.0254 0.2032,0.127 0.2032,0.254 v 4.572 c 0,0.1016 -0.0762,0.2286 -0.2032,0.254 l -0.3302,0.0508 v 0.1016 h 1.7018 v -0.1016 l -0.3302,-0.0508 c -0.1016,-0.0254 -0.2032,-0.127 -0.2032,-0.254 v -4.572 c 0,-0.127 0.1016,-0.2286 0.2032,-0.254 z M 12.306299,-24.148 H 8.9280994 c -0.127,0 -0.2032,0.0762 -0.2032,0.2032 l -0.0254,0.7112 h 0.1016 c 0.0254,-0.1524 0.1016,-0.2794 0.127,-0.381 0.0254,-0.0762 0.127,-0.127 0.2032,-0.127 h 1.1683996 v 4.572 c 0,0.127 -0.1016,0.2286 -0.2286,0.254 l -0.3301996,0.0508 v 0.1016 h 1.7271996 v -0.1016 l -0.3302,-0.0508 c -0.127,-0.0254 -0.2032,-0.127 -0.2032,-0.254 v -4.572 h 1.1938 0.0254 c 0.0762,0 0.1524,0.0508 0.2032,0.127 0.0254,0.1016 0.0508,0.2286 0.1016,0.381 h 0.1016 l -0.0254,-0.7112 c -0.0254,-0.127 -0.1016,-0.2032 -0.2286,-0.2032 z m 4.9276,5.2832 c -0.3302,-0.0762 -0.5588,-0.1778 -0.6858,-0.4826 l -1.8542,-4.8768 h -0.0508 l -1.8796,4.9022 c -0.127,0.2794 -0.3048,0.4064 -0.6858,0.4572 v 0.1016 h 1.4732 v -0.1016 c -0.3048,0 -0.4064,-0.1778 -0.3048,-0.4318 l 0.5334,-1.4224 h 1.5748 l 0.5334,1.4224 c 0.0762,0.2032 0,0.4318 -0.3302,0.4318 v 0.1016 h 1.6764 z m -3.3274,-2.1844 0.635,-1.7272 0.6858,1.7272 z m 6.9342,1.1684 c 0,-0.7874 -0.254,-1.27 -1.0414,-1.7018 -0.7112,-0.4318 -1.7018,-0.8382 -1.7018,-1.4732 0,-0.9652 1.016,-1.143 1.905,-0.7112 0.2032,0.1016 0.2794,0.2286 0.381,0.6858 h 0.1016 v -1.2192 h -0.1016 l -0.0254,0.0762 c -0.0254,0.1778 -0.1524,0.254 -0.3556,0.1778 -0.6096,-0.254 -1.0922,-0.254 -1.0922,-0.254 -0.8636,0 -1.4478,0.5588 -1.4478,1.3716 0.0254,0.5842 0.4572,0.9652 0.8382,1.2446 l 1.016,0.6096 c 0.6858,0.4572 0.8636,0.9144 0.889,1.2192 0,0.9652 -0.9398,1.2954 -2.1336,0.5334 -0.381,-0.254 -0.4826,-1.0414 -0.4826,-1.0414 h -0.1016 v 1.6002 h 0.1016 l 0.0254,-0.254 c 0,-0.0762 0.0762,-0.127 0.1778,-0.127 0.0762,0 0.0762,0 0.4826,0.254 1.1938,0.6096 2.5654,0.2286 2.5654,-0.9906 z m 2.7686,-1.5748 c -0.0254,0.7112 0.3048,1.4986 0.8128,2.0066 0.4572,0.4572 1.2446,0.7874 1.905,0.7874 0,0 1.4224,0.0508 2.2606,-0.508 0.0254,-0.0254 0.0508,-0.0762 0.0508,-0.127 v -1.7272 c 0,-0.1524 0.1016,-0.2286 0.2032,-0.254 l 0.3556,-0.0762 v -0.1016 h -1.7526 v 0.1016 l 0.3556,0.0762 c 0.1016,0 0.2032,0.1016 0.2032,0.254 v 1.2954 c 0,0.4826 -0.7874,0.762 -1.3462,0.762 -1.397,0 -2.3114,-1.016 -2.3114,-2.4892 0,-1.4732 0.9144,-2.4638 2.3114,-2.4638 0.5842,0 1.143,0.2286 1.4986,0.6858 0.1778,0.2286 0.254,0.4064 0.3302,0.8128 h 0.1524 v -1.143 c 0,-0.0508 -0.0254,-0.1016 -0.0762,-0.1524 -0.8128,-0.5334 -2.2098,-0.4826 -2.2098,-0.4826 -0.6858,0.0254 -1.4224,0.3556 -1.905,0.8128 -0.4826,0.4826 -0.8128,1.27 -0.8382,1.9304 z m 10.4648,2.5908 c -0.3302,-0.0762 -0.5588,-0.1524 -0.6858,-0.4826 l -1.8542,-4.826 h -0.0254 l -1.8796,4.8514 c -0.1016,0.2794 -0.3048,0.4064 -0.6604,0.4572 v 0.1016 h 1.4478 v -0.1016 c -0.3048,0 -0.4064,-0.1778 -0.3048,-0.4064 l 0.5334,-1.4224 h 1.5494 l 0.5334,1.4224 c 0.0762,0.1778 0,0.4064 -0.3048,0.4064 v 0.1016 h 1.651 z m -3.3274,-2.159 0.6604,-1.7272 0.6604,1.7272 z m 6.0706,-3.0988 h -2.5146 v 0.1016 l 0.3302,0.0762 c 0.127,0 0.2032,0.1016 0.2032,0.254 v 4.5212 c 0,0.127 -0.0762,0.2286 -0.2032,0.254 l -0.3302,0.0508 v 0.1016 h 2.5146 c 1.4732,0 2.4892,-0.9398 2.4892,-2.6924 0,-1.6002 -1.1176,-2.667 -2.4892,-2.667 z m 1.778,2.6924 c 0,1.397 -0.8128,2.2606 -1.9558,2.2606 h -1.016 c -0.1016,0 -0.1524,-0.0508 -0.1524,-0.127 v -4.2926 c 0,-0.0762 0.0508,-0.127 0.1524,-0.127 h 1.016 c 1.143,0 1.9558,0.9652 1.9558,2.286 z m 2.667,-2.6924 h -1.7018 v 0.1016 l 0.3302,0.0762 c 0.1016,0 0.2032,0.1016 0.2032,0.2286 v 4.445 c 0,1.7526 -0.9652,2.3114 -1.7018,2.3114 v 0.2794 c 1.4224,0 2.3368,-0.635 2.3368,-2.5908 v -4.445 c 0,-0.127 0.1016,-0.2286 0.2032,-0.2286 l 0.3302,-0.0762 z m 5.1308,5.2578 c -0.3556,-0.0762 -0.5588,-0.1524 -0.6858,-0.4826 l -1.8542,-4.826 h -0.0508 l -1.8542,4.8514 c -0.127,0.2794 -0.3048,0.4064 -0.6858,0.4572 v 0.1016 h 1.4732 v -0.1016 c -0.3048,0 -0.4064,-0.1778 -0.3302,-0.4064 l 0.5334,-1.4224 h 1.5748 l 0.5334,1.4224 c 0.0762,0.1778 0,0.4064 -0.3302,0.4064 v 0.1016 h 1.6764 z m -3.3274,-2.159 0.6604,-1.7272 0.6604,1.7272 z m 8.3312,-2.6924 c 0,-0.1016 0.0762,-0.2286 0.2286,-0.2286 l 0.3302,-0.0762 v -0.1016 h -1.7272 v 0.1016 l 0.3556,0.0762 c 0.1016,0 0.2032,0.1016 0.2032,0.2286 v 2.1082 h -2.9972 v -2.1082 c 0,-0.1016 0.0762,-0.2286 0.2032,-0.2286 l 0.3302,-0.0762 v -0.1016 h -1.7018 v 0.1016 l 0.3302,0.0762 c 0.1016,0 0.2032,0.1016 0.2032,0.2286 v 4.5466 c 0,0.127 -0.1016,0.2286 -0.2032,0.254 l -0.3302,0.0508 v 0.1016 h 1.7018 v -0.1016 l -0.3302,-0.0508 c -0.1016,-0.0254 -0.2032,-0.127 -0.2032,-0.254 v -2.1082 h 2.9972 v 2.1082 c 0,0.127 -0.1016,0.2286 -0.2032,0.254 l -0.3556,0.0508 v 0.1016 h 1.7272 v -0.1016 l -0.3302,-0.0508 c -0.1016,-0.0254 -0.2286,-0.1016 -0.2286,-0.254 z m 9.398,-0.2286 0.3302,-0.0762 v -0.1016 h -1.2192 c -0.1778,0 -0.2032,0.1016 -0.2794,0.254 l -1.651,3.556 -1.6256,-3.556 c -0.0762,-0.1778 -0.1016,-0.254 -0.3048,-0.254 h -1.3462 v 0.1016 l 0.3302,0.0762 c 0.127,0 0.2032,0.1016 0.2032,0.2286 v 4.5466 c 0,0.127 -0.0762,0.2286 -0.2032,0.254 l -0.3302,0.0508 v 0.1016 h 1.4986 v -0.1016 l -0.3302,-0.0508 c -0.1016,-0.0254 -0.2032,-0.127 -0.2032,-0.254 v -4.5212 l 2.1844,4.5212 h 0.0762 l 2.032,-4.3942 v 4.3942 c 0,0.127 -0.1016,0.2286 -0.2032,0.254 l -0.3302,0.0508 v 0.1016 h 1.7018 v -0.1016 l -0.3302,-0.0508 c -0.127,-0.0254 -0.2032,-0.127 -0.2032,-0.254 v -4.5466 c 0,-0.127 0.0762,-0.2286 0.2032,-0.2286 z m 5.6896,5.08 c -0.3556,-0.0762 -0.5588,-0.1524 -0.6858,-0.4826 l -1.8542,-4.826 h -0.0508 l -1.8542,4.8514 c -0.127,0.2794 -0.3302,0.4064 -0.6858,0.4572 v 0.1016 h 1.4732 v -0.1016 c -0.3302,0 -0.4318,-0.1778 -0.3302,-0.4064 l 0.5334,-1.4224 h 1.5748 l 0.5334,1.4224 c 0.0762,0.1778 0,0.4064 -0.3302,0.4064 v 0.1016 h 1.6764 z m -3.3274,-2.159 0.635,-1.7272 0.6604,1.7272 z m 6.0452,-3.0988 h -2.4892 v 0.1016 l 0.3048,0.0762 c 0.127,0 0.2286,0.1016 0.2286,0.254 v 4.5212 c 0,0.127 -0.1016,0.2286 -0.2286,0.254 l -0.3048,0.0508 v 0.1016 h 2.4892 c 1.4986,0 2.5146,-0.9398 2.5146,-2.6924 0,-1.6002 -1.143,-2.667 -2.5146,-2.667 z m 1.778,2.6924 c 0,1.397 -0.8128,2.2606 -1.9304,2.2606 h -1.0414 c -0.0762,0 -0.1524,-0.0508 -0.1524,-0.127 v -4.2926 c 0,-0.0762 0.0762,-0.127 0.1524,-0.127 h 1.0414 c 1.1176,0 1.9304,0.9652 1.9304,2.286 z m 5.5372,2.5654 c -0.3302,-0.0762 -0.5588,-0.1524 -0.6858,-0.4826 l -1.8542,-4.826 h -0.0254 l -1.8796,4.8514 c -0.1016,0.2794 -0.3048,0.4064 -0.6604,0.4572 v 0.1016 h 1.4478 v -0.1016 c -0.3048,0 -0.4064,-0.1778 -0.3048,-0.4064 l 0.5334,-1.4224 h 1.5494 l 0.5334,1.4224 c 0.0762,0.1778 0,0.4064 -0.3048,0.4064 v 0.1016 h 1.651 z m -3.3274,-2.159 0.6604,-1.7272 0.6604,1.7272 z"
       id="path151"
       style="clip-rule:evenodd;fill:#ffffff;fill-opacity:1;fill-rule:evenodd;stroke-width:0.0254;image-rendering:optimizeQuality;shape-rendering:geometricPrecision;text-rendering:geometricPrecision" />
    <g
       id="g217"
       style="clip-rule:evenodd;fill:#ffffff;fill-opacity:1;fill-rule:evenodd;image-rendering:optimizeQuality;shape-rendering:geometricPrecision;text-rendering:geometricPrecision"
       transform="matrix(0.0254,0,0,0.0254,-49.758601,-184.8538)">
      <path
         class="fil2"
         d="m 3146,5266 c 0,1 -1,3 -1,3 1,2 1,3 2,4 1,1 1,1 1,1 2,2 4,3 6,3 1,0 2,0 3,0 v 0 -1 0 c 1,-1 1,-3 1,-4 -1,-2 -3,-5 -4,-7 -1,0 -1,-1 -2,-1 v 0 c -2,-4 -3,-7 -3,-11 1,-3 2,-6 5,-8 0,-1 1,-1 1,-1 v 0 c 3,-2 7,-4 11,-3 3,0 6,2 10,5 2,2 4,5 5,9 1,3 1,7 -1,10 l -8,-4 c 1,-1 1,-2 0,-4 0,-1 -1,-3 -3,-4 -1,-2 -3,-3 -4,-3 -2,0 -3,1 -5,2 v 0 c 0,0 0,0 0,0 -1,1 -1,1 -1,2 0,1 0,3 1,4 v 0 c 0,1 1,1 1,1 2,3 5,6 6,10 1,5 1,9 -3,14 v 0 c -1,0 -1,0 -1,0 v 0 c -3,3 -7,4 -11,3 -3,0 -7,-2 -10,-5 -1,0 -1,-1 -1,-1 -3,-3 -5,-6 -5,-9 0,-4 0,-7 3,-10 z m -394,-11 c 1,1 2,2 4,3 3,4 6,7 10,10 6,5 13,9 17,4 3,-4 4,-8 2,-12 -2,-6 -8,-12 -18,-21 l 6,-7 c 11,10 18,17 21,24 3,8 2,15 -4,22 -9,11 -20,6 -30,-3 -4,-3 -8,-7 -11,-10 -1,-1 -2,-2 -3,-3 z m 52,1 -23,-34 7,-5 35,8 -13,-21 8,-5 19,30 3,5 -7,4 -36,-9 15,21 z m 31,-67 17,33 -8,5 -17,-33 z m 16,-11 22,23 2,-30 9,1 -7,45 -32,-32 z m 74,-11 c -2,0 -3,1 -5,1 -7,1 -15,2 -15,5 0,2 0,4 0,6 l 19,-4 2,10 -19,3 c 1,2 1,3 2,5 v 0 l 1,3 c 0,0 2,-1 4,-1 5,-1 10,-2 14,-3 l 3,8 c -4,2 -10,4 -15,4 -7,1 -13,0 -15,-5 l -1,-3 v 0 c -3,-9 -5,-14 -4,-23 0,-11 12,-13 22,-14 2,-1 4,-1 5,-1 z m 53,33 c -2,-4 -5,-8 -7,-11 -2,-2 -3,-3 -5,-4 -3,0 -6,0 -10,0 l -1,-1 v 13 h -9 v -36 -4 l 4,-1 c 2,0 3,-1 5,-1 6,-1 13,0 18,1 6,2 10,6 11,12 0,0 0,1 0,1 v 0 c 0,0 0,1 0,1 1,4 -2,8 -5,10 -1,1 -1,1 -2,2 0,0 1,1 1,1 3,4 6,7 8,13 z m -23,-35 v 10 h 1 c 4,0 8,0 12,0 0,0 0,0 0,0 2,0 4,-1 5,-2 1,-1 2,-2 2,-3 0,0 0,0 0,0 v 0 c 0,0 0,0 0,0 -1,-3 -2,-4 -5,-5 -4,-1 -9,-1 -14,0 z m 49,26 c 1,1 2,3 4,4 1,1 3,1 4,2 2,0 5,-1 6,-2 1,0 2,-1 2,-2 0,0 0,-1 0,-1 1,-2 0,-3 0,-3 -1,-1 -2,-2 -4,-2 0,0 -1,0 -1,0 v 0 0 0 c -5,0 -9,-2 -11,-5 -3,-3 -5,-7 -4,-11 v 0 0 0 c 0,-3 2,-7 6,-9 3,-2 7,-3 11,-3 4,1 7,2 9,5 2,2 4,4 5,6 l -9,4 c 0,-1 -1,-2 -2,-3 -1,-1 -2,-2 -4,-2 -2,0 -4,0 -5,1 -1,1 -2,2 -2,2 v 0 0 0 c 0,1 0,2 1,3 2,2 3,2 6,3 v 0 0 0 c 0,0 1,0 2,0 3,1 6,2 9,4 2,3 3,6 3,11 0,0 0,1 0,2 -1,4 -4,7 -7,9 -3,1 -8,2 -11,2 -3,0 -7,-2 -9,-3 -3,-2 -5,-5 -7,-7 z m 52,-18 -12,36 -9,-3 12,-36 z m 8,43 14,-26 -10,-5 4,-9 29,15 -4,9 -11,-6 -14,26 z m 47,4 c 4,2 7,4 10,6 3,2 5,5 8,7 4,-6 6,-12 0,-16 -7,-4 -13,-2 -18,3 z m 4,13 c -3,-2 -6,-4 -10,-6 0,1 -1,2 -2,3 -1,2 -3,4 -4,6 l -8,-6 c 2,-2 3,-4 5,-6 9,-13 19,-27 38,-14 12,8 9,18 2,28 -2,4 -5,8 -9,12 -1,1 -2,3 -3,4 l -7,-6 c 1,-2 2,-3 3,-4 1,-1 2,-2 3,-3 -2,-3 -5,-5 -8,-8 z"
         id="path153"
         style="fill:#ffffff;fill-opacity:1" />
      <path
         class="fil2"
         d="m 2771,5569 14,16 3,4 -4,3 c -2,2 -3,3 -5,5 -6,5 -12,10 -19,13 -4,1 -8,1 -11,-1 -4,-1 -8,-4 -10,-7 -3,-3 -4,-7 -5,-11 0,-5 0,-9 1,-12 l 9,3 c -1,1 -1,4 0,8 0,2 1,4 2,6 2,2 4,4 6,5 2,0 3,0 5,0 5,-2 10,-7 15,-11 1,-1 2,-1 3,-2 l -11,-13 z"
         id="path155"
         style="fill:#ffffff;fill-opacity:1" />
      <path
         class="fil2"
         d="m 2781,5613 c 1,-1 1,-2 2,-2 4,-3 9,-6 14,-7 6,0 12,2 17,7 0,1 1,1 1,2 5,6 6,11 5,17 -2,6 -6,12 -10,15 -1,0 -1,0 -1,1 -4,2 -9,4 -15,4 -5,-1 -11,-3 -15,-7 0,0 0,0 0,-1 -4,-4 -6,-10 -5,-15 0,-5 2,-10 7,-14 z m 8,5 c -1,0 -1,1 -2,1 -3,3 -4,6 -4,8 0,4 1,7 3,10 0,0 0,0 0,0 2,2 5,3 9,3 3,0 6,0 8,-2 0,0 0,0 1,0 2,-3 6,-6 7,-10 0,-3 0,-6 -3,-9 0,0 -1,-1 -1,-1 -3,-4 -6,-4 -9,-4 -3,0 -6,2 -9,4 z"
         id="path157"
         style="fill:#ffffff;fill-opacity:1" />
      <path
         class="fil2"
         d="m 2850,5648 c -1,-1 -2,-3 -4,-5 -1,-2 -3,-3 -4,-3 -3,-1 -6,0 -9,2 -3,1 -5,4 -7,6 -1,4 -2,9 -1,13 1,3 3,6 6,8 2,1 4,2 7,2 1,0 3,0 5,-1 1,-1 3,-3 4,-6 -2,-2 -6,-3 -9,-4 -1,-1 -3,-1 -4,-2 l 3,-9 c 1,1 3,2 5,2 5,2 11,5 14,7 l 2,2 -1,3 c 0,1 0,1 -1,2 -1,5 -4,11 -9,14 -3,2 -7,2 -11,1 -3,0 -7,-1 -10,-3 -5,-3 -9,-8 -10,-14 -2,-6 -1,-13 2,-18 2,-5 6,-9 11,-12 5,-2 11,-3 15,-2 3,1 6,3 9,5 2,3 5,6 6,9 z"
         id="path159"
         style="fill:#ffffff;fill-opacity:1" />
      <path
         class="fil2"
         d="m 2887,5652 c 3,1 5,2 8,3 3,1 6,2 10,3 l 5,1 -1,4 c -1,6 -2,11 -3,15 -2,5 -3,9 -6,13 -1,3 -5,6 -10,7 -4,2 -8,2 -12,0 -6,-2 -10,-5 -13,-8 -3,-3 -4,-7 -5,-11 l 9,-2 c 0,3 1,5 3,7 2,2 5,4 9,5 2,1 4,1 7,0 2,0 3,-1 4,-2 2,-4 3,-8 5,-12 0,-2 1,-5 2,-9 -3,-1 -5,-1 -7,-2 -3,-1 -6,-2 -9,-3 z"
         id="path161"
         style="fill:#ffffff;fill-opacity:1" />
      <path
         class="fil2"
         d="m 2927,5686 c 4,0 8,0 11,0 4,1 9,1 13,2 -1,-9 -3,-15 -10,-16 -1,0 -1,0 -1,0 -4,0 -7,3 -10,7 -1,2 -2,4 -3,7 z m 10,10 c -4,-1 -8,-1 -12,-1 0,1 -1,3 -1,4 0,2 0,4 0,5 h -9 c 0,-2 0,-4 0,-6 1,-8 3,-17 7,-23 4,-8 10,-13 18,-12 0,0 1,0 1,0 22,2 20,21 18,39 0,2 0,4 0,6 l -10,-1 c 1,-2 1,-4 1,-6 0,-1 0,-2 0,-4 -4,0 -8,-1 -13,-1 z"
         id="path163"
         style="fill:#ffffff;fill-opacity:1" />
      <polygon
         class="fil2"
         points="2993,5681 3011,5699 3005,5705 2986,5687 2983,5691 2983,5706 2974,5706 2972,5667 2982,5667 2982,5679 3002,5661 3008,5668 "
         id="polygon165"
         style="fill:#ffffff;fill-opacity:1" />
      <path
         class="fil2"
         d="m 3027,5697 c -3,-10 -5,-19 -4,-27 0,-9 4,-16 14,-19 9,-4 15,0 20,8 4,6 7,15 10,27 l -9,2 c -1,-3 -2,-6 -3,-9 l -21,7 c 1,2 1,5 2,8 z m 5,-26 c 0,1 0,3 0,5 l 20,-6 c -1,-2 -2,-5 -3,-6 -2,-4 -5,-6 -9,-5 -6,2 -8,7 -8,12 z"
         id="path167"
         style="fill:#ffffff;fill-opacity:1" />
      <path
         class="fil2"
         d="m 3089,5677 -19,-30 -3,-4 4,-3 c 2,-1 5,-2 7,-4 4,-3 8,-6 13,-9 4,-2 9,-2 13,-1 2,1 5,2 6,4 2,2 3,5 3,8 0,2 -1,5 -3,9 1,0 2,0 4,0 4,1 9,3 13,5 l -5,8 c -3,-2 -6,-3 -10,-3 -3,-1 -6,-1 -10,0 -2,2 -4,4 -6,6 -1,1 -2,1 -4,2 l 5,7 z m -9,-31 7,11 c 1,-1 2,-1 3,-2 3,-1 4,-3 6,-5 5,-6 7,-10 7,-12 0,-1 0,-2 0,-2 0,0 -1,-1 -2,-1 -1,0 -4,0 -5,1 -5,2 -9,5 -13,8 -1,0 -2,1 -3,2 z"
         id="path169"
         style="fill:#ffffff;fill-opacity:1" />
      <path
         class="fil2"
         d="m 3148,5635 c -4,-5 -8,-10 -11,-14 -3,-3 -6,-6 -9,-9 l -8,8 -6,-7 24,-22 6,7 -9,8 c 3,3 6,6 9,9 4,4 8,9 12,15 z"
         id="path171"
         style="fill:#ffffff;fill-opacity:1" />
      <path
         class="fil2"
         d="m 3177,5607 c -1,-1 -3,-2 -5,-4 -11,-9 -25,-20 -13,-38 9,-13 19,-10 29,-3 4,2 7,4 10,7 2,2 4,4 6,5 l -5,8 c -2,-2 -5,-4 -7,-6 h -1 l -14,19 1,1 c 2,2 4,3 6,4 z m -10,-37 c -5,7 -2,14 3,19 l 14,-19 c 0,0 -1,0 -1,0 -6,-4 -12,-6 -16,0 z"
         id="path173"
         style="fill:#ffffff;fill-opacity:1" />
      <path
         class="fil2"
         d="m 3097,5160 c 2,-1 1,-3 2,-5 2,-2 22,-22 24,-24 9,-11 16,-20 23,-30 7,-9 14,-20 22,-34 9,-17 19,-33 23,-50 5,-18 5,-38 -2,-62 -5,-17 -16,-30 -30,-39 -15,-10 -35,-16 -58,-21 -28,-5 -48,-12 -66,-18 -8,-3 -14,-5 -21,-7 -11,-4 -21,-9 -30,-16 -8,-6 -14,-12 -20,-19 -6,7 -13,13 -20,19 -9,7 -19,12 -30,16 -7,2 -14,4 -21,7 -18,6 -38,13 -67,18 -23,5 -42,11 -57,21 -15,9 -25,22 -30,39 -8,24 -7,44 -3,62 5,17 14,33 24,50 8,14 15,25 22,34 7,10 14,19 23,30 4,4 8,9 13,13 1,2 -2,5 0,7 l 1,1 -4,8 -1,-1 c -7,-6 -14,-13 -19,-20 -10,-11 -17,-20 -24,-30 -7,-10 -14,-21 -23,-35 -10,-18 -19,-34 -25,-54 -5,-20 -5,-42 3,-69 6,-20 18,-35 35,-46 17,-11 38,-18 63,-23 27,-5 47,-12 65,-18 7,-3 14,-5 21,-7 9,-3 18,-8 26,-14 8,-6 16,-14 22,-23 l 6,-8 5,8 c 7,9 14,17 23,23 7,6 16,11 26,14 7,2 14,4 21,7 18,6 37,13 65,18 25,5 46,12 62,23 17,11 29,26 35,46 9,27 8,49 3,69 -5,20 -15,36 -25,54 -8,14 -15,25 -22,35 -7,10 -15,19 -24,30 -2,3 -4,5 -6,7 -1,1 -5,5 -9,10 -7,6 0,-11 -1,-9 z m -353,57 c -2,-3 -11,-3 -12,-5 -4,-8 -7,-17 -11,-23 -8,-12 -14,-22 -21,-32 -6,-10 -14,-20 -24,-33 -13,-14 -25,-28 -40,-39 -15,-10 -33,-17 -59,-18 -17,-1 -33,5 -47,15 -14,11 -27,27 -38,47 -15,25 -29,42 -41,57 -4,5 -9,11 -13,17 -7,9 -16,17 -25,23 -8,5 -16,9 -25,12 5,8 9,17 12,25 3,11 5,22 4,34 0,7 0,14 0,22 -1,19 -1,40 -5,69 -4,23 -4,44 0,61 4,17 12,31 26,42 21,15 40,21 58,23 18,1 36,-2 55,-5 16,-3 28,-6 39,-9 12,-4 23,-8 36,-12 8,-3 17,-7 26,-12 7,-3 17,-7 23,-9 l 3,6 -16,9 c -4,1 8,1 2,4 -2,1 -4,2 -6,3 -9,4 -19,8 -27,11 -14,5 -25,9 -37,12 -12,4 -24,7 -41,10 -20,3 -39,7 -59,5 -20,-2 -41,-9 -64,-26 -16,-12 -26,-29 -31,-49 -5,-19 -4,-41 -1,-66 5,-28 5,-48 5,-67 0,-8 0,-15 1,-23 0,-10 -1,-19 -4,-29 -3,-10 -8,-20 -15,-29 l -5,-7 9,-3 c 11,-3 21,-7 30,-13 8,-6 15,-12 21,-20 4,-6 9,-12 14,-18 12,-14 25,-31 39,-55 13,-21 27,-39 42,-51 17,-12 35,-18 56,-17 28,1 49,9 66,20 16,12 29,27 42,42 10,13 18,23 25,33 7,10 14,20 21,33 4,7 8,16 12,25 1,2 2,4 3,6 z m 37,-31 v 0 h -1 l -10,-5 -40,-56 c -17,-23 -33,-46 -50,-70 l -2,-3 v 0 c -12,-14 -29,-24 -47,-31 -21,-7 -45,-10 -67,-9 -23,1 -44,8 -62,20 -22,13 -40,32 -52,51 -12,17 -20,31 -27,43 -10,17 -18,31 -32,50 -10,13 -15,24 -27,31 -9,5 -18,9 -28,12 6,8 11,17 14,27 5,13 1,26 1,42 -1,23 -4,40 -7,59 -2,14 -5,29 -7,50 -2,23 0,49 8,73 7,20 18,40 35,55 17,15 37,28 58,36 v 0 c 19,7 38,9 55,6 3,0 6,-1 9,-2 28,-10 56,-18 83,-25 25,-8 50,-16 74,-23 5,-1 7,3 12,2 l 4,1 1,6 c -4,1 -6,3 -9,4 -26,8 -51,15 -76,22 l -3,1 h -1 c -27,9 -54,17 -81,25 -15,7 -28,22 -40,40 -13,22 -23,48 -28,71 -5,22 -3,44 4,65 7,24 20,47 36,64 14,15 25,26 35,36 13,14 25,26 39,44 10,13 17,26 21,39 3,10 4,20 4,30 10,-3 20,-5 30,-6 13,-1 28,0 43,5 23,7 38,13 56,21 12,6 27,12 46,20 22,8 47,13 73,11 21,-1 43,-7 62,-20 19,-12 36,-28 49,-47 12,-16 19,-33 21,-52 0,-30 0,-59 0,-88 0,-22 0,-44 0,-66 0,-7 6,-8 6,-16 l 2,3 c 1,9 6,7 6,15 0,22 0,43 -1,64 v 0 0 c 1,29 1,58 0,88 2,19 10,36 21,52 13,19 31,35 50,47 19,13 40,19 62,20 25,2 51,-3 72,-11 20,-8 34,-14 47,-20 18,-8 33,-14 55,-21 16,-5 30,-6 44,-5 10,1 20,3 29,6 1,-10 2,-20 5,-30 4,-13 10,-26 20,-39 14,-18 26,-30 40,-44 10,-10 21,-21 35,-36 15,-17 28,-40 36,-64 6,-21 8,-43 4,-65 -5,-23 -15,-49 -29,-71 -11,-18 -24,-33 -40,-40 -26,-8 -51,-16 -76,-24 h -2 l -2,-1 c -27,-7 -61,-17 -90,-27 l 2,-4 c 10,2 16,-5 17,-4 25,7 54,16 77,23 25,7 50,14 78,24 3,1 6,2 9,2 18,3 37,1 55,-6 v 0 c 22,-8 42,-21 59,-36 16,-15 28,-35 35,-55 8,-24 10,-50 7,-73 -2,-21 -4,-36 -7,-50 -3,-19 -5,-36 -6,-59 -1,-16 -4,-29 0,-42 4,-9 8,-18 14,-26 -10,-3 -19,-7 -28,-12 -12,-8 -16,-19 -26,-32 -15,-19 -23,-33 -33,-50 -7,-12 -15,-26 -26,-43 -13,-19 -31,-38 -52,-51 -19,-12 -40,-19 -62,-20 -23,-1 -47,2 -68,9 -17,6 -32,15 -44,27 -1,1 -2,2 -2,4 h -1 l -91,128 -11,9 -9,8 2,-7 v 0 0 0 c 4,-6 0,-8 4,-14 14,-19 27,-39 41,-58 18,-25 36,-50 53,-75 l 1,-1 c 0,0 1,-1 2,-2 7,-15 10,-32 9,-49 0,-23 -5,-46 -14,-67 -8,-21 -23,-38 -40,-52 -20,-16 -43,-26 -65,-32 -21,-5 -36,-7 -50,-10 -19,-4 -35,-7 -58,-14 -15,-5 -28,-14 -39,-23 -8,-6 -14,-14 -20,-22 -6,8 -13,16 -21,22 -11,9 -23,18 -39,23 -22,7 -38,10 -57,14 -14,3 -30,5 -50,10 -22,6 -46,16 -66,32 -17,14 -31,31 -40,52 -8,21 -14,44 -14,67 0,19 4,38 12,54 l 2,2 49,68 2,4 c 13,18 26,36 40,54 0,0 3,14 4,17 z m -303,396 c -15,0 -30,-3 -45,-9 v 0 c -22,-8 -44,-22 -62,-38 -19,-17 -31,-38 -39,-61 -8,-26 -11,-54 -8,-78 2,-21 5,-37 7,-51 3,-19 6,-35 6,-57 1,-15 4,-26 0,-38 -3,-11 -10,-21 -18,-31 l -7,-9 11,-2 c 13,-2 24,-6 34,-12 10,-7 14,-17 23,-28 14,-18 22,-32 32,-49 7,-12 15,-25 27,-43 13,-21 33,-41 56,-55 20,-13 43,-21 68,-23 24,-1 49,3 72,11 12,4 23,10 33,16 -3,-11 -4,-23 -4,-35 0,-24 6,-49 15,-71 9,-23 25,-42 44,-57 22,-17 47,-29 71,-35 20,-5 36,-8 50,-10 19,-4 35,-7 56,-13 14,-5 25,-14 35,-21 9,-8 17,-17 23,-28 l 6,-10 5,10 c 7,11 14,20 24,28 9,7 21,16 35,21 21,6 37,9 55,13 14,2 30,5 51,10 24,6 49,18 71,35 18,15 34,34 43,57 10,22 15,47 16,71 0,12 -1,23 -4,33 10,-6 20,-11 32,-15 22,-8 48,-11 72,-10 25,2 48,10 69,23 23,14 42,34 56,55 12,18 20,31 27,43 10,17 18,31 31,49 9,11 13,22 23,28 10,6 22,10 34,13 l 11,2 -7,9 c -8,9 -14,19 -18,31 -4,11 0,22 0,37 1,22 4,38 7,57 2,14 4,30 7,51 2,24 0,52 -9,78 -7,23 -20,44 -38,61 -18,16 -40,30 -63,38 v 0 c -15,6 -30,9 -45,9 9,8 17,18 23,29 15,23 25,51 31,75 5,25 3,49 -4,72 -8,26 -23,50 -39,69 -14,15 -26,27 -36,37 -13,13 -25,25 -38,42 -9,12 -15,24 -18,35 -4,12 -5,24 -4,36 l 1,11 -10,-4 c -12,-6 -23,-9 -35,-10 -12,-1 -25,1 -39,5 -22,6 -36,13 -54,21 -13,5 -28,12 -47,19 -23,9 -51,14 -78,12 -24,-1 -47,-8 -68,-21 -21,-14 -40,-31 -54,-51 -7,-10 -12,-20 -16,-31 -4,11 -10,21 -17,31 -14,20 -33,37 -53,51 -21,13 -45,20 -69,21 -27,2 -54,-3 -77,-12 -20,-7 -35,-14 -48,-19 -17,-8 -32,-15 -53,-21 -14,-4 -27,-6 -39,-5 -12,1 -24,4 -35,10 l -10,4 1,-11 c 0,-12 -1,-24 -4,-36 -3,-11 -9,-23 -18,-35 -14,-17 -25,-29 -39,-42 -10,-10 -21,-22 -35,-37 -17,-19 -31,-43 -39,-69 -7,-23 -9,-47 -4,-72 5,-24 16,-52 30,-75 7,-11 15,-21 23,-29 z m 438,168 c 1,3 5,-10 6,-6 0,6 2,16 2,18 1,14 2,26 2,39 1,12 0,25 -1,42 -2,19 -3,39 -10,58 -7,19 -19,37 -41,55 -17,13 -35,19 -56,18 -20,0 -41,-6 -64,-17 -26,-11 -46,-16 -64,-21 -7,-3 -15,-5 -21,-7 -10,-3 -19,-4 -29,-3 -11,0 -22,3 -32,6 l -9,3 v -9 c 0,-11 -2,-22 -5,-32 -3,-9 -8,-18 -14,-26 -4,-6 -9,-12 -13,-18 -12,-15 -24,-32 -44,-52 -17,-17 -31,-35 -38,-54 -8,-18 -9,-38 -3,-58 9,-27 22,-45 37,-58 15,-13 33,-22 51,-30 15,-7 27,-12 39,-16 11,-5 23,-8 37,-12 8,-2 27,-5 36,-7 l -7,11 12,2 -3,1 c -9,1 -27,4 -35,6 -14,4 -25,7 -36,11 -11,4 -23,9 -37,16 -18,8 -34,16 -48,28 -14,12 -25,28 -33,52 -5,17 -4,33 2,49 7,17 19,33 36,50 20,21 33,38 44,53 5,6 9,12 13,18 8,9 13,19 16,30 3,9 5,18 6,27 9,-3 18,-4 27,-5 11,0 23,1 34,5 7,2 14,4 21,6 18,5 39,11 65,22 22,10 42,15 60,16 17,0 32,-4 46,-15 21,-16 31,-33 37,-50 7,-17 8,-35 10,-54 1,-17 1,-29 1,-41 0,-12 -1,-24 -2,-38 0,-1 -3,-20 -3,-22 0,-1 -1,-3 -1,-5 l 6,-1 z m 101,-10 c -1,3 4,2 3,6 -2,14 -4,28 -5,42 -1,17 -1,34 1,54 1,19 3,37 9,54 6,17 17,34 37,50 14,11 30,15 47,15 18,-1 38,-6 59,-16 27,-11 47,-17 66,-22 7,-2 13,-4 21,-6 11,-4 22,-5 33,-5 10,1 19,2 28,5 1,-9 2,-18 5,-27 4,-11 9,-21 16,-30 5,-6 9,-12 13,-18 12,-15 24,-32 45,-53 16,-17 28,-33 35,-50 7,-16 8,-32 3,-49 -8,-24 -19,-40 -33,-52 -14,-12 -31,-20 -48,-28 -15,-7 -26,-12 -38,-16 -11,-4 -22,-7 -36,-11 -7,-2 -36,-7 -45,-8 l -2,-1 c -1,-1 18,1 19,-4 0,-1 -2,-6 -3,-7 12,2 29,5 35,7 14,4 25,7 37,12 12,4 24,9 39,16 18,8 35,17 50,30 16,13 29,31 37,58 7,20 5,40 -2,58 -8,19 -21,37 -39,54 -20,20 -32,37 -43,52 -5,6 -9,12 -14,18 -6,8 -10,17 -13,26 -4,10 -5,21 -5,32 l -1,9 -8,-3 c -11,-3 -22,-6 -32,-6 -10,-1 -20,0 -29,3 -7,2 -14,4 -22,7 -18,5 -38,10 -64,21 -23,11 -44,17 -64,17 -20,1 -39,-5 -55,-18 -22,-18 -35,-36 -41,-55 -7,-19 -9,-39 -10,-58 -2,-21 -2,-38 -1,-56 0,-11 2,-23 4,-35 1,-6 7,-10 8,-17 z m 166,-526 c 2,-3 3,-6 4,-8 1,-2 -2,-3 -1,-5 3,-7 6,-13 10,-19 7,-13 13,-23 20,-33 7,-10 15,-20 26,-33 13,-15 25,-30 42,-42 17,-11 37,-19 66,-20 21,-1 39,5 55,17 16,12 30,30 42,51 15,24 28,41 40,55 4,6 9,12 13,18 6,8 14,14 22,20 9,6 19,10 30,13 l 9,3 -6,7 c -6,9 -11,19 -14,29 -3,10 -5,19 -4,29 0,8 0,15 0,23 0,19 1,39 5,67 4,25 4,47 0,66 -5,20 -15,37 -32,49 -23,17 -44,24 -64,26 -20,2 -39,-2 -59,-5 -16,-3 -29,-6 -41,-10 -11,-3 -23,-7 -36,-12 -9,-3 -17,-7 -25,-11 -2,-2 -5,-2 -6,-4 -2,-2 -6,-8 -10,-10 l 7,-3 c 5,2 4,-1 10,2 1,1 3,2 5,3 8,4 16,8 23,11 13,4 24,8 36,12 12,3 24,6 40,9 18,3 37,6 55,5 18,-2 37,-8 57,-23 14,-11 23,-25 27,-42 4,-17 4,-38 0,-61 -5,-29 -5,-50 -5,-69 0,-8 0,-15 -1,-22 0,-12 2,-23 5,-34 3,-8 7,-17 11,-25 -8,-3 -17,-7 -24,-12 -10,-6 -18,-14 -25,-23 -5,-6 -9,-12 -14,-17 -12,-15 -25,-32 -40,-57 -12,-20 -25,-36 -39,-47 -14,-10 -29,-16 -47,-15 -25,1 -44,8 -59,18 -15,11 -27,25 -39,39 -10,13 -18,23 -25,33 -7,10 -13,20 -20,32 -4,6 -8,15 -11,23 -2,3 -11,4 -12,6 z"
         id="path175"
         style="fill:#ffffff;fill-opacity:1" />
      <path
         class="fil2"
         d="m 3330,5000 c 9,-35 14,-61 10,-95 -28,8 -54,20 -83,40 l -4,-13 c 29,-19 58,-34 91,-42 l 8,-1 v 7 c 5,34 3,68 -9,103 z"
         id="path177"
         style="fill:#ffffff;fill-opacity:1" />
      <path
         class="fil2"
         d="m 3486,5648 c 36,-2 63,-5 94,-19 -16,-24 -36,-45 -64,-66 l 12,-8 c 27,21 49,44 67,74 l 4,6 -7,3 c -31,15 -64,23 -101,22 z"
         id="path179"
         style="fill:#ffffff;fill-opacity:1" />
      <path
         class="fil2"
         d="m 2918,5991 c 12,34 23,59 45,85 19,-22 36,-52 46,-85 l 12,9 c -8,25 -30,65 -53,90 l -5,6 -5,-6 c -23,-25 -40,-55 -51,-90 z"
         id="path181"
         style="fill:#ffffff;fill-opacity:1" />
      <path
         class="fil2"
         d="m 2417,5563 c -29,21 -50,38 -69,66 26,11 54,19 89,22 l -5,13 c -34,-4 -66,-12 -97,-27 l -6,-3 4,-6 c 18,-29 42,-54 73,-73 z"
         id="path183"
         style="fill:#ffffff;fill-opacity:1" />
      <path
         class="fil2"
         d="m 2670,4953 c -28,-22 -51,-37 -83,-47 -4,29 -2,59 5,93 l -13,-1 c -8,-34 -10,-67 -4,-101 l 1,-7 7,2 c 33,9 64,24 91,48 z"
         id="path185"
         style="fill:#ffffff;fill-opacity:1" />
      <path
         class="fil1"
         d="m 2964,5407 c 13,0 24,11 24,24 0,14 -11,25 -24,25 -14,0 -25,-11 -25,-25 0,-13 11,-24 25,-24 z m 0,-11 c 19,0 35,16 35,35 0,20 -16,35 -35,35 -20,0 -35,-15 -35,-35 0,-19 15,-35 35,-35 z"
         id="path187"
         style="fill:#ffffff;fill-opacity:1" />
      <path
         class="fil1"
         d="m 2964,5364 c 37,0 68,30 68,67 0,38 -31,68 -68,68 -38,0 -68,-30 -68,-68 0,-37 30,-67 68,-67 z m 0,-12 c 43,0 79,36 79,79 0,44 -36,79 -79,79 -44,0 -79,-35 -79,-79 0,-43 35,-79 79,-79 z"
         id="path189"
         style="fill:#ffffff;fill-opacity:1" />
      <path
         class="fil1"
         d="m 2964,5333 c 54,0 98,44 98,98 0,54 -44,98 -98,98 -54,0 -98,-44 -98,-98 0,-54 44,-98 98,-98 z m 0,-7 c 58,0 105,47 105,105 0,58 -47,106 -105,106 -58,0 -106,-48 -106,-106 0,-58 48,-105 106,-105 z"
         id="path191"
         style="fill:#ffffff;fill-opacity:1" />
      <path
         class="fil2"
         d="m 2778,5663 c -10,9 -19,18 -29,27 -22,20 -45,41 -61,66 -13,19 -19,41 -26,64 -2,8 -5,16 -7,24 7,-5 14,-9 21,-13 20,-12 40,-24 56,-41 20,-22 35,-48 50,-74 7,-12 13,-24 20,-35 -8,-6 -16,-12 -24,-18 z m -4,81 c -5,8 -8,16 -11,25 -1,6 -3,12 -3,18 13,-10 25,-22 35,-38 11,-16 21,-35 30,-55 -5,-3 -11,-6 -17,-10 -7,12 -13,23 -20,35 -5,8 -9,17 -14,25 z m 58,-47 c -4,7 -7,13 -10,19 -4,9 -6,17 -7,26 -2,7 -2,15 -3,22 7,-8 12,-16 17,-25 5,-11 10,-25 12,-37 -3,-2 -6,-3 -9,-5 z m -25,46 c -2,4 -4,7 -6,10 -12,18 -26,33 -43,44 l -6,3 v -6 c 1,-8 1,-15 3,-22 -5,8 -11,16 -18,23 -16,17 -37,30 -57,42 -15,9 -28,17 -42,28 8,-17 12,-29 17,-47 7,-23 14,-46 27,-66 5,-8 10,-15 16,-22 -6,3 -12,6 -18,7 l -6,2 2,-6 c 4,-15 13,-29 23,-43 0,1 -1,1 -1,1 -5,1 -11,2 -16,3 l -8,1 5,-7 c 5,-8 11,-15 17,-22 -3,1 -7,1 -10,2 l -8,1 5,-7 c 6,-9 12,-17 20,-25 -5,2 -11,3 -16,4 l -7,1 3,-6 c 4,-7 9,-13 14,-19 -5,1 -10,2 -15,2 h -6 l 3,-5 c 3,-6 7,-11 11,-16 -3,1 -6,1 -10,1 h -6 l 3,-5 c 3,-6 7,-11 12,-16 -5,1 -10,1 -15,1 l -5,-1 2,-4 c 2,-6 6,-11 10,-15 0,0 0,0 0,0 -4,0 -8,0 -12,-1 h -5 l 2,-5 c 3,-4 5,-8 9,-11 -4,0 -8,-2 -12,-4 l -4,-1 2,-4 c 3,-4 6,-7 9,-10 -4,0 -9,-2 -13,-4 l -5,-2 3,-3 c 3,-3 5,-5 8,-7 -4,-1 -8,-2 -12,-4 l -5,-2 3,-3 c 3,-3 6,-6 10,-8 -4,-1 -9,-2 -13,-3 l -6,-2 5,-4 c 4,-4 8,-7 13,-9 l 1,-1 c -1,0 -2,0 -2,0 -6,-1 -12,-2 -18,-4 l -7,-3 6,-4 c 4,-3 9,-5 14,-7 0,0 -1,-1 -2,-1 -7,-1 -14,-3 -22,-6 l -7,-3 7,-3 c 5,-3 11,-5 16,-7 -9,-2 -18,-4 -27,-8 l -6,-2 5,-4 c 3,-2 7,-4 10,-5 -8,-2 -16,-5 -24,-9 l -7,-3 8,-3 c 5,-2 10,-4 16,-5 -10,-1 -21,-4 -32,-9 l -6,-3 6,-3 c 2,-2 6,-4 10,-5 -17,-5 -31,-12 -44,-22 l -5,-4 6,-2 c 7,-2 14,-4 21,-5 -9,-2 -18,-5 -27,-9 -22,-9 -41,-24 -60,-39 -13,-10 -24,-19 -39,-28 17,1 32,0 49,-1 24,-2 48,-4 71,1 9,3 17,5 26,8 -5,-4 -9,-9 -13,-14 l -4,-5 6,-1 c 19,-1 38,3 57,10 v -1 c -4,-4 -7,-9 -9,-13 l -3,-7 7,2 c 12,2 23,6 33,10 v 0 c -4,-5 -7,-10 -9,-16 l -3,-7 7,3 c 12,4 23,9 34,15 -5,-6 -9,-13 -12,-20 l -3,-7 7,2 c 7,2 14,5 21,9 -3,-4 -5,-8 -7,-13 l -2,-6 6,2 c 7,1 14,4 20,7 -2,-4 -4,-8 -5,-13 l -2,-6 6,2 c 5,1 9,3 13,5 -1,-3 -2,-6 -3,-10 l -2,-5 6,1 c 5,1 9,3 13,5 -2,-4 -3,-7 -4,-11 l -1,-6 5,1 c 6,2 11,4 15,7 -1,-5 -2,-9 -2,-15 v -7 l 6,4 c 2,2 3,3 5,5 -1,-4 -1,-8 0,-12 l 1,-4 4,1 c 3,1 6,3 8,4 0,-2 0,-4 0,-7 v -5 l 4,2 c 4,1 7,3 10,5 -1,-3 -1,-8 -1,-12 v -6 l 5,3 c 3,1 5,3 7,4 -1,-4 -1,-8 0,-13 v -5 l 5,3 c 4,2 7,5 10,8 -1,-6 -1,-11 -2,-17 v -7 l 6,4 c 4,3 8,6 11,10 -2,-7 -3,-14 -2,-21 v -6 l 5,3 c 6,3 11,8 16,13 v 0 c -2,-11 -3,-22 -2,-33 v -7 l 6,4 c 5,4 9,9 13,14 -1,-5 0,-10 0,-15 0,-10 2,-20 5,-30 l 1,-5 5,4 c 4,4 8,10 12,17 -2,-21 0,-40 7,-58 l 2,-6 4,5 c 4,5 7,11 10,16 0,-9 0,-17 0,-26 2,-24 11,-47 20,-69 6,-14 10,-28 16,-42 5,14 10,28 15,42 9,22 17,45 19,69 1,9 1,19 1,28 3,-6 6,-12 11,-18 l 4,-5 2,6 c 6,16 8,33 8,51 2,-4 5,-8 8,-11 l 4,-4 1,7 c 2,9 3,20 3,30 0,3 0,7 0,11 3,-7 8,-13 13,-18 l 6,-5 v 8 c 0,9 0,18 -1,27 2,-4 5,-8 9,-12 l 6,-5 v 8 c 1,9 1,18 -1,28 0,1 0,3 -1,5 4,-5 9,-11 14,-16 l 6,-6 v 8 c 1,6 0,11 -1,17 3,-3 6,-6 9,-8 l 6,-5 v 8 c 0,6 -1,13 -2,19 4,-4 8,-7 12,-10 l 5,-2 1,5 c 0,5 -1,10 -2,15 3,-2 6,-4 9,-6 l 5,-2 v 5 c 0,5 0,9 -1,13 3,-2 6,-4 9,-6 l 5,-2 v 5 c 1,6 0,12 -1,18 0,-1 1,-1 2,-2 3,-2 7,-5 11,-6 l 6,-2 -1,5 c 0,5 -2,10 -4,15 1,0 1,-1 2,-1 4,-3 8,-5 13,-7 l 6,-2 -1,6 c 0,4 -1,7 -3,10 4,-2 8,-3 12,-4 l 5,-1 -1,5 c -1,4 -2,7 -3,10 4,-2 9,-4 14,-5 h 5 l -1,5 c -1,4 -2,8 -4,12 6,-4 11,-7 17,-9 l 6,-2 -1,6 c -2,6 -4,11 -6,15 8,-4 16,-8 23,-9 l 6,-2 -2,6 c -2,7 -5,12 -10,18 10,-5 19,-9 29,-12 l 8,-2 -4,7 c -2,6 -5,11 -9,16 2,-2 5,-3 7,-4 8,-3 17,-6 25,-8 l 6,-1 -1,5 c -2,6 -4,11 -8,15 v 0 c 18,-6 35,-9 53,-8 h 6 l -4,6 c -3,5 -8,10 -12,14 8,-3 17,-6 25,-8 24,-5 48,-3 72,-1 15,1 29,1 44,2 -11,9 -24,18 -35,27 -19,15 -38,30 -60,39 -9,4 -18,7 -27,9 7,1 14,3 21,5 l 6,2 -5,4 c -15,12 -33,19 -53,24 2,1 4,1 5,2 v 0 c 7,1 12,3 17,5 l 7,3 -8,3 c -12,5 -25,8 -38,10 9,2 16,4 23,8 l 6,4 -7,2 c -11,4 -21,6 -30,7 6,2 12,4 17,8 l 6,5 -7,2 c -9,2 -17,3 -26,4 6,2 11,5 16,8 l 6,5 -8,1 c -6,2 -13,3 -20,3 6,3 10,6 14,11 l 3,4 -5,2 c -4,1 -9,1 -14,2 4,2 6,5 8,8 l 1,3 -3,1 c -4,2 -8,3 -12,3 4,2 7,5 10,9 l 2,4 -4,2 c -4,1 -9,2 -15,2 4,3 7,6 9,9 l 2,4 -4,1 c -4,2 -9,3 -14,3 h 1 c 4,4 9,7 12,12 l 2,4 -5,1 c -5,2 -11,2 -16,2 4,3 7,7 9,11 l 2,4 -4,1 c -4,1 -7,1 -10,1 3,2 5,4 7,7 l 3,4 -5,2 c -5,1 -10,1 -15,1 h 1 c 4,4 8,9 11,14 l 3,5 h -6 c -4,1 -8,1 -12,1 5,3 10,7 14,12 l 4,6 h -7 c -5,-1 -10,-1 -15,-2 6,5 11,10 15,17 l 3,5 h -6 c -6,0 -12,-1 -18,-3 7,7 14,15 20,24 l 4,6 -8,-1 c -6,-1 -12,-3 -18,-5 2,3 4,6 6,8 8,10 14,20 21,29 -13,-2 -23,-5 -35,-10 14,16 28,37 39,56 -10,-2 -16,-5 -25,-10 7,8 13,15 18,24 14,20 20,43 27,66 5,17 9,31 17,47 -14,-11 -26,-19 -42,-28 -20,-12 -41,-25 -57,-42 -6,-7 -12,-15 -18,-23 2,7 3,14 3,22 v 6 l -6,-3 c -17,-10 -30,-25 -42,-43 0,1 0,2 0,3 0,6 -1,12 -2,17 l -2,7 -5,-6 c -8,-11 -16,-23 -23,-36 0,0 -1,-1 -1,-1 2,12 2,24 -1,36 -9,-8 -14,-18 -20,-29 1,6 0,13 -1,18 l -2,8 -5,-6 c -5,-8 -10,-16 -13,-24 -1,5 -3,11 -5,16 l -2,6 -4,-5 c -4,-6 -8,-12 -10,-20 -1,6 -3,11 -5,17 l -3,5 -3,-5 c -3,-4 -6,-8 -8,-12 -1,4 -2,7 -4,11 l -3,5 -3,-5 c -2,-3 -4,-7 -5,-10 -1,3 -2,6 -4,9 l -3,4 -3,-4 c -2,-2 -4,-5 -6,-9 -1,4 -3,8 -5,12 l -3,4 -3,-4 c -2,-3 -4,-7 -6,-12 -1,-2 -2,-3 -2,-5 0,0 0,0 -1,1 -1,5 -4,9 -7,13 l -3,3 -2,-4 c -3,-3 -5,-7 -7,-12 v 1 c -2,5 -5,10 -8,14 l -3,6 -3,-6 c -1,-4 -3,-8 -3,-13 -3,4 -5,8 -9,12 l -4,4 -2,-5 c -1,-4 -2,-7 -2,-11 h -1 c -3,7 -6,12 -11,15 l -4,3 -2,-5 c -1,-4 -2,-8 -2,-13 -3,7 -7,14 -12,19 l -5,5 -1,-7 c -1,-6 -1,-12 -1,-18 -1,1 -1,2 -2,3 -4,9 -9,16 -15,20 l -6,5 v -7 c 0,-5 0,-9 1,-14 -6,11 -10,18 -18,26 -1,-7 -2,-13 -2,-20 -5,7 -11,14 -18,21 l -6,5 v -8 c 0,-9 1,-19 2,-29 z m 41,-38 c -3,12 -7,23 -11,33 -1,5 -1,10 -1,14 0,1 0,3 0,4 3,-5 7,-12 10,-18 4,-9 8,-18 11,-28 l 1,-1 c -4,-2 -7,-3 -10,-4 z m 272,34 c -8,-13 -15,-27 -23,-43 -3,2 -6,4 -9,5 4,12 9,24 15,35 5,10 12,20 18,29 1,-3 1,-5 1,-8 0,-5 -1,-11 -2,-18 z m -16,-46 c 9,20 19,40 30,56 11,16 22,28 35,38 0,-6 -1,-12 -3,-18 -3,-9 -6,-17 -11,-25 h 1 c -5,-8 -10,-17 -15,-25 -7,-12 -13,-24 -21,-35 -5,3 -11,6 -16,9 z m -240,18 v 1 c -3,9 -5,17 -7,25 -1,6 -1,11 -2,16 3,-3 6,-7 8,-12 3,-7 7,-16 10,-27 -3,-1 -6,-2 -9,-3 z m 16,5 c -1,7 -2,13 -2,19 -1,5 0,10 0,15 5,-8 8,-19 12,-30 0,-1 0,-1 0,-1 -3,-1 -7,-2 -10,-3 z m 17,5 c -1,5 -1,10 -1,14 0,4 1,8 2,12 2,-2 3,-5 5,-8 2,-4 4,-10 5,-16 -3,-1 -7,-2 -11,-2 z m 19,3 c 0,5 0,9 0,12 0,3 1,6 1,8 2,-2 3,-5 5,-8 1,-3 2,-7 3,-10 -3,-1 -6,-1 -9,-2 z m 17,3 c -1,4 0,8 0,11 0,3 1,5 1,7 2,-2 3,-5 4,-7 1,-3 2,-7 4,-11 -3,0 -6,0 -9,0 z m 17,1 c 0,3 0,6 1,9 1,3 1,5 3,7 1,-2 2,-4 3,-7 1,-3 2,-6 2,-9 -3,0 -6,0 -9,0 z m 18,0 c 1,5 3,10 4,13 1,2 2,4 3,6 2,-6 3,-12 4,-19 -4,0 -7,0 -11,0 z m 19,-1 c 0,5 1,9 2,12 0,2 1,3 2,5 1,-3 2,-5 3,-8 0,-3 1,-6 1,-9 -3,0 -6,0 -8,0 z m 15,-1 c 1,4 1,8 3,12 0,2 1,4 2,6 1,-3 1,-5 2,-8 1,-3 2,-7 2,-11 0,0 0,0 0,-1 -3,1 -6,1 -9,2 z m 16,-3 c 0,1 0,2 0,2 0,4 1,8 2,12 1,3 2,6 4,9 1,-4 2,-8 3,-12 1,-4 1,-8 2,-13 -4,1 -7,2 -11,2 z m 18,-4 c 1,6 2,12 4,17 1,4 3,8 5,12 1,-5 2,-10 2,-15 1,-5 0,-11 0,-16 v -1 c -4,1 -7,2 -11,3 z m 18,-5 c 0,1 0,2 0,2 1,8 3,15 6,21 2,6 5,11 8,16 1,-5 1,-11 0,-16 0,-8 -2,-16 -3,-24 -1,-1 -1,-2 -1,-2 -3,1 -7,2 -10,3 z m 17,-6 c 0,1 0,2 0,3 3,10 6,19 9,27 3,7 6,13 10,19 0,-8 -1,-16 -2,-24 -1,-10 -4,-19 -7,-29 -3,1 -7,3 -10,4 z m 144,5 c 5,2 9,4 13,6 3,2 6,4 9,5 -12,-18 -24,-35 -39,-50 -11,-7 -23,-15 -33,-24 -3,2 -6,5 -9,7 9,10 19,19 29,28 10,9 20,18 30,28 z m -89,-33 c 8,11 14,23 21,36 15,26 30,52 50,74 16,17 36,29 56,41 7,4 14,8 21,13 -2,-8 -4,-16 -7,-24 -6,-23 -13,-45 -26,-64 -16,-25 -38,-46 -61,-66 -10,-9 -20,-18 -29,-28 -8,6 -16,12 -25,18 z m 44,-35 c 10,9 22,17 34,23 9,5 19,10 29,13 -3,-5 -6,-9 -9,-13 -5,-7 -11,-13 -16,-18 l -1,-1 c -9,-4 -18,-9 -27,-15 -2,3 -4,5 -6,7 -2,1 -3,3 -4,4 z m 15,-16 c 8,5 17,10 25,14 8,3 15,6 23,8 -4,-6 -9,-11 -15,-16 -7,-7 -14,-13 -23,-18 -3,4 -6,8 -10,12 z m 15,-18 c 6,4 12,8 19,11 5,2 11,4 16,4 -3,-4 -7,-8 -12,-11 -5,-4 -11,-8 -17,-12 -2,3 -4,6 -6,8 z m 10,-14 c 5,3 10,5 16,6 3,2 7,2 11,3 -2,-2 -5,-4 -8,-6 -5,-3 -10,-6 -15,-8 -2,2 -3,3 -4,5 z m 8,-12 c 4,1 7,2 11,3 4,0 8,1 12,1 -2,-3 -5,-5 -7,-8 -3,-2 -6,-5 -10,-7 -2,3 -4,7 -6,11 z m 10,-19 c 3,1 6,2 9,3 3,0 6,0 8,0 -1,-2 -3,-3 -5,-4 -3,-2 -6,-3 -9,-5 -1,2 -2,4 -3,6 z m 7,-13 c 3,1 5,1 8,1 3,1 6,1 8,1 -1,-2 -3,-3 -5,-5 -2,-2 -5,-3 -8,-5 -1,3 -2,5 -3,8 z m 6,-16 c 3,0 6,1 9,1 4,0 7,0 10,-1 -2,-2 -4,-3 -6,-5 -3,-2 -6,-3 -9,-5 -1,3 -3,7 -4,10 z m 6,-18 c 4,0 7,0 9,0 3,0 5,0 8,-1 -2,-1 -3,-3 -5,-4 -3,-1 -6,-3 -9,-4 -1,3 -2,6 -3,9 z m 5,-17 c 4,0 8,1 11,0 3,0 6,0 9,-1 -2,-1 -5,-3 -7,-4 -3,-2 -7,-3 -11,-5 0,3 -1,7 -2,10 z m 4,-18 c 4,1 7,1 11,1 3,0 6,0 8,-1 -1,-1 -3,-2 -5,-3 -4,-2 -8,-4 -13,-5 0,3 -1,6 -1,8 z m 2,-16 c 5,1 10,1 14,2 4,0 8,0 11,-1 -3,-2 -6,-4 -10,-6 -4,-1 -9,-3 -14,-4 0,3 0,6 -1,9 z m 2,-17 c 5,0 11,1 16,0 5,0 9,0 13,-1 -4,-1 -7,-3 -11,-4 -6,-2 -12,-3 -18,-4 0,3 0,6 0,9 z m 1,-16 c 7,0 14,0 21,-1 6,-1 12,-1 18,-2 -11,-6 -25,-7 -40,-7 1,2 1,4 1,6 0,1 0,2 0,4 z m -1,-18 h 2 c 16,0 31,-1 51,-6 -6,-2 -13,-3 -20,-4 -11,-1 -22,-1 -33,-1 0,4 0,8 0,11 z m -1,-18 c 3,0 5,-1 8,-1 v 0 c 21,-2 43,-4 63,-10 -2,0 -4,-1 -6,-1 v 0 c -6,-2 -13,-4 -21,-5 -15,3 -30,4 -46,6 1,4 1,7 2,11 z m -3,-18 c 21,-2 41,-5 60,-9 17,-4 33,-10 47,-19 -6,-2 -12,-3 -19,-3 -8,-1 -17,-1 -26,1 v -1 c -10,2 -19,4 -29,5 -12,2 -24,4 -37,7 2,6 3,12 4,19 z m -17,-62 c 11,-5 22,-11 34,-17 8,-4 17,-9 26,-13 8,-4 15,-9 22,-14 5,-4 9,-8 13,-13 -16,0 -33,4 -50,11 -17,7 -35,16 -54,27 3,6 6,12 9,19 z m 12,36 c 12,-3 25,-5 37,-7 30,-5 60,-9 87,-20 22,-9 40,-24 58,-38 7,-6 13,-11 20,-16 -8,0 -17,-1 -25,-1 -23,-2 -47,-4 -69,1 -29,7 -56,21 -83,34 -12,6 -23,12 -35,17 4,10 7,20 10,30 z m -24,-62 c 15,-8 31,-17 46,-23 4,-3 8,-7 11,-11 1,-2 2,-4 4,-7 -7,2 -13,4 -18,7 -8,3 -16,7 -23,12 -7,7 -14,13 -22,19 1,1 1,2 2,3 z m -200,-152 c 1,-8 3,-15 5,-23 v 0 c 0,-10 1,-19 1,-29 0,-7 -1,-14 -1,-21 -1,1 -2,2 -3,4 -2,4 -5,9 -7,14 -2,17 -5,35 -9,53 5,0 9,1 14,2 z m 194,143 c 8,-6 16,-13 23,-20 5,-6 11,-12 15,-19 -7,2 -14,5 -21,9 -8,5 -17,10 -25,17 3,4 6,8 8,13 z m -12,-20 2,-1 c 10,-9 20,-19 26,-29 -5,1 -10,4 -15,6 -7,4 -14,9 -20,14 2,4 5,7 7,10 z m -12,-16 c 8,-6 15,-14 18,-23 -3,2 -7,4 -11,6 -4,3 -9,7 -12,10 2,2 4,5 5,7 z m -10,-13 c 2,-3 5,-6 7,-9 v 0 c 2,-3 3,-7 5,-10 -4,1 -7,2 -10,4 -3,2 -6,5 -10,7 3,3 5,6 8,8 z m -13,-13 c 3,-3 5,-6 6,-8 1,-3 3,-5 3,-7 -2,1 -4,2 -7,3 -2,2 -5,4 -7,7 1,1 3,3 5,4 0,1 0,1 0,1 z m -11,-11 c 3,-4 6,-8 7,-13 -2,1 -4,2 -6,3 -2,2 -5,3 -7,5 2,2 4,4 6,5 z m -13,-11 c 2,-4 4,-9 5,-13 -2,1 -3,2 -4,3 -3,2 -5,4 -7,5 2,2 4,4 6,5 z m -14,-10 c 2,-5 3,-11 3,-16 -1,2 -3,3 -5,5 -2,2 -4,3 -5,6 2,1 5,3 7,5 z m -14,-10 c 1,-2 2,-5 3,-8 0,-2 1,-5 1,-7 -2,1 -4,3 -5,5 -2,2 -4,4 -5,6 2,2 4,3 6,4 z m -13,-8 c 2,-5 4,-12 4,-19 -2,2 -4,4 -6,6 -3,2 -5,5 -7,8 3,2 6,4 9,5 z m -17,-8 c 2,-4 3,-8 4,-12 0,-3 1,-7 1,-11 -2,3 -4,5 -6,7 -2,4 -5,8 -7,12 3,1 6,2 8,4 z m -15,-7 c 3,-8 6,-16 7,-25 -3,3 -5,6 -7,9 -3,4 -6,8 -8,13 2,1 5,2 8,3 z m -16,-6 c 2,-7 3,-14 4,-21 1,-6 2,-12 2,-18 -5,5 -8,11 -10,16 -2,5 -3,9 -4,13 -1,2 -1,4 -2,7 4,1 7,2 10,3 z m -17,-5 c 1,-2 1,-5 2,-7 2,-7 3,-15 4,-23 1,-7 2,-15 2,-22 -4,5 -8,12 -11,19 -3,9 -6,19 -7,30 3,1 7,2 10,3 z m -38,-9 c 5,-21 9,-42 10,-61 1,-18 0,-36 -4,-51 -4,5 -7,10 -9,16 -3,8 -5,17 -7,26 v 0 c -1,10 -3,19 -4,28 -2,14 -4,27 -5,40 6,1 13,2 19,2 z m -64,-2 c -1,-13 -3,-26 -6,-39 -1,-10 -3,-19 -4,-29 v 0 c -2,-9 -4,-18 -7,-26 -2,-6 -5,-11 -9,-16 -4,15 -5,33 -4,51 1,19 5,40 10,61 7,-1 13,-1 20,-2 z m 38,0 c 1,-14 3,-27 5,-41 4,-29 9,-59 6,-89 -1,-23 -10,-45 -18,-67 -4,-7 -7,-15 -9,-23 -3,8 -6,16 -9,23 -9,22 -18,44 -19,67 -3,30 2,60 7,89 3,14 5,27 6,41 5,0 10,-1 15,-1 5,0 10,1 16,1 z m -70,-23 c -3,-11 -6,-21 -9,-30 -3,-6 -6,-11 -9,-15 -2,7 -3,14 -3,21 -1,9 0,19 0,28 4,8 7,17 9,26 6,-2 11,-3 17,-4 -2,-9 -4,-18 -5,-26 z m -19,31 c -2,-8 -5,-17 -8,-24 -4,-7 -8,-14 -13,-19 0,8 0,16 2,24 2,8 4,15 8,23 3,-2 7,-3 11,-4 z m -18,6 c -4,-6 -7,-11 -11,-16 -3,-4 -7,-8 -11,-11 0,5 1,10 2,15 2,6 4,11 7,16 4,-1 8,-3 13,-4 z m -21,7 v 0 c -5,-7 -9,-13 -15,-19 0,3 1,7 2,10 1,4 2,9 4,13 3,-1 6,-3 9,-4 z m -16,7 c -2,-3 -4,-6 -7,-9 -2,-2 -4,-5 -7,-7 0,4 1,7 2,10 1,4 2,7 4,10 3,-1 5,-2 8,-4 z m -14,8 c -3,-5 -6,-9 -11,-12 1,2 1,5 2,7 1,3 2,5 3,8 2,-1 4,-2 6,-3 z m -13,7 c -4,-4 -7,-8 -11,-10 1,5 3,10 6,13 1,-1 3,-2 5,-3 z m -12,8 c -4,-5 -7,-10 -12,-13 0,3 0,5 1,8 1,3 3,6 5,9 2,-2 4,-3 6,-4 z m -12,8 c -2,-1 -4,-3 -7,-5 -1,-1 -2,-2 -3,-3 0,2 1,4 1,6 1,2 2,5 3,7 2,-1 4,-3 6,-5 z m -13,11 c -2,-2 -4,-4 -7,-6 -2,-1 -4,-2 -6,-4 1,3 2,5 3,7 1,3 3,5 5,7 1,-1 3,-3 5,-4 z m -11,10 c -3,-2 -5,-4 -8,-6 -2,-1 -5,-2 -7,-3 1,3 2,5 4,7 1,3 3,5 4,8 2,-2 4,-4 7,-6 z m -12,11 c -3,-2 -6,-5 -10,-7 -2,-2 -5,-3 -7,-4 1,3 3,6 5,9 2,3 4,6 6,8 2,-2 4,-4 6,-6 z m -11,12 c -4,-3 -8,-6 -12,-8 -4,-2 -8,-4 -12,-5 2,3 4,6 7,9 3,4 7,8 11,12 2,-3 4,-5 6,-8 z m -11,14 c -6,-4 -12,-8 -18,-12 -4,-3 -9,-5 -13,-7 3,5 6,10 10,14 4,5 9,10 14,14 3,-3 5,-6 7,-9 z m -11,16 -1,-1 c -15,-9 -30,-17 -45,-24 1,2 3,5 4,7 4,4 8,9 13,13 8,4 16,9 23,14 2,-3 4,-6 6,-9 z m -9,15 c -11,-7 -21,-13 -33,-18 -10,-5 -20,-9 -32,-12 2,1 3,3 4,5 3,4 7,8 11,12 14,6 29,14 44,23 2,-4 4,-7 6,-10 z m -9,16 c -19,-11 -38,-21 -56,-28 -17,-7 -34,-11 -50,-11 4,5 8,9 13,13 7,5 14,10 23,14 8,5 17,9 25,13 12,6 24,12 36,18 3,-7 6,-13 9,-19 z m -89,50 c -10,-1 -19,-2 -27,-1 -6,0 -13,1 -19,3 14,9 30,15 48,19 19,5 39,7 61,9 1,-6 2,-13 4,-19 -13,-3 -26,-5 -39,-7 -10,-1 -19,-3 -28,-4 z m 61,37 c -20,-2 -39,-4 -57,-8 -4,0 -8,1 -12,2 -1,0 -2,1 -4,1 21,8 38,8 56,8 6,0 11,0 17,1 0,-1 0,-3 0,-4 z m 17,-62 c -13,-5 -25,-11 -37,-18 -27,-13 -54,-27 -83,-34 -22,-5 -45,-3 -69,-1 -8,0 -17,1 -25,1 7,5 13,11 20,16 18,14 36,29 58,38 27,11 57,16 87,20 13,2 26,5 39,7 3,-10 6,-19 10,-29 z m -20,91 c -8,1 -16,1 -24,1 -4,1 -8,2 -12,3 -2,1 -3,2 -5,2 7,3 13,4 20,5 7,1 14,2 21,2 0,-4 0,-9 0,-13 z m 2,-18 c -10,0 -21,0 -31,1 -8,1 -16,3 -24,5 8,3 17,5 25,5 9,1 19,1 29,0 0,-4 1,-7 1,-11 z m 54,308 c 7,-7 14,-14 21,-20 10,-9 19,-18 28,-27 -5,-4 -10,-9 -15,-14 -16,14 -32,27 -44,41 -13,14 -22,28 -28,43 6,-2 11,-4 17,-8 7,-4 14,-9 21,-15 z m 29,-66 c -3,-3 -6,-6 -8,-8 -11,9 -21,18 -31,28 -8,8 -16,17 -24,27 3,-1 5,-1 7,-2 5,-1 10,-3 14,-7 13,-13 27,-25 42,-38 z m -13,-14 c -2,-2 -3,-4 -5,-6 -2,2 -4,3 -6,5 -7,5 -13,10 -18,16 -6,6 -12,13 -17,19 2,0 3,0 5,-1 4,-1 7,-3 11,-5 9,-10 19,-18 30,-28 z m -9,-11 c -3,-3 -5,-6 -7,-9 -6,4 -12,9 -18,14 -4,4 -8,8 -11,13 5,-1 11,-3 16,-6 5,-2 9,-5 13,-8 2,-1 4,-3 7,-4 z m -11,-15 c -3,-3 -5,-7 -7,-10 0,1 -1,1 -2,2 -5,3 -9,6 -12,10 -4,3 -7,7 -10,11 5,-1 10,-3 14,-4 6,-3 11,-6 17,-9 z m -10,-16 c -2,-2 -3,-5 -4,-7 -5,2 -8,5 -11,8 -3,2 -5,5 -7,7 3,0 6,-1 9,-2 4,-1 7,-2 10,-4 1,-1 2,-1 3,-2 z m -8,-14 c -2,-4 -4,-8 -6,-12 -4,2 -7,5 -9,7 -3,3 -5,5 -6,8 3,0 7,0 11,-1 3,0 6,-1 10,-2 z m -9,-19 c -2,-3 -3,-6 -4,-9 -3,2 -5,4 -8,6 -1,1 -3,3 -4,5 2,0 5,0 7,-1 3,0 6,0 9,-1 z m -7,-16 c -1,-3 -2,-7 -3,-10 -2,1 -4,2 -6,4 -2,2 -4,4 -6,6 2,1 5,1 8,1 2,0 5,0 7,-1 z m -6,-18 c -1,-3 -2,-6 -2,-9 -3,1 -5,2 -7,3 -2,2 -4,3 -6,5 3,1 6,1 8,1 3,1 5,1 7,0 z m -4,-17 c -1,-3 -2,-6 -2,-9 -3,1 -6,3 -8,4 -2,2 -4,3 -6,5 2,1 5,1 7,1 3,0 6,0 9,-1 z m -4,-17 c 0,-3 -1,-5 -1,-8 -3,1 -6,2 -9,4 -2,1 -4,2 -6,4 2,0 5,1 7,1 3,0 6,0 9,-1 z m -2,-17 c -1,-3 -1,-7 -1,-10 -4,1 -8,2 -11,4 -3,1 -6,2 -8,3 3,1 6,1 9,2 3,1 7,1 11,1 z m -2,-18 c 0,-4 0,-8 0,-11 -5,0 -11,1 -16,2 -4,1 -8,3 -12,4 4,2 8,3 12,3 6,1 11,2 16,2 z m 500,-219 c -52,-51 -124,-84 -203,-84 -79,0 -151,33 -203,84 -52,52 -84,124 -84,203 0,80 32,151 84,203 52,52 124,84 203,84 79,0 151,-32 203,-84 51,-52 84,-123 84,-203 0,-79 -33,-151 -84,-203 z"
         id="path193"
         style="fill:#ffffff;fill-opacity:1" />
      <path
         class="fil1"
         d="m 2964,5206 c 124,0 225,101 225,225 0,124 -101,226 -225,226 -124,0 -226,-102 -226,-226 0,-124 102,-225 226,-225 z m 0,98 c 70,0 127,57 127,127 0,70 -57,128 -127,128 -70,0 -127,-58 -127,-128 0,-70 57,-127 127,-127 z m 10,-75 4,-3 3,-2 5,-1 4,-1 h 5 5 6 l 5,1 6,1 6,2 5,2 6,2 5,3 5,3 5,3 5,3 4,3 4,4 4,3 3,4 2,4 2,3 1,4 v 3 4 l -2,3 -2,3 -27,37 -2,-1 -2,-2 -2,-1 -5,-3 -6,-3 -6,-3 c -3,-1 -6,-3 -9,-4 -3,-1 -6,-2 -9,-3 -3,-1 -6,-2 -9,-2 l -6,-2 c -3,0 -6,-1 -8,-1 h -5 -2 -2 -2 -1 l -1,-42 v -6 l 1,-5 2,-4 3,-3 z m 117,45 h 4 5 l 4,2 4,2 4,2 4,3 5,4 4,4 3,4 4,5 3,5 4,5 3,5 2,5 2,6 2,5 2,5 1,5 v 5 l 1,5 -1,4 v 4 l -2,4 -1,3 -3,2 -3,2 -3,2 -44,14 -1,-2 v -3 l -3,-5 -2,-6 -3,-6 -3,-5 c -2,-3 -4,-6 -6,-9 -2,-2 -4,-5 -6,-8 -2,-2 -3,-4 -5,-7 l -4,-4 -4,-4 c -3,-2 -6,-5 -10,-7 l 24,-34 4,-5 4,-3 3,-2 4,-2 z m 69,105 3,2 3,3 3,4 2,4 2,4 1,5 2,6 v 5 l 1,6 v 6 6 6 l -1,6 -1,6 -1,5 -2,6 -2,5 -2,5 -2,4 -3,4 -3,3 -3,3 -3,2 -3,1 -3,1 h -4 l -4,-1 -43,-14 v -2 l 1,-3 1,-3 1,-6 1,-6 1,-6 c 1,-4 1,-7 1,-10 0,-4 0,-7 0,-10 0,-3 0,-6 0,-10 l -1,-5 -1,-6 c 0,-5 -1,-10 -4,-14 l 40,-14 5,-1 h 5 5 l 4,1 z m -7,125 1,4 1,4 v 4 l -1,5 -1,5 -1,5 -2,5 -3,5 -3,5 -3,5 -4,4 -4,5 -4,4 -4,5 -4,3 -5,4 -4,3 -5,3 -4,2 -5,1 -4,1 -4,1 h -4 l -3,-1 -3,-2 -3,-2 -3,-3 -27,-37 2,-1 3,-2 4,-3 5,-5 4,-4 c 2,-3 5,-5 7,-8 2,-2 4,-5 6,-7 2,-3 3,-6 5,-8 2,-3 3,-5 5,-8 l 3,-5 c 2,-4 4,-9 4,-14 l 41,12 5,3 4,2 4,3 2,3 z m -79,97 -1,4 -2,4 -3,4 -3,3 -3,3 -5,3 -4,3 -5,3 -6,2 -5,2 -6,2 -6,1 -6,1 -5,1 -6,1 h -6 -5 l -6,-1 -5,-1 -4,-1 -4,-2 -3,-2 -3,-2 -3,-3 -1,-3 -1,-3 -1,-4 v -46 h 3 2 6 l 6,-1 7,-1 c 3,-1 6,-1 9,-2 4,-1 7,-2 10,-3 3,-1 6,-2 9,-3 3,-1 6,-2 8,-3 l 5,-3 c 5,-2 9,-5 12,-8 l 26,33 3,5 2,5 1,4 v 4 z m -121,33 -3,2 -4,2 -4,2 h -5 l -5,1 h -5 l -5,-1 h -6 l -5,-2 -6,-1 -6,-2 -5,-3 -6,-2 -5,-3 -5,-3 -5,-3 -4,-4 -4,-3 -3,-4 -3,-3 -2,-4 -2,-4 -1,-3 v -4 -3 l 1,-3 2,-4 27,-37 2,2 2,1 3,2 5,3 5,3 6,3 6,2 c 3,1 7,2 10,4 3,1 6,1 9,2 l 6,2 c 3,0 5,1 8,1 5,1 10,2 15,1 l 1,42 -1,5 -1,5 -2,4 -2,4 z m -117,-45 h -4 l -4,-1 -4,-1 -5,-2 -4,-3 -4,-3 -4,-3 -4,-4 -4,-4 -3,-5 -4,-5 -3,-5 -3,-5 -3,-6 -2,-5 -2,-5 -1,-6 -1,-5 -1,-5 v -4 -5 l 1,-4 1,-3 2,-3 2,-3 3,-2 4,-1 43,-14 1,2 1,3 2,5 3,6 3,5 3,6 c 2,3 4,6 5,8 2,3 4,6 6,8 l 4,5 c 2,2 4,4 6,7 l 4,3 3,3 2,2 2,1 1,1 h 1 l -24,35 -3,4 -4,3 -4,3 -4,1 z m -68,-105 -3,-3 -3,-3 -3,-3 -2,-4 -2,-5 -2,-5 -1,-5 -1,-5 v -6 l -1,-6 v -6 l 1,-6 1,-6 1,-6 1,-6 2,-5 1,-5 3,-5 2,-4 3,-4 2,-4 3,-2 3,-2 4,-2 h 3 3 l 4,1 44,14 -1,2 -1,3 -1,2 -1,6 -1,7 -1,6 c 0,3 0,7 0,10 l -1,6 v 7 c 1,3 1,6 1,9 l 1,6 1,5 1,5 v 2 l 1,2 1,1 v 1 l -39,14 -6,2 h -5 -4 l -4,-1 z m 5,-129 -1,-4 v -5 l 1,-4 1,-5 2,-5 2,-5 2,-5 3,-5 4,-5 3,-5 4,-4 4,-5 5,-4 4,-4 4,-3 5,-3 5,-3 4,-2 4,-2 5,-1 h 4 3 l 4,1 3,1 3,2 2,3 27,37 -2,2 -2,1 -2,2 -5,4 -4,5 -4,5 c -2,2 -4,5 -6,7 -2,3 -4,6 -6,8 -1,3 -3,6 -5,8 -1,3 -3,5 -4,8 -1,2 -2,4 -3,7 l -2,4 c -1,2 -2,3 -2,5 l -41,-13 -5,-2 -5,-3 -3,-2 -3,-4 -2,-3 z m 80,-94 2,-4 1,-3 3,-4 3,-3 4,-4 4,-3 5,-3 5,-2 5,-2 6,-2 5,-2 6,-2 6,-1 6,-1 h 6 5 6 l 5,1 h 5 l 4,2 4,1 4,2 3,3 2,2 2,3 1,4 v 3 46 h -2 -3 l -6,1 h -6 l -6,1 c -3,1 -7,2 -10,3 -3,0 -6,1 -9,2 -3,1 -6,2 -9,4 l -6,2 c -3,1 -5,2 -8,3 -4,3 -8,5 -12,9 l -25,-34 -3,-5 -2,-4 -1,-5 v -4 z"
         id="path195"
         style="fill:#ffffff;fill-opacity:1" />
      <path
         class="fil2"
         d="m 2804,5324 13,-20 2,-4 4,3 c 3,2 6,4 8,6 5,4 10,8 15,12 v 0 0 0 c 3,3 4,8 3,13 0,5 -2,11 -5,14 v 0 c 0,0 -1,0 -1,0 -3,4 -7,7 -12,10 -5,2 -11,3 -18,1 l 4,-9 c 3,1 7,1 10,-1 3,-2 7,-4 10,-7 v 0 0 c 1,-2 2,-5 3,-9 0,-2 0,-4 0,-5 -5,-4 -10,-8 -14,-11 -2,-1 -3,-2 -4,-3 l -10,15 z"
         id="path197"
         style="fill:#ffffff;fill-opacity:1" />
      <path
         class="fil2"
         d="m 2781,5452 c 7,1 15,0 22,-1 0,-2 0,-4 0,-7 0,-7 -1,-14 -1,-22 0,-2 -2,-5 -5,-8 -2,-2 -5,-4 -7,-4 -2,0 -5,2 -7,4 -2,2 -4,5 -4,9 -1,6 -2,12 -1,17 0,4 1,8 3,12 z m 24,8 c -9,1 -19,2 -28,1 h -3 l -1,-3 c -2,-5 -4,-11 -4,-17 -1,-6 -1,-13 1,-20 1,-5 3,-10 7,-14 3,-4 8,-6 13,-6 5,0 10,3 14,7 4,4 7,9 7,13 1,8 1,15 1,23 1,4 1,7 1,11 v 5 h -4 c -7,1 -3,0 -4,0 z"
         id="path199"
         style="fill:#ffffff;fill-opacity:1" />
      <path
         class="fil2"
         d="m 2885,5297 c 0,-1 -1,-2 -2,-4 -3,-3 -6,-7 -7,-11 -3,-9 -2,-16 2,-22 4,-6 11,-11 19,-14 1,-1 3,-1 5,-2 7,-2 15,-2 20,0 7,2 12,6 14,13 1,1 1,2 1,2 1,5 2,10 2,14 0,2 0,4 1,6 l -10,1 c 0,-2 0,-4 0,-6 -1,-3 -1,-5 -1,-8 -8,1 -15,4 -22,6 -7,3 -14,6 -21,10 2,2 3,4 4,6 1,1 2,2 3,4 z m 1,-32 c -1,2 -2,5 -2,8 6,-4 13,-7 20,-10 7,-2 14,-4 22,-6 -2,-2 -4,-4 -6,-4 -4,-2 -10,-1 -16,0 -1,1 -3,1 -4,2 -6,2 -11,5 -14,10 z"
         id="path201"
         style="fill:#ffffff;fill-opacity:1" />
      <path
         class="fil2"
         d="m 3050,5260 c 1,7 0,13 -1,18 -1,6 -4,11 -7,17 l -8,-6 c 2,-3 4,-6 5,-10 -6,-3 -13,-6 -20,-8 -6,-2 -13,-3 -19,-3 -1,3 -1,6 -1,10 h -9 c -1,-6 0,-12 2,-17 2,-6 5,-12 10,-17 l 7,6 c -2,3 -4,6 -6,8 7,1 13,2 19,4 6,2 13,4 19,8 0,-3 0,-6 -1,-8 z"
         id="path203"
         style="fill:#ffffff;fill-opacity:1" />
      <path
         class="fil2"
         d="m 3070,5321 c 1,-6 4,-11 8,-15 4,-4 9,-7 15,-8 5,-1 10,1 14,4 4,3 7,8 8,12 1,3 0,5 -1,7 2,1 5,1 6,2 1,0 1,0 1,0 4,3 7,7 8,11 2,4 1,9 -1,13 0,0 0,0 0,1 -3,5 -8,8 -13,11 -5,2 -12,4 -17,3 l 1,-9 c 3,0 8,-1 12,-3 4,-1 7,-4 9,-7 0,0 0,0 0,0 1,-2 1,-5 0,-7 0,-2 -2,-3 -3,-4 -1,0 -1,0 -1,-1 -1,0 -2,0 -3,0 -2,-1 -4,0 -6,0 l -8,1 3,-8 c 1,-1 1,-2 2,-3 1,-2 2,-4 2,-5 -1,-2 -2,-5 -5,-7 -2,-1 -4,-2 -6,-2 -4,1 -7,2 -10,5 -3,3 -5,7 -6,11 z"
         id="path205"
         style="fill:#ffffff;fill-opacity:1" />
      <path
         class="fil2"
         d="m 3116,5402 h 1 c 9,-1 20,-4 29,2 4,2 8,7 11,11 3,5 4,10 4,16 0,6 -1,12 -4,17 -2,4 -5,8 -10,11 -8,5 -19,3 -28,1 0,0 -1,-1 -2,-1 l 2,-9 c 0,0 1,0 2,1 2,0 4,0 5,1 1,-7 2,-14 2,-21 1,-7 0,-14 0,-21 -3,0 -6,1 -9,1 l -1,1 z m 25,10 c -1,-1 -3,-2 -4,-2 1,7 1,14 1,21 -1,8 -1,15 -2,22 2,0 4,-1 6,-2 3,-2 5,-4 7,-7 2,-4 3,-9 3,-13 0,-4 -1,-8 -3,-11 -2,-3 -5,-6 -8,-8 z"
         id="path207"
         style="fill:#ffffff;fill-opacity:1" />
      <path
         class="fil2"
         d="m 3098,5502 c 5,3 10,6 15,8 5,3 9,5 15,9 l 4,2 -2,4 -2,3 c -9,16 -24,43 -45,32 -15,-8 -12,-20 -6,-33 3,-5 6,-10 10,-15 2,-3 4,-6 5,-8 l 2,-4 z m 10,17 c -3,-2 -7,-4 -11,-6 -1,1 -2,3 -3,4 -3,5 -6,9 -8,14 -5,8 -7,17 1,21 13,6 25,-15 32,-28 -4,-2 -7,-4 -11,-5 z"
         id="path209"
         style="fill:#ffffff;fill-opacity:1" />
      <path
         class="fil2"
         d="m 2998,5581 c 0,4 0,8 0,12 7,-1 13,-3 20,-5 7,-2 14,-5 22,-9 -2,-3 -4,-6 -6,-8 l 7,-6 c 4,4 8,10 10,17 2,4 2,9 1,14 -1,5 -3,10 -7,14 -4,3 -9,5 -15,7 -19,7 -30,2 -36,-7 -5,-8 -6,-20 -6,-29 z m 2,21 c 1,1 1,2 2,3 4,5 11,8 25,3 5,-1 9,-3 11,-5 3,-3 5,-6 5,-9 0,-2 0,-4 0,-6 -8,4 -15,7 -22,9 -7,2 -14,4 -21,5 z"
         id="path211"
         style="fill:#ffffff;fill-opacity:1" />
      <path
         class="fil2"
         d="m 2892,5600 c 1,1 1,1 2,2 5,5 10,8 15,8 5,1 11,-1 15,-5 1,-1 1,-1 2,-2 0,0 1,-1 1,-1 1,-2 2,-5 1,-7 -1,-3 -2,-7 -6,-10 -1,-1 -3,-3 -5,-4 -7,-4 -12,-6 -17,-5 -4,1 -7,3 -11,7 3,2 6,4 9,5 5,2 9,4 14,5 l -1,9 c -6,-1 -12,-3 -17,-5 -5,-3 -9,-5 -14,-9 l -5,-3 4,-4 c 6,-7 12,-12 19,-14 7,-2 15,0 24,6 2,2 5,3 7,6 5,4 7,9 8,14 1,5 1,10 -2,14 -1,1 -1,2 -2,3 -1,0 -2,1 -2,2 -7,6 -15,8 -22,7 -8,0 -15,-4 -21,-10 -1,-1 -2,-2 -3,-3 z"
         id="path213"
         style="fill:#ffffff;fill-opacity:1" />
      <path
         class="fil2"
         d="m 2828,5508 c -3,2 -7,3 -10,5 3,7 7,13 11,19 4,6 9,12 15,17 2,-3 4,-5 6,-8 l 8,5 c -5,7 -9,12 -15,16 -4,3 -9,4 -13,5 -5,0 -9,-2 -14,-4 -5,-3 -9,-8 -13,-14 -2,-2 -3,-5 -4,-7 -3,-7 -3,-13 -1,-19 v 0 c 2,-6 7,-12 14,-17 4,-2 8,-5 13,-7 z m -17,12 c -2,2 -3,4 -4,6 v 0 c -1,4 -1,8 0,12 1,2 2,4 3,6 4,5 7,8 11,11 3,1 6,2 9,2 2,0 4,-1 7,-2 -6,-5 -11,-11 -15,-17 -5,-6 -8,-12 -11,-18 z"
         id="path215"
         style="fill:#ffffff;fill-opacity:1" />
    </g>
    <g
       aria-label="FAKULTAS TEKNOLOGI PERTANIAN"
       id="text10657"
       style="font-size:7.22259px;line-height:1.25;fill:#ffffff;fill-opacity:1;stroke-width:0.386924">
      <path
         d="m -31.851113,-16.026733 c 0,-0.108339 -0.08667,-0.19501 -0.187787,-0.19501 h -3.250166 v 0.09389 l 0.310572,0.05778 c 0.115561,0.02167 0.202232,0.115561 0.202232,0.238345 v 4.275773 c 0,0.115562 -0.08667,0.216678 -0.202232,0.231123 l -0.317794,0.05778 v 0.101116 h 1.848983 v -0.101116 l -0.317794,-0.05778 c -0.115562,-0.01444 -0.202233,-0.115561 -0.202233,-0.231123 v -2.051215 c 0,-0.07223 0.05056,-0.122784 0.115562,-0.122784 h 1.206172 c 0.115562,0 0.216678,0.08667 0.231123,0.19501 l 0.05778,0.310571 h 0.09389 v -1.249508 h -0.09389 l -0.03611,0.130007 c -0.03611,0.09389 -0.122784,0.158897 -0.223901,0.158897 h -1.235062 c -0.065,0 -0.115562,-0.05778 -0.115562,-0.122784 v -1.271176 c 0,-0.07223 0.05778,-0.122784 0.122784,-0.122784 h 1.610638 c 0.115561,0 0.216677,0.07945 0.231123,0.19501 l 0.05778,0.303348 h 0.09389 z"
         style="font-weight:bold;font-family:Gama-Serif;-inkscape-font-specification:Gama-Serif;fill:#ffffff;fill-opacity:1"
         id="path23054" />
      <path
         d="m -27.019195,-11.259823 c -0.325017,-0.065 -0.527249,-0.158897 -0.642811,-0.447801 l -1.755089,-4.579122 h -0.397242 l -1.762312,4.586345 c -0.108339,0.267235 -0.296127,0.382797 -0.635588,0.440578 v 0.09389 h 1.523966 v -0.09389 c -0.288903,0 -0.39002,-0.16612 -0.296126,-0.397243 l 0.498359,-1.278398 h 1.487853 l 0.491136,1.278398 c 0.07223,0.180565 0,0.397243 -0.303348,0.397243 v 0.09389 h 1.791202 z m -3.300724,-2.108997 0.577807,-1.509521 0.577808,1.509521 z"
         style="font-weight:bold;font-family:Gama-Serif;-inkscape-font-specification:Gama-Serif;fill:#ffffff;fill-opacity:1"
         id="path23056" />
      <path
         d="m -22.526745,-11.332049 h 0.0072 c -0.231123,-0.03611 -0.426133,-0.16612 -0.570585,-0.339462 l -2.00788,-2.477348 1.877874,-1.820093 c 0.05056,-0.04334 0.115561,-0.07945 0.187787,-0.09389 l 0.382797,-0.07223 v -0.08667 h -1.386737 v 0.08667 l 0.144452,0.02889 h 0.0072 c 0.05056,0.01444 0.07945,0.05056 0.07945,0.101116 0,0.02167 -0.0072,0.05056 -0.02167,0.065 l -1.653973,1.603415 v -1.502299 c 0,-0.115561 0.07945,-0.209455 0.19501,-0.231122 l 0.310571,-0.05778 v -0.09389 h -1.827315 v 0.09389 l 0.303349,0.05778 c 0.115561,0.02167 0.202232,0.115561 0.202232,0.238345 v 4.282996 c 0,0.115561 -0.08667,0.216678 -0.202232,0.231123 l -0.303349,0.05778 v 0.09389 h 1.827315 v -0.09389 l -0.310571,-0.05778 c -0.115561,-0.02167 -0.19501,-0.115562 -0.19501,-0.231123 l -0.0072,-2.00788 1.718976,2.130664 c 0,0 0.19501,0.260013 0.570585,0.260013 h 1.018385 v -0.09389 z"
         style="font-weight:bold;font-family:Gama-Serif;-inkscape-font-specification:Gama-Serif;fill:#ffffff;fill-opacity:1"
         id="path23058" />
      <path
         d="m -22.252293,-16.120627 0.310572,0.05778 c 0.115561,0.01445 0.19501,0.115562 0.19501,0.231123 h 0.0072 v 2.946817 c 0,1.112279 0.881156,1.848983 2.210113,1.848983 1.321734,0 2.20289,-0.736704 2.20289,-1.848983 v -2.946817 h 0.0072 c 0,-0.115561 0.07945,-0.216678 0.19501,-0.231123 l 0.310572,-0.05778 v -0.101116 h -1.834538 v 0.101116 l 0.310571,0.05056 c 0.115562,0.02167 0.202233,0.122784 0.202233,0.238345 v 3.271833 c 0,0.657256 -0.55614,1.090611 -1.39396,1.090611 -0.837821,0 -1.401183,-0.433355 -1.401183,-1.090611 v -3.271833 c 0,-0.115561 0.08667,-0.216678 0.202233,-0.238345 l 0.310571,-0.05056 v -0.101116 h -1.834538 z"
         style="font-weight:bold;font-family:Gama-Serif;-inkscape-font-specification:Gama-Serif;fill:#ffffff;fill-opacity:1"
         id="path23060" />
      <path
         d="m -12.906264,-12.191538 -0.065,0.310572 c -0.01445,0.108339 -0.101116,0.187787 -0.202232,0.19501 h -1.646751 c -0.137229,0 -0.245568,-0.101117 -0.245568,-0.231123 v -3.921867 c 0,-0.115561 0.08667,-0.209455 0.202233,-0.231122 l 0.317794,-0.05778 v -0.09389 h -1.834538 v 0.09389 l 0.310571,0.05778 c 0.108339,0.01444 0.19501,0.115561 0.19501,0.231122 v 4.282996 c 0,0.122784 -0.08667,0.223901 -0.19501,0.238346 l -0.310571,0.05778 v 0.09389 h 3.372949 c 0.115562,0 0.19501,-0.09389 0.19501,-0.19501 v -0.281681 -0.548917 z"
         style="font-weight:bold;font-family:Gama-Serif;-inkscape-font-specification:Gama-Serif;fill:#ffffff;fill-opacity:1"
         id="path23062" />
      <path
         d="m -9.4105215,-16.221743 h -3.3946175 c -0.108339,0 -0.19501,0.08667 -0.19501,0.187788 l -0.02889,0.830597 h 0.09389 c 0.03611,-0.158897 0.101116,-0.281681 0.137229,-0.368352 0.02889,-0.07945 0.108339,-0.130006 0.187787,-0.130006 h 1.090611 v 4.145766 c 0,0.122784 -0.08667,0.223901 -0.202232,0.238346 l -0.310572,0.05778 v 0.09389 h 1.834538 v -0.09389 l -0.317794,-0.05778 c -0.108339,-0.02167 -0.187787,-0.115562 -0.19501,-0.231123 v -4.152989 h 1.133947 0.00722 c 0.079448,0 0.158897,0.05056 0.1877874,0.130006 0.036113,0.08667 0.065003,0.209455 0.093894,0.368352 h 0.093894 l -0.021668,-0.830597 c 0,-0.101117 -0.093894,-0.187788 -0.19501,-0.187788 z"
         style="font-weight:bold;font-family:Gama-Serif;-inkscape-font-specification:Gama-Serif;fill:#ffffff;fill-opacity:1"
         id="path23064" />
      <path
         d="m -4.4341513,-11.259823 c -0.3250165,-0.065 -0.527249,-0.158897 -0.6428105,-0.447801 l -1.7550893,-4.579122 h -0.3972425 l -1.7623119,4.586345 c -0.1083389,0.267235 -0.2961262,0.382797 -0.635588,0.440578 v 0.09389 h 1.5239665 v -0.09389 c -0.2889036,0 -0.3900198,-0.16612 -0.2961262,-0.397243 l 0.4983588,-1.278398 h 1.4878535 l 0.4911361,1.278398 c 0.072226,0.180565 0,0.397243 -0.3033488,0.397243 v 0.09389 h 1.7912023 z m -3.3007236,-2.108997 0.5778072,-1.509521 0.5778072,1.509521 z"
         style="font-weight:bold;font-family:Gama-Serif;-inkscape-font-specification:Gama-Serif;fill:#ffffff;fill-opacity:1"
         id="path23066" />
      <path
         d="m -0.7578524,-12.213205 c -0.007223,-0.743927 -0.2455681,-1.177283 -1.126724,-1.675641 -0.6789235,-0.382797 -1.5239665,-0.715037 -1.5239665,-1.300066 0,-0.910047 0.881156,-0.996718 1.7045312,-0.599475 0.1950099,0.08667 0.2672358,0.144451 0.3611295,0.570584 h 0.1661196 v -1.155614 h -0.1661196 l -0.014445,0.08667 c -0.02889,0.151674 -0.1588969,0.238345 -0.3322391,0.166119 -0.5705846,-0.245568 -1.0256078,-0.245568 -1.0256078,-0.245568 -0.9028237,0 -1.5022987,0.520027 -1.5022987,1.292844 0.021668,1.011163 0.7655945,1.184505 1.8706508,1.885096 0.6500331,0.433355 0.7439268,0.700591 0.7655945,0.989495 0,0.902824 -0.80893,1.068943 -1.9212089,0.368352 -0.3755747,-0.231123 -0.4550232,-0.837821 -0.4550232,-0.837821 h -0.1661195 v 1.502299 h 0.1661195 l 0.021668,-0.238345 c 0.00722,-0.07223 0.079449,-0.130007 0.1661196,-0.130007 0.072226,0 0.065003,0.0072 0.4550231,0.238346 1.1267241,0.585029 2.5567969,0.216677 2.5567969,-0.917269 z"
         style="font-weight:bold;font-family:Gama-Serif;-inkscape-font-specification:Gama-Serif;fill:#ffffff;fill-opacity:1"
         id="path23068" />
      <path
         d="M 5.3163348,-16.221743 H 1.9217175 c -0.1083389,0 -0.19501,0.08667 -0.19501,0.187788 l -0.02889,0.830597 h 0.093894 c 0.036113,-0.158897 0.1011163,-0.281681 0.1372293,-0.368352 0.02889,-0.07945 0.1083388,-0.130006 0.1877873,-0.130006 h 1.0906111 v 4.145766 c 0,0.122784 -0.086671,0.223901 -0.2022325,0.238346 l -0.3105714,0.05778 v 0.09389 h 1.8345378 v -0.09389 l -0.3177939,-0.05778 c -0.1083389,-0.02167 -0.1877874,-0.115562 -0.1950099,-0.231123 v -4.152989 h 1.1339466 0.00722 c 0.079448,0 0.158897,0.05056 0.1877873,0.130006 0.036113,0.08667 0.065003,0.209455 0.093894,0.368352 h 0.093894 l -0.021668,-0.830597 c 0,-0.101117 -0.093894,-0.187788 -0.1950099,-0.187788 z"
         style="font-weight:bold;font-family:Gama-Serif;-inkscape-font-specification:Gama-Serif;fill:#ffffff;fill-opacity:1"
         id="path23070" />
      <path
         d="m 9.4259938,-12.191538 h -0.093894 l -0.057781,0.310572 c -0.021668,0.108339 -0.1155615,0.19501 -0.2311229,0.19501 H 7.3675556 c -0.122784,0 -0.2239003,-0.101117 -0.2239003,-0.231123 v -1.690086 c 0,-0.07223 0.050558,-0.122784 0.1227841,-0.122784 h 1.0256078 c 0.1155614,0 0.2166777,0.08667 0.2311228,0.19501 l 0.057781,0.310571 h 0.093894 v -1.466186 H 8.580951 l -0.057781,0.310572 c -0.014445,0.108339 -0.1155614,0.187787 -0.2311228,0.19501 H 7.2664394 c -0.072226,0 -0.1227841,-0.05778 -0.1227841,-0.122784 v -1.271176 c 0,-0.065 0.050558,-0.122784 0.1155615,-0.122784 h 1.5239665 c 0.1155614,0.0072 0.2094551,0.08667 0.2311228,0.202232 l 0.057781,0.303349 h 0.093894 v -0.830598 c 0,-0.108339 -0.086671,-0.19501 -0.1950099,-0.19501 H 5.8219214 v 0.09389 l 0.3105714,0.05778 c 0.1155614,0.02167 0.2022325,0.115561 0.2022325,0.238345 v 4.282996 c 0,0.115561 -0.086671,0.216678 -0.2022325,0.231123 l -0.3105714,0.05778 v 0.09389 h 3.4018399 c 0.1155614,0 0.2022325,-0.08667 0.2022325,-0.202232 z"
         style="font-weight:bold;font-family:Gama-Serif;-inkscape-font-specification:Gama-Serif;fill:#ffffff;fill-opacity:1"
         id="path23072" />
      <path
         d="m 14.062897,-11.332049 h 0.0072 c -0.231123,-0.03611 -0.426133,-0.16612 -0.570585,-0.339462 l -2.00788,-2.477348 1.877873,-1.820093 c 0.05056,-0.04334 0.115562,-0.07945 0.187788,-0.09389 l 0.382797,-0.07223 v -0.08667 h -1.386737 v 0.08667 l 0.144451,0.02889 h 0.0072 c 0.05056,0.01444 0.07945,0.05056 0.07945,0.101116 0,0.02167 -0.0072,0.05056 -0.02167,0.065 l -1.653973,1.603415 v -1.502299 c 0,-0.115561 0.07945,-0.209455 0.19501,-0.231122 l 0.310571,-0.05778 v -0.09389 H 9.7871237 v 0.09389 l 0.3033483,0.05778 c 0.115562,0.02167 0.202233,0.115561 0.202233,0.238345 v 4.282996 c 0,0.115561 -0.08667,0.216678 -0.202233,0.231123 l -0.3033483,0.05778 v 0.09389 h 1.8273153 v -0.09389 l -0.310571,-0.05778 c -0.115562,-0.02167 -0.19501,-0.115562 -0.19501,-0.231123 l -0.0072,-2.00788 1.718977,2.130664 c 0,0 0.195009,0.260013 0.570584,0.260013 h 1.018385 v -0.09389 z"
         style="font-weight:bold;font-family:Gama-Serif;-inkscape-font-specification:Gama-Serif;fill:#ffffff;fill-opacity:1"
         id="path23074" />
      <path
         d="m 19.884297,-16.221743 h -1.567302 v 0.09389 l 0.303349,0.05778 c 0.115561,0.01444 0.202232,0.115561 0.202232,0.231122 v 3.084046 l -3.156271,-3.401839 c -0.02167,-0.02889 -0.07223,-0.065 -0.144452,-0.065 h -1.184505 v 0.09389 l 0.317794,0.05778 c 0.108339,0.02167 0.19501,0.115561 0.19501,0.231122 v 4.282996 c 0,0.122784 -0.08667,0.216678 -0.19501,0.238346 l -0.317794,0.05778 v 0.09389 h 1.574525 v -0.09389 l -0.310572,-0.05778 c -0.108339,-0.01445 -0.19501,-0.108339 -0.202232,-0.231123 v -3.654631 l 3.712411,4.037428 h 0.260013 v -4.673016 c 0,-0.115561 0.08667,-0.209455 0.19501,-0.231122 l 0.317794,-0.05778 z"
         style="font-weight:bold;font-family:Gama-Serif;-inkscape-font-specification:Gama-Serif;fill:#ffffff;fill-opacity:1"
         id="path23076" />
      <path
         d="m 25.691252,-13.657723 c 0.05056,-1.574525 -1.249508,-2.629023 -2.715694,-2.636246 -1.466186,-0.0072 -2.643468,1.047276 -2.657913,2.636246 -0.01444,1.567302 1.19895,2.607355 2.665136,2.592909 1.458963,-0.01445 2.672358,-1.054498 2.708471,-2.592909 z m -2.701249,2.072883 c -1.06172,0 -1.769534,-0.823375 -1.769534,-2.065661 0,-1.271176 0.707814,-2.123441 1.769534,-2.123441 1.076166,0 1.798425,0.852265 1.798425,2.123441 0,1.242286 -0.722259,2.065661 -1.798425,2.065661 z"
         style="font-weight:bold;font-family:Gama-Serif;-inkscape-font-specification:Gama-Serif;fill:#ffffff;fill-opacity:1"
         id="path23078" />
      <path
         d="m 29.59868,-12.191538 -0.065,0.310572 c -0.01444,0.108339 -0.101116,0.187787 -0.202232,0.19501 h -1.646751 c -0.137229,0 -0.245568,-0.101117 -0.245568,-0.231123 v -3.921867 c 0,-0.115561 0.08667,-0.209455 0.202233,-0.231122 l 0.317794,-0.05778 v -0.09389 h -1.834538 v 0.09389 l 0.310571,0.05778 c 0.108339,0.01444 0.19501,0.115561 0.19501,0.231122 v 4.282996 c 0,0.122784 -0.08667,0.223901 -0.19501,0.238346 l -0.310571,0.05778 v 0.09389 h 3.372949 c 0.115562,0 0.19501,-0.09389 0.19501,-0.19501 v -0.281681 -0.548917 z"
         style="font-weight:bold;font-family:Gama-Serif;-inkscape-font-specification:Gama-Serif;fill:#ffffff;fill-opacity:1"
         id="path23080" />
      <path
         d="m 35.282862,-13.657723 c 0.05056,-1.574525 -1.249508,-2.629023 -2.715694,-2.636246 -1.466186,-0.0072 -2.643468,1.047276 -2.657913,2.636246 -0.01445,1.567302 1.19895,2.607355 2.665136,2.592909 1.458963,-0.01445 2.672358,-1.054498 2.708471,-2.592909 z m -2.701249,2.072883 c -1.06172,0 -1.769534,-0.823375 -1.769534,-2.065661 0,-1.271176 0.707814,-2.123441 1.769534,-2.123441 1.076166,0 1.798425,0.852265 1.798425,2.123441 0,1.242286 -0.722259,2.065661 -1.798425,2.065661 z"
         style="font-weight:bold;font-family:Gama-Serif;-inkscape-font-specification:Gama-Serif;fill:#ffffff;fill-opacity:1"
         id="path23082" />
      <path
         d="m 35.716224,-13.708281 c -0.05056,1.574524 1.03283,2.629022 2.715694,2.629022 0,0 1.336179,0.05778 2.116218,-0.476691 0.03611,-0.02167 0.05778,-0.07223 0.05778,-0.122784 v -1.632305 c 0,-0.122784 0.09389,-0.216678 0.202233,-0.238345 l 0.317794,-0.065 v -0.09389 h -1.863429 v 0.09389 l 0.325017,0.065 c 0.108339,0.01445 0.209455,0.115561 0.209455,0.238345 v 1.235063 c 0,0.462246 -0.527249,0.577807 -1.054498,0.577807 -1.328957,0 -2.123442,-0.80893 -2.123442,-2.210112 0,-1.401183 0.794485,-2.174 2.123442,-2.174 0.577807,0 1.112279,0.19501 1.336179,0.491136 0.108339,0.151674 0.267236,0.462246 0.382797,0.78004 h 0.144452 v -1.083389 c 0,-0.05778 -0.02167,-0.108339 -0.07223,-0.144452 -0.772817,-0.520026 -2.094551,-0.462245 -2.094551,-0.462245 -1.581747,0.05056 -2.672358,1.090611 -2.722916,2.59291 z"
         style="font-weight:bold;font-family:Gama-Serif;-inkscape-font-specification:Gama-Serif;fill:#ffffff;fill-opacity:1"
         id="path23084" />
      <path
         d="m 43.148266,-16.070068 0.317794,-0.05778 v -0.09389 h -1.834538 v 0.09389 l 0.310572,0.05778 c 0.115561,0.02167 0.202232,0.115561 0.202232,0.238345 v 4.282996 c 0,0.09389 -0.065,0.216678 -0.202232,0.231123 l -0.310572,0.05778 v 0.09389 h 1.834538 v -0.09389 l -0.317794,-0.05778 c -0.108339,-0.01445 -0.202232,-0.115562 -0.202232,-0.231123 v -4.290219 c 0,-0.115561 0.09389,-0.209455 0.202232,-0.231122 z"
         style="font-weight:bold;font-family:Gama-Serif;-inkscape-font-specification:Gama-Serif;fill:#ffffff;fill-opacity:1"
         id="path23086" />
      <path
         d="m 48.355745,-16.221743 h -2.289561 v 0.09389 l 0.310571,0.05778 c 0.108339,0.02167 0.19501,0.115561 0.19501,0.238345 v 4.282996 c 0,0.115561 -0.08667,0.216678 -0.19501,0.231123 l -0.310571,0.05778 v 0.09389 h 1.827315 v -0.09389 l -0.310571,-0.05778 c -0.115561,-0.01445 -0.202233,-0.115562 -0.202233,-0.231123 v -1.718976 h 1.025608 c 0.953382,0 1.58897,-0.599475 1.58897,-1.495077 0,-0.873933 -0.657256,-1.458963 -1.639528,-1.458963 z m -0.274458,2.434013 h -0.693369 v -1.798425 c 0,-0.065 0.05778,-0.115561 0.115561,-0.115561 h 0.592253 c 0.650033,0 1.076166,0.368352 1.068943,0.924491 -0.0072,0.592253 -0.440578,0.989495 -1.083388,0.989495 z"
         style="font-weight:bold;font-family:Gama-Serif;-inkscape-font-specification:Gama-Serif;fill:#ffffff;fill-opacity:1"
         id="path23088" />
      <path
         d="m 53.816016,-12.191538 h -0.09389 l -0.05778,0.310572 c -0.02167,0.108339 -0.115562,0.19501 -0.231123,0.19501 h -1.675641 c -0.122784,0 -0.2239,-0.101117 -0.2239,-0.231123 v -1.690086 c 0,-0.07223 0.05056,-0.122784 0.122784,-0.122784 h 1.025607 c 0.115562,0 0.216678,0.08667 0.231123,0.19501 l 0.05778,0.310571 h 0.09389 v -1.466186 h -0.09389 l -0.05778,0.310572 c -0.01445,0.108339 -0.115561,0.187787 -0.231123,0.19501 h -1.025607 c -0.07223,0 -0.122784,-0.05778 -0.122784,-0.122784 v -1.271176 c 0,-0.065 0.05056,-0.122784 0.115561,-0.122784 h 1.523967 c 0.115561,0.0072 0.209455,0.08667 0.231122,0.202232 l 0.05778,0.303349 h 0.09389 v -0.830598 c 0,-0.108339 -0.08667,-0.19501 -0.19501,-0.19501 h -3.149049 v 0.09389 l 0.310571,0.05778 c 0.115561,0.02167 0.202233,0.115561 0.202233,0.238345 v 4.282996 c 0,0.115561 -0.08667,0.216678 -0.202233,0.231123 l -0.310571,0.05778 v 0.09389 h 3.40184 c 0.115561,0 0.202232,-0.08667 0.202232,-0.202232 z"
         style="font-weight:bold;font-family:Gama-Serif;-inkscape-font-specification:Gama-Serif;fill:#ffffff;fill-opacity:1"
         id="path23090" />
      <path
         d="m 58.395139,-11.332049 h 0.0072 c -0.231123,-0.03611 -0.433355,-0.158897 -0.577807,-0.339462 l -1.285621,-1.56008 c 0.895601,0 1.495076,-0.61392 1.495076,-1.531189 0,-0.873933 -0.686146,-1.458963 -1.718976,-1.458963 h -2.137887 v 0.09389 l 0.310571,0.05778 c 0.108339,0.02167 0.19501,0.115561 0.19501,0.238345 v 4.282996 c 0,0.115561 -0.08667,0.216678 -0.19501,0.231123 l -0.310571,0.05778 v 0.09389 h 1.820093 v -0.09389 l -0.310572,-0.05778 c -0.115561,-0.01445 -0.202232,-0.115562 -0.202232,-0.231123 v -1.682864 h 0.202232 l 1.458963,1.805648 c 0.260014,0.317794 0.58503,0.260013 1.596193,0.260013 v -0.09389 z m -2.903482,-4.254106 c 0,-0.065 0.05778,-0.115561 0.122784,-0.115561 h 0.512804 c 0.650033,0 1.083389,0.368352 1.076166,0.924491 -0.0072,0.61392 -0.440578,1.025608 -1.090611,1.025608 h -0.621143 z"
         style="font-weight:bold;font-family:Gama-Serif;-inkscape-font-specification:Gama-Serif;fill:#ffffff;fill-opacity:1"
         id="path23092" />
      <path
         d="m 62.143659,-16.221743 h -3.394618 c -0.108338,0 -0.19501,0.08667 -0.19501,0.187788 l -0.02889,0.830597 h 0.09389 c 0.03611,-0.158897 0.101116,-0.281681 0.137229,-0.368352 0.02889,-0.07945 0.108339,-0.130006 0.187787,-0.130006 h 1.090611 v 4.145766 c 0,0.122784 -0.08667,0.223901 -0.202232,0.238346 l -0.310571,0.05778 v 0.09389 h 1.834537 v -0.09389 l -0.317794,-0.05778 c -0.108338,-0.02167 -0.187787,-0.115562 -0.19501,-0.231123 v -4.152989 h 1.133947 0.0072 c 0.07945,0 0.158897,0.05056 0.187787,0.130006 0.03611,0.08667 0.065,0.209455 0.09389,0.368352 h 0.09389 l -0.02167,-0.830597 c 0,-0.101117 -0.09389,-0.187788 -0.19501,-0.187788 z"
         style="font-weight:bold;font-family:Gama-Serif;-inkscape-font-specification:Gama-Serif;fill:#ffffff;fill-opacity:1"
         id="path23094" />
      <path
         d="m 67.120033,-11.259823 c -0.325017,-0.065 -0.527249,-0.158897 -0.642811,-0.447801 l -1.755089,-4.579122 H 64.32489 l -1.762312,4.586345 c -0.108338,0.267235 -0.296126,0.382797 -0.635587,0.440578 v 0.09389 h 1.523966 v -0.09389 c -0.288904,0 -0.39002,-0.16612 -0.296126,-0.397243 l 0.498359,-1.278398 h 1.487853 l 0.491136,1.278398 c 0.07223,0.180565 0,0.397243 -0.303349,0.397243 v 0.09389 h 1.791203 z m -3.300724,-2.108997 0.577807,-1.509521 0.577807,1.509521 z"
         style="font-weight:bold;font-family:Gama-Serif;-inkscape-font-specification:Gama-Serif;fill:#ffffff;fill-opacity:1"
         id="path23096" />
      <path
         d="m 72.883656,-16.221743 h -1.567302 v 0.09389 l 0.303349,0.05778 c 0.115561,0.01444 0.202233,0.115561 0.202233,0.231122 v 3.084046 l -3.156272,-3.401839 c -0.02167,-0.02889 -0.07223,-0.065 -0.144452,-0.065 h -1.184505 v 0.09389 l 0.317794,0.05778 c 0.108339,0.02167 0.19501,0.115561 0.19501,0.231122 v 4.282996 c 0,0.122784 -0.08667,0.216678 -0.19501,0.238346 l -0.317794,0.05778 v 0.09389 h 1.574525 v -0.09389 l -0.310572,-0.05778 c -0.108338,-0.01445 -0.19501,-0.108339 -0.202232,-0.231123 v -3.654631 l 3.712411,4.037428 h 0.260013 v -4.673016 c 0,-0.115561 0.08667,-0.209455 0.19501,-0.231122 l 0.317794,-0.05778 z"
         style="font-weight:bold;font-family:Gama-Serif;-inkscape-font-specification:Gama-Serif;fill:#ffffff;fill-opacity:1"
         id="path23098" />
      <path
         d="m 74.833752,-16.070068 0.317794,-0.05778 v -0.09389 h -1.834538 v 0.09389 l 0.310571,0.05778 c 0.115562,0.02167 0.202233,0.115561 0.202233,0.238345 v 4.282996 c 0,0.09389 -0.065,0.216678 -0.202233,0.231123 l -0.310571,0.05778 v 0.09389 h 1.834538 v -0.09389 l -0.317794,-0.05778 c -0.108339,-0.01445 -0.202233,-0.115562 -0.202233,-0.231123 v -4.290219 c 0,-0.115561 0.09389,-0.209455 0.202233,-0.231122 z"
         style="font-weight:bold;font-family:Gama-Serif;-inkscape-font-specification:Gama-Serif;fill:#ffffff;fill-opacity:1"
         id="path23100" />
      <path
         d="m 80.561256,-11.259823 c -0.325017,-0.065 -0.527249,-0.158897 -0.642811,-0.447801 l -1.755089,-4.579122 h -0.397242 l -1.762312,4.586345 c -0.108339,0.267235 -0.296127,0.382797 -0.635588,0.440578 v 0.09389 h 1.523966 v -0.09389 c -0.288903,0 -0.39002,-0.16612 -0.296126,-0.397243 l 0.498359,-1.278398 h 1.487853 l 0.491136,1.278398 c 0.07223,0.180565 0,0.397243 -0.303348,0.397243 v 0.09389 h 1.791202 z m -3.300724,-2.108997 0.577807,-1.509521 0.577808,1.509521 z"
         style="font-weight:bold;font-family:Gama-Serif;-inkscape-font-specification:Gama-Serif;fill:#ffffff;fill-opacity:1"
         id="path23102" />
      <path
         d="m 86.324887,-16.221743 h -1.567302 v 0.09389 l 0.303349,0.05778 c 0.115561,0.01444 0.202232,0.115561 0.202232,0.231122 v 3.084046 l -3.156272,-3.401839 c -0.02167,-0.02889 -0.07223,-0.065 -0.144451,-0.065 h -1.184505 v 0.09389 l 0.317794,0.05778 c 0.108339,0.02167 0.19501,0.115561 0.19501,0.231122 v 4.282996 c 0,0.122784 -0.08667,0.216678 -0.19501,0.238346 l -0.317794,0.05778 v 0.09389 h 1.574525 v -0.09389 l -0.310572,-0.05778 c -0.108339,-0.01445 -0.19501,-0.108339 -0.202232,-0.231123 v -3.654631 l 3.712411,4.037428 h 0.260013 v -4.673016 c 0,-0.115561 0.08667,-0.209455 0.19501,-0.231122 l 0.317794,-0.05778 z"
         style="font-weight:bold;font-family:Gama-Serif;-inkscape-font-specification:Gama-Serif;fill:#ffffff;fill-opacity:1"
         id="path23104" />
    </g>
  </g>
</svg>
