<?xml version="1.0" encoding="UTF-8" standalone="no"?>
<!-- Created with Inkscape (http://www.inkscape.org/) -->

<svg
   width="51.028599mm"
   height="52.882801mm"
   viewBox="0 0 51.028599 52.882801"
   version="1.1"
   id="svg1697"
   sodipodi:docname="logo-ugm-white.svg"
   inkscape:version="1.1.1 (3bf5ae0d25, 2021-09-20, custom)"
   xmlns:inkscape="http://www.inkscape.org/namespaces/inkscape"
   xmlns:sodipodi="http://sodipodi.sourceforge.net/DTD/sodipodi-0.dtd"
   xmlns="http://www.w3.org/2000/svg"
   xmlns:svg="http://www.w3.org/2000/svg">
  <sodipodi:namedview
     id="namedview41"
     pagecolor="#ffffff"
     bordercolor="#666666"
     borderopacity="1.0"
     inkscape:pageshadow="2"
     inkscape:pageopacity="0.0"
     inkscape:pagecheckerboard="0"
     inkscape:document-units="mm"
     showgrid="false"
     inkscape:zoom="1.8891841"
     inkscape:cx="94.749895"
     inkscape:cy="284.77901"
     inkscape:window-width="1366"
     inkscape:window-height="713"
     inkscape:window-x="0"
     inkscape:window-y="27"
     inkscape:window-maximized="1"
     inkscape:current-layer="svg1697" />
  <defs
     id="defs1694" />
  <g
     id="layer1"
     transform="translate(-98.757206,-62.933455)"
     style="fill:#ffffff;fill-opacity:1">
    <g
       id="g291"
       transform="matrix(0.0254,0,0,0.0254,-41.628594,-54.973345)"
       style="clip-rule:evenodd;fill:#ffffff;fill-opacity:1;fill-rule:evenodd;image-rendering:optimizeQuality;shape-rendering:geometricPrecision;text-rendering:geometricPrecision">
      <path
         class="fil1"
         d="m 5845,6175 -13,2 c -2,0 -4,1 -6,3 -1,2 -2,4 -2,6 v 35 85 c 0,14 -4,26 -10,38 -7,11 -16,20 -28,27 -11,7 -24,10 -37,10 h -13 c -14,0 -25,-3 -35,-10 -10,-6 -18,-16 -23,-27 -5,-11 -8,-24 -8,-38 v -85 -35 0 c 0,-2 -1,-4 -2,-6 -2,-2 -4,-3 -6,-3 l -12,-2 v -4 h 65 v 4 l -13,2 c -2,0 -4,1 -6,3 -1,2 -2,4 -2,6 v 35 98 c 0,9 2,18 7,25 4,8 10,14 18,19 8,4 16,6 25,6 h 9 c 9,0 17,-2 25,-6 8,-5 14,-11 18,-19 5,-7 7,-16 7,-25 v -98 -35 c 0,-2 -1,-4 -2,-6 -2,-2 -4,-3 -6,-3 l -13,-2 v -4 h 63 z m 221,-1 -13,3 c -2,0 -4,1 -6,3 -1,2 -2,4 -2,6 v 147 43 h -5 l -142,-163 v 147 c 0,3 1,5 3,7 1,1 3,2 5,3 l 13,2 v 4 h -21 -21 -20 v -4 l 12,-2 c 3,-1 5,-2 6,-4 2,-2 2,-4 2,-6 v -174 c 0,-2 0,-4 -2,-6 -2,-2 -3,-3 -6,-3 l -12,-3 v -3 h 20 4 13 c 3,0 5,1 7,3 l 123,141 v -129 c 0,-2 0,-4 -2,-6 -2,-2 -4,-3 -6,-3 l -12,-3 v -3 h 20 21 21 z m 74,3 c -3,0 -5,1 -6,3 -2,2 -3,4 -3,6 v 174 c 0,3 1,5 3,6 1,2 3,3 6,4 l 12,2 v 4 h -21 -24 -21 v -4 l 13,-2 c 2,0 4,-2 6,-3 2,-2 2,-4 2,-7 v -174 c 0,-2 0,-4 -2,-6 -2,-2 -4,-3 -6,-3 l -13,-3 v -3 h 21 24 21 v 3 z m 223,-6 v 3 l -16,3 c -3,1 -5,3 -6,6 l -75,196 h -12 l -75,-196 c 0,-1 -1,-2 -2,-3 -2,-2 -3,-2 -5,-3 l -15,-3 v -3 h 64 v 3 l -7,2 c -2,0 -4,1 -5,3 -2,2 -3,4 -3,6 0,1 1,3 1,4 l 55,145 56,-146 c 1,-1 1,-2 1,-3 0,-2 -1,-4 -2,-6 -2,-2 -3,-3 -6,-3 l -6,-2 v -3 z m 141,197 c 0,2 -1,4 -3,6 -1,1 -3,2 -5,2 h -85 -24 -21 v -4 l 13,-2 c 2,0 4,-2 6,-3 1,-2 2,-4 2,-7 v -174 c 0,-2 -1,-4 -2,-6 -2,-2 -4,-3 -6,-3 l -13,-3 v -3 h 21 24 75 c 2,0 4,0 5,2 1,1 2,3 2,5 v 10 21 h -4 l -2,-13 c 0,-2 -1,-4 -3,-5 -2,-2 -4,-3 -6,-3 h -62 c -2,0 -3,1 -4,2 0,1 -1,2 -1,3 v 58 c 0,2 1,3 2,4 1,1 2,1 3,1 h 42 c 2,0 4,-1 6,-2 2,-2 3,-4 3,-6 l 2,-12 h 4 v 20 10 3 21 h -4 l -2,-13 c 0,-2 -1,-4 -3,-6 -2,-1 -4,-2 -6,-2 h -42 c -1,0 -2,1 -3,1 -1,1 -2,3 -2,4 v 75 c 0,2 1,5 3,6 2,2 4,3 6,3 h 68 c 3,0 5,-1 6,-2 2,-2 3,-3 4,-6 l 2,-12 h 4 z m 192,4 v 4 h -20 -16 c -4,0 -8,-1 -13,-3 -5,-1 -9,-3 -11,-6 l -63,-78 h -5 c -1,0 -3,1 -4,2 -1,1 -1,2 -1,3 v 66 c 0,3 1,5 2,7 2,1 4,3 6,3 l 13,2 v 4 h -66 v -4 l 13,-2 c 2,0 4,-2 6,-3 1,-2 2,-4 2,-7 v -174 c 0,-2 -1,-4 -2,-6 -2,-2 -4,-3 -6,-3 l -13,-3 v -3 h 21 52 c 11,0 21,2 30,8 9,5 16,12 22,21 5,9 8,19 8,30 0,14 -5,26 -13,37 -9,11 -20,18 -33,21 l 56,70 c 3,3 5,5 8,6 3,2 5,3 7,4 2,0 3,1 4,1 z m -116,-92 c 9,0 17,-2 24,-6 7,-4 13,-10 17,-17 4,-7 7,-15 7,-23 0,-9 -3,-17 -7,-24 -4,-8 -10,-13 -17,-18 -8,-4 -16,-6 -24,-6 h -12 c -1,0 -2,0 -3,1 -1,1 -2,3 -2,4 v 89 z m 250,41 c 0,0 0,1 0,2 0,1 0,3 0,5 0,8 -2,16 -5,25 -4,9 -11,16 -21,22 0,0 -1,0 -3,2 -3,1 -6,2 -11,3 -5,2 -10,2 -16,2 -14,0 -28,-3 -42,-11 l -15,-9 c -1,0 -2,-1 -4,-1 -1,0 -3,1 -4,2 -1,1 -2,2 -2,3 l -1,4 h -4 v -55 h 6 l 4,22 c 1,7 5,13 12,18 0,0 3,2 9,5 12,7 23,10 34,10 14,0 25,-7 32,-21 0,-1 0,-1 1,-3 0,-1 1,-3 1,-5 1,-3 1,-5 1,-8 0,-8 -2,-15 -7,-23 -4,-8 -12,-15 -24,-22 -4,-2 -11,-7 -21,-12 -9,-6 -15,-10 -17,-11 -9,-7 -17,-13 -22,-21 -6,-8 -9,-17 -10,-26 0,-15 4,-27 13,-37 8,-11 22,-16 42,-16 1,0 4,0 7,1 4,0 9,1 15,2 7,2 13,4 20,7 1,1 2,1 4,1 2,0 4,-1 6,-2 2,-2 3,-4 3,-6 l 1,-3 h 4 v 47 h -4 l -2,-9 c -1,-4 -2,-8 -4,-11 -3,-3 -5,-5 -9,-6 -4,-2 -9,-4 -15,-6 -6,-1 -12,-2 -18,-2 -10,0 -18,3 -24,8 -7,5 -10,14 -10,27 0,9 2,16 7,21 5,5 9,9 14,12 4,2 7,4 8,5 3,2 8,4 15,8 7,4 12,7 16,10 24,15 37,32 40,52 z m 74,-144 c -3,0 -5,1 -6,3 -2,2 -2,4 -2,6 v 174 c 0,3 0,5 2,6 2,2 4,3 6,4 l 13,2 v 4 h -21 -24 -21 v -4 l 12,-2 c 3,0 5,-2 6,-3 2,-2 3,-4 3,-7 v -174 c 0,-2 -1,-4 -3,-6 -1,-2 -3,-3 -6,-3 l -12,-3 v -3 h 21 24 21 v 3 z m 173,33 -2,-13 c 0,-2 -1,-4 -3,-5 -2,-2 -4,-3 -6,-3 h -39 c -2,0 -3,1 -4,2 -1,1 -2,2 -2,4 v 165 c 0,3 1,5 3,6 1,2 3,3 5,4 l 13,2 v 4 h -21 -24 -21 v -4 l 13,-2 c 2,-1 4,-2 6,-4 1,-1 2,-3 2,-6 v -165 c 0,-2 -1,-3 -2,-4 -1,-1 -2,-2 -4,-2 h -38 c -3,0 -5,1 -7,3 -1,1 -2,3 -3,5 l -2,13 h -4 v -21 -13 c 0,-1 1,-3 2,-4 1,-1 2,-1 4,-1 h 54 24 45 10 c 1,0 3,0 4,1 1,1 1,3 1,4 v 34 z m 197,162 v 4 h -63 v -4 l 6,-1 c 2,-1 4,-2 6,-3 1,-2 2,-4 2,-7 0,-1 0,-2 -1,-3 l -21,-56 h -61 l -22,57 c 0,0 0,1 0,2 0,3 1,5 2,6 2,2 3,3 6,4 l 6,1 v 4 h -56 v -4 l 5,-1 c 5,-1 9,-3 13,-6 4,-3 6,-6 8,-11 l 72,-186 h 1 l 71,186 c 2,4 5,8 8,11 4,3 8,5 13,6 z m -76,-83 -26,-66 -25,66 z m 215,32 c 0,0 1,1 1,2 0,1 0,3 0,5 0,8 -2,16 -5,25 -4,9 -11,16 -21,22 0,0 -1,0 -3,2 -3,1 -6,2 -11,3 -5,2 -11,2 -16,2 -14,0 -28,-3 -42,-11 l -15,-9 c -1,0 -2,-1 -4,-1 -1,0 -3,1 -4,2 -1,1 -2,2 -2,3 l -1,4 h -4 v -55 h 6 l 4,22 c 1,7 5,13 12,18 0,0 3,2 8,5 13,7 24,10 35,10 14,0 25,-7 32,-21 0,-1 0,-1 1,-3 0,-1 1,-3 1,-5 1,-3 1,-5 1,-8 0,-8 -2,-15 -7,-23 -5,-8 -13,-15 -24,-22 -4,-2 -11,-7 -21,-12 -9,-6 -15,-10 -17,-11 -9,-7 -17,-13 -23,-21 -5,-8 -9,-17 -9,-26 0,-15 4,-27 13,-37 8,-11 22,-16 42,-16 1,0 3,0 7,1 4,0 9,1 15,2 6,2 13,4 20,7 1,1 2,1 4,1 2,0 4,-1 6,-2 2,-2 3,-4 3,-6 l 1,-3 h 4 v 47 h -4 l -2,-9 c -1,-4 -2,-8 -4,-11 -3,-3 -5,-5 -9,-6 -4,-2 -9,-4 -15,-6 -6,-1 -12,-2 -18,-2 -10,0 -18,3 -25,8 -6,5 -9,14 -9,27 0,9 2,16 7,21 5,5 9,9 14,12 4,2 7,4 8,5 3,2 8,4 15,8 6,4 12,7 16,10 24,15 37,32 39,52 z"
         id="path221"
         style="fill:#ffffff;fill-opacity:1" />
      <path
         class="fil1"
         d="m 5746,6567 -13,3 c -2,0 -4,1 -6,3 -2,2 -2,4 -2,6 v 14 33 21 c 0,2 -1,4 -3,5 -9,7 -21,12 -34,15 -13,2 -25,4 -36,5 -12,0 -18,0 -18,0 -14,0 -27,-3 -40,-8 -14,-5 -25,-13 -36,-23 -10,-10 -18,-22 -23,-35 -5,-13 -8,-27 -8,-41 0,-14 3,-28 9,-41 5,-14 13,-26 24,-37 11,-11 23,-19 37,-24 14,-5 28,-8 43,-8 13,0 27,1 42,4 15,2 29,8 40,15 2,2 3,4 3,6 v 45 h -6 l -2,-6 c -1,-8 -5,-17 -9,-24 l -3,-2 c -7,-9 -16,-15 -26,-20 -10,-4 -21,-7 -32,-7 -16,0 -31,5 -45,13 -15,9 -27,21 -36,36 -10,15 -14,31 -14,48 0,18 4,34 14,49 9,15 21,27 36,35 14,9 29,14 45,14 16,0 31,-5 44,-15 h 1 c 0,0 1,-1 2,-2 4,-4 7,-9 7,-15 v -50 c 0,-2 -1,-4 -3,-6 -2,-2 -4,-3 -6,-3 l -13,-3 v -4 h 67 z m 189,95 v 4 h -64 v -4 l 7,-1 c 2,0 4,-2 5,-3 2,-2 2,-4 2,-7 0,-1 0,-2 0,-3 l -22,-56 h -59 l -22,57 c 0,1 -1,1 -1,2 0,3 1,5 2,6 2,2 4,3 6,4 l 6,1 v 4 h -55 v -4 l 4,-1 c 5,0 10,-2 13,-5 4,-3 7,-7 8,-12 l 71,-184 h 2 l 71,184 c 1,4 4,8 8,11 3,3 7,5 12,6 z m -76,-82 -26,-65 -25,65 z m 172,-118 c 18,0 33,4 48,13 15,8 26,20 35,35 8,14 13,30 13,48 v 12 c 0,18 -5,34 -13,48 -9,15 -20,27 -35,35 -15,9 -30,13 -48,13 h -60 -13 -20 v -4 l 12,-2 c 2,0 4,-1 6,-3 1,-2 2,-4 2,-6 v -173 c 0,-3 -1,-5 -2,-7 -2,-1 -4,-2 -6,-3 l -12,-2 v -4 h 20 22 z m 71,93 c 0,-13 -3,-26 -10,-37 -7,-12 -16,-21 -27,-28 -12,-6 -25,-10 -38,-10 h -41 c -2,0 -3,1 -4,2 -1,1 -2,2 -2,3 v 158 c 0,2 1,3 2,4 1,1 2,1 4,1 h 41 c 13,0 26,-3 38,-10 11,-7 20,-16 27,-28 7,-11 10,-24 10,-37 z m 105,-89 -13,2 c -2,1 -4,2 -5,3 -2,2 -3,4 -3,7 v 148 c 0,34 -8,59 -23,75 -15,16 -37,23 -65,23 v -10 c 10,0 20,-3 30,-8 10,-6 18,-15 25,-29 6,-13 10,-30 10,-51 v -148 c 0,-3 -1,-5 -3,-7 -2,-1 -3,-2 -6,-3 l -12,-2 v -4 h 21 23 21 z m 189,196 v 4 h -64 v -4 l 7,-1 c 2,0 4,-2 5,-3 2,-2 3,-4 3,-7 0,-1 -1,-2 -1,-3 l -22,-56 h -59 l -22,57 c 0,1 0,1 0,2 0,3 0,5 2,6 1,2 3,3 5,4 l 7,1 v 4 h -56 v -4 l 5,-1 c 5,0 9,-2 12,-5 4,-3 7,-7 9,-12 l 71,-184 h 1 l 71,184 c 2,4 4,8 8,11 4,3 8,5 12,6 z m -76,-82 -26,-65 -25,65 z m 261,71 c 0,2 1,4 2,6 2,2 4,3 6,3 l 13,2 v 4 h -21 -24 -21 v -4 l 13,-2 c 2,-1 4,-2 6,-3 1,-2 2,-4 2,-6 v -93 h -114 v 93 c 0,2 1,4 3,6 1,1 3,2 5,3 l 13,2 v 4 h -21 -24 -20 v -4 l 12,-2 c 2,-1 4,-2 6,-3 2,-2 2,-4 2,-6 v -173 c 0,-3 0,-5 -2,-7 -2,-1 -4,-2 -6,-3 l -12,-2 v -4 h 20 24 21 v 4 l -13,2 c -2,1 -4,2 -5,3 -2,2 -3,4 -3,7 v 67 h 114 v -67 c 0,-3 -1,-5 -2,-7 -2,-1 -4,-2 -6,-3 l -13,-2 v -4 h 21 24 21 v 4 l -13,2 c -2,0 -4,1 -6,3 -1,2 -2,4 -2,7 z m 367,-183 c -2,1 -4,2 -6,3 -1,2 -2,4 -2,7 v 173 c 0,2 1,4 2,6 2,1 4,2 6,3 l 12,2 v 4 h -65 v -4 l 13,-2 c 2,-1 4,-2 6,-3 1,-2 2,-4 2,-7 v -167 l -67,146 -11,21 h -8 l -2,-5 -78,-167 v 173 c 0,2 1,4 3,6 1,1 3,2 5,3 l 13,2 v 4 h -62 v -4 l 13,-2 c 2,-1 4,-2 5,-3 2,-2 3,-4 3,-6 v -173 c 0,-3 -1,-5 -3,-7 -1,-1 -3,-2 -5,-3 l -13,-2 v -4 h 21 27 c 3,0 6,1 9,3 3,1 5,4 6,6 l 62,135 63,-135 c 1,-2 3,-5 6,-6 2,-2 5,-3 8,-3 h 29 v 0 h 20 v 4 z m 207,194 v 4 h -63 v -4 l 6,-1 c 2,0 4,-2 6,-3 1,-2 2,-4 2,-7 0,-1 0,-2 -1,-3 l -21,-56 h -60 l -22,57 c 0,1 0,1 0,2 0,3 1,5 2,6 1,2 3,3 5,4 l 7,1 v 4 h -56 v -4 l 5,-1 c 5,0 9,-2 13,-5 4,-3 6,-7 8,-12 l 71,-184 h 2 l 70,184 c 2,4 5,8 8,11 4,3 8,5 13,6 z m -76,-82 -25,-65 -25,65 z m 173,-118 c 17,0 33,4 48,13 14,8 26,20 34,35 9,14 13,30 13,48 v 12 c 0,18 -4,34 -13,48 -8,15 -20,27 -34,35 -15,9 -31,13 -48,13 h -60 -14 -20 v -4 l 12,-2 c 3,0 5,-1 6,-3 2,-2 2,-4 2,-6 v -173 c 0,-3 0,-5 -2,-7 -1,-1 -3,-2 -6,-3 l -12,-2 v -4 h 20 23 z m 71,93 c 0,-13 -4,-26 -10,-37 -7,-12 -16,-21 -28,-28 -11,-6 -24,-10 -38,-10 h -41 c -1,0 -3,1 -4,2 -1,1 -1,2 -1,3 v 158 c 0,2 0,3 1,4 2,1 3,1 4,1 h 41 c 14,0 27,-3 38,-10 12,-7 21,-16 28,-28 6,-11 10,-24 10,-37 z m 213,107 v 4 h -63 v -4 l 6,-1 c 2,0 4,-2 6,-3 1,-2 2,-4 2,-7 0,-1 0,-2 -1,-3 l -21,-56 h -60 l -22,57 c 0,1 0,1 0,2 0,3 1,5 2,6 2,2 3,3 5,4 l 7,1 v 4 h -55 v -4 l 4,-1 c 5,0 9,-2 13,-5 4,-3 6,-7 8,-12 l 71,-184 h 2 l 70,184 c 2,4 5,8 8,11 4,3 8,5 13,6 z m -76,-82 -25,-65 -25,65 z"
         id="path223"
         style="fill:#ffffff;fill-opacity:1" />
      <g
         id="g289"
         style="fill:#ffffff;fill-opacity:1">
        <path
           class="fil2"
           d="m 6708,5145 c 0,1 -1,2 0,3 0,2 0,3 1,4 1,0 1,0 1,1 2,1 4,2 6,3 1,0 2,0 2,-1 v 0 0 h 1 c 1,-1 1,-3 1,-4 -1,-3 -3,-5 -4,-7 -1,0 -1,-1 -2,-1 v 0 c -2,-4 -3,-7 -3,-10 1,-3 2,-6 5,-9 0,0 0,0 1,0 v 0 c 3,-3 7,-4 10,-3 3,0 7,1 10,4 2,2 4,6 5,9 1,4 1,7 -1,10 l -8,-4 c 1,-1 1,-2 1,-3 -1,-2 -2,-4 -3,-5 -2,-1 -3,-2 -5,-2 -1,0 -2,0 -4,1 v 0 c 0,0 0,0 0,0 -1,1 -2,2 -2,3 0,1 1,2 2,3 v 0 c 0,1 0,1 0,1 3,3 5,6 6,10 2,4 1,9 -3,13 v 0 c 0,0 0,0 0,1 v 0 c -3,2 -7,3 -11,3 -3,-1 -7,-3 -10,-6 0,0 -1,0 -1,-1 -2,-2 -4,-5 -5,-9 0,-3 1,-6 3,-9 z m -381,-11 c 1,1 2,2 4,4 3,3 6,6 10,9 6,5 12,9 16,4 3,-4 4,-8 2,-12 -2,-5 -8,-12 -17,-20 l 5,-7 c 11,9 18,17 21,23 3,8 2,15 -4,21 -9,11 -19,6 -29,-2 -4,-3 -8,-7 -11,-10 -1,-1 -2,-2 -3,-3 z m 51,1 -23,-33 7,-4 34,7 -13,-20 8,-5 18,29 3,5 -6,4 -35,-9 14,21 z m 30,-64 16,32 -8,4 -16,-32 z m 15,-11 21,22 2,-29 9,1 -7,43 -31,-31 z m 71,-11 c -1,1 -3,1 -5,1 -6,1 -14,2 -14,5 0,2 0,4 0,6 l 18,-4 2,9 -18,4 c 1,1 1,3 2,4 v 0 l 1,3 c 0,0 2,0 4,-1 5,0 10,-2 14,-3 l 3,9 c -5,1 -11,3 -16,3 -6,1 -12,0 -14,-5 l -1,-3 v 0 c -3,-8 -5,-13 -4,-22 1,-10 12,-12 22,-14 2,0 3,0 5,-1 z m 52,32 c -2,-4 -5,-8 -7,-10 -2,-2 -3,-4 -5,-5 -3,0 -6,0 -9,0 h -1 v 13 l -10,-1 1,-35 v -4 h 3 c 2,-1 4,-1 6,-1 6,-1 12,-1 16,1 6,1 11,5 12,11 0,1 0,1 0,1 v 0 c 0,1 0,1 0,1 0,4 -2,8 -5,10 -1,1 -2,1 -2,1 0,1 1,1 1,2 3,3 5,7 8,12 z m -22,-34 v 10 h 1 c 3,0 7,0 11,0 0,0 0,0 0,0 2,0 4,-1 5,-2 1,-1 2,-2 2,-3 0,0 0,0 0,0 v 0 c 0,0 0,0 0,0 -1,-2 -3,-4 -5,-5 -4,-1 -8,-1 -13,0 z m 47,26 c 1,1 2,2 4,3 1,1 3,2 4,2 2,0 4,0 6,-1 1,-1 1,-2 2,-3 0,0 0,0 0,-1 0,-1 0,-2 -1,-3 -1,0 -2,-1 -3,-1 -1,0 -1,0 -2,0 v 0 0 0 c -4,-1 -8,-3 -10,-5 -3,-3 -5,-7 -4,-10 v 0 -1 0 c 0,-3 2,-6 6,-8 3,-2 6,-3 10,-3 4,0 7,2 9,4 2,2 4,4 5,6 l -8,4 c -1,-1 -2,-2 -3,-3 -1,-1 -2,-2 -4,-2 -1,0 -3,0 -4,1 -2,1 -2,2 -2,2 v 0 0 0 c 0,1 0,2 1,3 1,1 3,2 5,2 v 0 0 0 c 1,1 2,1 2,1 4,0 6,2 9,4 2,3 3,6 3,10 0,1 0,1 0,2 -1,4 -4,7 -7,9 -3,1 -7,2 -11,2 -3,0 -6,-2 -8,-3 -3,-2 -5,-5 -7,-7 z m 50,-18 -12,35 -8,-3 11,-35 z m 7,41 15,-25 -10,-5 4,-8 28,15 -4,8 -10,-6 -15,26 z m 47,4 c 3,2 6,4 9,6 3,2 5,5 7,7 4,-6 6,-11 1,-15 -7,-5 -13,-2 -17,2 z m 3,13 c -3,-2 -6,-4 -9,-6 -1,1 -2,2 -2,3 -2,2 -3,4 -4,6 l -8,-6 c 2,-2 3,-4 5,-5 8,-13 19,-27 37,-15 11,8 9,18 2,28 -3,4 -6,8 -9,11 -1,2 -2,3 -3,4 l -7,-6 c 1,-1 2,-2 3,-4 1,-1 2,-2 3,-3 -3,-2 -5,-4 -8,-7 z"
           id="path225"
           style="fill:#ffffff;fill-opacity:1" />
        <path
           class="fil2"
           d="m 6345,5438 14,16 3,3 -4,3 c -1,2 -3,3 -5,5 -6,5 -12,10 -18,12 -4,2 -8,1 -11,0 -4,-2 -7,-4 -10,-7 -2,-3 -3,-7 -4,-11 -1,-4 0,-9 1,-12 l 8,3 c 0,2 0,5 0,8 0,2 1,5 2,6 2,2 4,4 6,4 2,1 3,1 5,1 5,-2 10,-7 15,-11 1,-1 1,-1 2,-2 l -11,-12 z"
           id="path227"
           style="fill:#ffffff;fill-opacity:1" />
        <path
           class="fil2"
           d="m 6355,5480 c 1,-1 1,-1 2,-2 4,-3 9,-5 14,-6 5,0 11,1 16,7 1,0 1,1 2,2 4,5 5,11 4,15 -2,7 -6,12 -10,15 0,1 -1,1 -1,1 -3,3 -9,4 -14,4 -5,0 -11,-2 -14,-6 -1,-1 -1,-1 -1,-1 -3,-5 -5,-10 -5,-15 0,-5 2,-10 7,-14 z m 8,5 c -1,1 -1,1 -2,2 -3,2 -4,5 -4,7 0,3 1,7 3,9 0,0 0,1 0,1 2,2 5,3 8,3 4,0 7,-1 9,-2 0,0 0,0 0,0 3,-3 6,-6 7,-10 0,-3 0,-6 -3,-9 0,0 0,-1 -1,-1 -2,-3 -5,-4 -8,-4 -3,1 -6,2 -9,4 z"
           id="path229"
           style="fill:#ffffff;fill-opacity:1" />
        <path
           class="fil2"
           d="m 6422,5515 c -1,-2 -2,-4 -4,-6 -1,-1 -3,-2 -4,-2 -2,-1 -5,0 -8,1 -3,2 -6,4 -7,7 -2,3 -2,8 -1,12 1,3 2,6 6,7 2,2 4,2 6,3 2,0 3,0 5,-1 2,-1 3,-4 4,-7 -2,-1 -6,-2 -8,-3 -2,-1 -3,-1 -5,-2 l 4,-8 c 1,0 2,1 4,1 5,2 11,5 13,7 l 3,2 -1,3 c 0,1 0,1 -1,2 -2,5 -4,10 -9,13 -3,2 -7,2 -10,2 -4,-1 -7,-2 -10,-4 -5,-3 -9,-8 -10,-13 -2,-6 -1,-13 2,-18 2,-5 6,-9 11,-11 4,-3 10,-4 15,-2 2,1 5,3 8,5 2,3 4,6 5,8 z"
           id="path231"
           style="fill:#ffffff;fill-opacity:1" />
        <path
           class="fil2"
           d="m 6458,5518 c 2,1 5,2 8,3 2,1 5,2 10,3 l 4,1 -1,4 c -1,6 -2,10 -3,15 -2,4 -3,8 -6,12 -1,3 -5,6 -9,7 -4,1 -9,1 -12,0 -6,-2 -10,-5 -13,-8 -2,-3 -4,-7 -5,-11 l 9,-2 c 1,3 2,5 3,7 2,2 5,4 9,5 2,1 4,1 6,0 2,0 4,-1 4,-2 2,-4 4,-7 5,-11 1,-3 2,-6 2,-9 -2,-1 -4,-2 -6,-2 -3,-1 -6,-2 -9,-3 z"
           id="path233"
           style="fill:#ffffff;fill-opacity:1" />
        <path
           class="fil2"
           d="m 6497,5551 c 3,0 7,0 10,0 4,1 8,1 12,2 0,-8 -2,-15 -10,-16 0,0 0,0 0,0 -4,0 -7,3 -10,8 -1,1 -2,3 -2,6 z m 9,9 c -4,0 -8,0 -12,0 0,1 0,2 0,4 0,1 0,3 0,5 h -10 c 0,-2 1,-4 1,-6 0,-8 3,-17 6,-23 4,-7 10,-12 18,-12 0,0 1,0 1,0 21,2 19,22 18,38 -1,3 -1,5 -1,6 h -9 c 0,-3 0,-5 1,-6 0,-2 0,-3 0,-4 -4,-1 -8,-1 -13,-2 z"
           id="path235"
           style="fill:#ffffff;fill-opacity:1" />
        <polygon
           class="fil2"
           points="6569,5527 6575,5534 6560,5546 6578,5563 6571,5570 6554,5552 6550,5555 6551,5570 6542,5571 6540,5533 6549,5533 6550,5544 "
           id="polygon237"
           style="fill:#ffffff;fill-opacity:1" />
        <path
           class="fil2"
           d="m 6593,5561 c -2,-9 -5,-18 -4,-25 0,-9 4,-16 14,-19 8,-3 14,0 19,8 4,6 7,15 10,26 l -9,2 c -1,-3 -2,-6 -2,-8 l -21,6 c 0,2 1,5 2,8 z m 5,-25 c 0,2 0,4 0,6 l 20,-6 c -1,-3 -2,-5 -4,-7 -2,-3 -5,-5 -8,-4 -6,2 -8,6 -8,11 z"
           id="path239"
           style="fill:#ffffff;fill-opacity:1" />
        <path
           class="fil2"
           d="m 6653,5542 -18,-29 -3,-4 4,-2 c 2,-1 4,-3 6,-4 4,-3 9,-6 13,-9 4,-2 9,-2 13,-1 2,1 4,2 6,4 1,2 2,4 2,7 0,3 -1,6 -3,9 2,0 3,0 4,1 4,0 9,2 13,5 l -5,7 c -3,-2 -6,-3 -9,-3 -3,-1 -7,-1 -10,0 -2,2 -4,4 -6,6 -2,0 -3,1 -4,2 l 5,7 z m -8,-30 6,11 c 1,-1 2,-1 3,-2 2,-1 4,-3 6,-5 5,-5 7,-9 7,-12 0,0 0,-1 -1,-1 0,-1 0,-1 -1,-1 -2,-1 -4,0 -5,0 -5,3 -9,5 -13,8 -1,1 -2,1 -2,2 z"
           id="path241"
           style="fill:#ffffff;fill-opacity:1" />
        <path
           class="fil2"
           d="m 6710,5502 c -4,-5 -7,-10 -11,-14 -3,-3 -5,-5 -8,-8 l -8,7 -6,-7 23,-21 6,7 -8,8 c 3,2 5,5 8,8 4,5 8,9 11,15 z"
           id="path243"
           style="fill:#ffffff;fill-opacity:1" />
        <path
           class="fil2"
           d="m 6738,5475 c -1,-1 -3,-3 -4,-4 -11,-9 -25,-20 -13,-37 8,-13 19,-10 28,-3 3,2 6,4 9,7 2,2 5,3 7,5 l -6,7 c -2,-1 -4,-3 -7,-5 v -1 l -13,19 v 1 c 2,1 4,3 5,4 z m -10,-36 c -4,7 -1,13 4,18 l 13,-18 c -1,0 -1,0 -1,-1 -6,-3 -11,-5 -16,1 z"
           id="path245"
           style="fill:#ffffff;fill-opacity:1" />
        <path
           class="fil2"
           d="m 6661,5043 c 2,-2 0,-3 2,-5 2,-2 21,-22 22,-24 9,-10 16,-19 23,-28 7,-10 13,-20 21,-34 10,-16 18,-31 23,-48 4,-17 5,-36 -3,-60 -5,-16 -14,-28 -28,-38 -15,-9 -34,-15 -56,-20 -28,-5 -47,-12 -65,-18 -7,-2 -13,-4 -20,-6 -10,-4 -20,-9 -29,-15 -7,-6 -13,-12 -19,-19 -6,7 -12,13 -19,19 -9,6 -19,11 -29,15 -7,2 -14,4 -20,6 -18,6 -38,13 -65,18 -22,5 -41,11 -56,20 -14,10 -24,22 -29,38 -7,24 -7,43 -2,60 4,17 13,32 23,48 8,14 14,24 21,34 7,9 14,18 22,28 4,5 8,9 13,13 1,2 -2,5 0,7 l 1,1 -4,8 -1,-1 c -6,-7 -13,-13 -18,-19 -9,-11 -17,-20 -24,-30 -7,-10 -13,-20 -21,-34 -10,-17 -20,-33 -25,-52 -5,-19 -5,-40 3,-67 6,-19 18,-34 34,-44 16,-11 37,-18 61,-22 26,-5 45,-12 62,-18 7,-2 14,-5 21,-7 9,-2 17,-7 25,-13 8,-6 15,-14 22,-23 l 5,-7 5,7 c 6,9 14,17 22,23 7,6 16,11 25,13 7,2 14,5 21,7 17,6 36,13 62,18 24,4 45,11 61,22 16,10 28,25 34,44 8,27 7,48 2,67 -5,19 -14,35 -24,52 -8,14 -14,24 -22,34 -6,10 -14,19 -23,30 -1,2 -3,4 -5,6 -1,0 -5,5 -9,9 -6,6 0,-10 -1,-9 z m -342,54 c -1,-2 -11,-2 -11,-4 -4,-8 -7,-16 -11,-23 -7,-12 -13,-21 -20,-31 -6,-9 -14,-19 -24,-31 -12,-14 -23,-28 -38,-38 -14,-10 -32,-16 -57,-18 -17,0 -32,5 -45,15 -14,10 -26,26 -38,46 -14,24 -27,40 -39,54 -4,6 -8,11 -13,17 -6,9 -14,16 -24,22 -7,5 -15,9 -24,12 5,8 9,16 11,24 4,11 5,22 5,33 -1,7 -1,14 -1,21 0,19 0,39 -5,67 -3,22 -3,42 1,59 3,16 12,30 25,40 20,15 38,21 56,23 17,1 35,-2 53,-5 15,-3 27,-6 38,-9 12,-3 22,-7 35,-12 8,-2 16,-7 25,-11 7,-3 16,-7 22,-9 l 3,6 -15,8 c -4,2 7,2 2,4 -2,1 -5,2 -7,3 -8,4 -17,8 -25,11 -14,5 -25,9 -36,12 -12,3 -24,6 -40,9 -19,4 -37,7 -56,5 -20,-1 -40,-8 -62,-25 -17,-12 -26,-28 -31,-47 -4,-18 -4,-40 0,-64 4,-27 4,-47 4,-65 1,-8 1,-15 1,-22 0,-9 -1,-19 -4,-28 -3,-10 -8,-19 -14,-28 l -5,-7 9,-3 c 10,-3 20,-7 28,-13 8,-5 15,-11 21,-19 4,-5 9,-11 13,-17 12,-14 25,-30 38,-53 13,-21 26,-38 41,-49 16,-12 33,-18 54,-17 27,1 47,9 64,20 16,11 28,25 40,40 10,12 18,22 25,32 7,10 13,20 20,32 4,7 8,15 11,24 1,2 2,4 3,5 z m 36,-29 v 0 0 l -10,-5 -39,-54 c -16,-23 -32,-45 -49,-68 l -1,-2 v -1 c -12,-13 -28,-23 -46,-30 -20,-7 -43,-10 -65,-9 -21,1 -42,8 -60,20 -21,13 -38,31 -50,49 -11,16 -19,30 -26,42 -9,16 -17,30 -31,48 -10,12 -15,23 -26,30 -8,5 -17,9 -27,11 6,9 10,17 14,26 4,13 1,25 0,41 -1,23 -3,38 -6,57 -2,14 -5,28 -7,49 -2,22 0,47 8,70 6,20 17,38 33,53 17,15 36,27 57,35 v 0 c 17,6 36,9 53,6 3,0 6,-1 9,-2 27,-10 53,-17 80,-24 24,-8 48,-15 72,-22 4,-1 6,3 10,2 h 4 l 1,6 c -3,1 -5,3 -8,4 -25,8 -49,15 -73,22 h -3 l -2,1 c -26,8 -52,16 -77,23 -15,8 -28,22 -39,39 -13,21 -23,47 -27,69 -5,21 -3,43 3,63 7,23 20,45 35,61 13,15 24,26 34,36 13,13 24,25 38,42 10,13 16,25 20,38 3,10 4,19 4,29 9,-3 19,-5 29,-6 13,-1 27,0 42,5 21,6 36,13 53,21 13,5 26,11 46,18 20,8 45,13 69,11 21,-1 42,-7 60,-19 19,-12 36,-28 48,-45 11,-16 19,-33 20,-51 0,-29 0,-57 1,-85 -1,-21 -1,-42 -1,-64 0,-7 6,-8 6,-15 l 3,3 c 0,8 5,7 5,14 0,21 0,42 -1,62 v 0 0 c 1,28 1,56 0,85 2,18 9,35 20,51 13,17 30,33 49,45 18,12 39,18 59,19 25,2 50,-3 70,-11 19,-7 33,-13 45,-18 18,-8 32,-15 54,-21 15,-5 29,-6 42,-5 10,1 19,3 29,6 0,-10 1,-19 4,-29 4,-13 10,-25 20,-38 14,-17 25,-29 38,-42 10,-10 21,-21 34,-36 15,-16 28,-38 35,-61 6,-20 8,-42 3,-63 -5,-22 -14,-48 -27,-69 -11,-17 -24,-31 -39,-39 -25,-7 -49,-15 -74,-22 l -1,-1 h -3 c -25,-7 -58,-17 -86,-27 l 2,-4 c 9,2 15,-4 16,-4 25,7 52,16 74,23 25,7 49,13 76,23 3,1 6,2 9,2 17,3 35,0 53,-6 v 0 c 21,-8 40,-20 57,-35 16,-15 27,-33 33,-53 8,-23 10,-48 8,-70 -2,-21 -5,-35 -7,-49 -3,-19 -5,-34 -6,-57 -1,-16 -4,-27 0,-40 3,-9 8,-18 14,-26 -10,-3 -19,-6 -27,-12 -12,-6 -16,-18 -26,-30 -14,-18 -22,-32 -31,-48 -7,-12 -15,-26 -26,-42 -12,-18 -30,-36 -51,-49 -17,-12 -38,-19 -59,-20 -22,-1 -45,2 -66,9 -16,6 -31,14 -43,26 0,1 -1,3 -2,4 v 1 l -88,123 -11,9 -9,7 2,-7 v 0 0 0 c 4,-5 1,-8 4,-13 13,-19 27,-37 40,-56 17,-24 35,-49 51,-73 h 1 c 0,-1 1,-2 2,-3 6,-14 9,-30 9,-47 0,-22 -5,-45 -14,-65 -8,-20 -22,-37 -38,-50 -19,-15 -42,-25 -64,-31 -19,-4 -34,-7 -48,-10 -18,-3 -34,-6 -55,-13 -15,-5 -28,-14 -38,-22 -8,-7 -14,-14 -20,-22 -6,8 -12,15 -20,22 -10,8 -23,17 -38,22 -21,7 -37,10 -55,13 -14,3 -29,6 -48,10 -22,6 -45,16 -64,31 -16,13 -30,30 -38,50 -9,20 -14,43 -14,65 0,19 3,37 12,52 l 1,2 47,66 3,4 c 12,17 25,34 38,52 0,0 3,14 4,17 z m -293,382 c -14,0 -29,-3 -43,-8 v 0 c -22,-8 -43,-22 -60,-37 -18,-17 -30,-37 -38,-59 -8,-25 -10,-52 -8,-76 2,-20 5,-35 7,-49 3,-18 5,-34 6,-55 1,-14 4,-25 0,-36 -3,-11 -9,-21 -17,-31 l -7,-8 11,-2 c 12,-2 22,-6 32,-12 10,-6 14,-16 23,-27 13,-17 21,-31 30,-47 7,-11 15,-25 26,-42 13,-20 32,-39 55,-53 19,-13 42,-21 66,-22 23,-1 47,2 69,10 11,4 22,10 32,16 -3,-11 -4,-22 -4,-33 0,-24 6,-48 15,-70 9,-22 24,-41 42,-55 21,-16 45,-28 69,-33 20,-5 35,-8 48,-10 18,-4 34,-7 54,-13 14,-5 25,-13 34,-20 9,-8 16,-17 22,-27 l 6,-9 5,9 c 7,10 14,19 23,27 9,7 20,15 34,20 20,6 35,9 54,13 13,2 28,5 48,10 23,5 48,17 69,33 18,14 33,33 42,55 9,22 15,46 15,70 0,10 -1,21 -3,31 9,-6 19,-10 30,-14 22,-8 47,-11 70,-10 24,1 47,9 66,22 23,14 42,33 55,53 11,17 19,31 26,42 9,16 17,30 30,47 9,11 12,21 22,27 10,6 21,10 33,13 l 10,2 -6,8 c -8,9 -14,19 -18,30 -4,11 0,22 1,36 0,21 3,37 6,55 2,14 5,29 7,49 2,24 0,51 -9,76 -7,22 -19,42 -37,59 -17,15 -38,29 -60,37 v 0 c -14,5 -29,8 -43,8 8,8 15,18 22,28 14,23 24,50 29,73 5,24 3,48 -4,70 -8,25 -22,48 -37,66 -14,15 -25,26 -35,36 -13,13 -24,24 -37,41 -9,12 -14,23 -18,34 -3,11 -4,22 -3,34 l 1,11 -10,-4 c -11,-5 -22,-8 -34,-9 -11,-1 -24,0 -37,4 -21,6 -35,13 -52,20 -13,6 -27,12 -46,19 -22,9 -49,14 -75,12 -23,-2 -46,-8 -66,-21 -20,-13 -39,-30 -52,-49 -7,-9 -12,-19 -16,-30 -4,11 -9,21 -16,30 -14,19 -32,36 -52,49 -20,13 -43,19 -66,21 -26,2 -53,-3 -75,-12 -19,-7 -33,-13 -46,-19 -17,-7 -31,-14 -52,-20 -13,-4 -26,-5 -37,-4 -12,1 -23,4 -34,9 l -10,4 1,-11 c 1,-12 0,-23 -4,-34 -3,-11 -9,-22 -17,-34 -13,-17 -24,-28 -37,-41 -10,-10 -21,-21 -35,-36 -16,-18 -29,-41 -37,-66 -7,-22 -9,-46 -4,-70 5,-23 15,-50 29,-73 7,-10 14,-20 22,-28 z m 424,163 c 1,3 5,-9 5,-6 1,6 2,16 2,17 2,14 2,26 3,38 0,12 0,25 -2,40 -1,20 -3,38 -9,57 -7,18 -19,36 -40,53 -16,13 -34,18 -54,18 -19,-1 -40,-7 -62,-17 -25,-11 -44,-16 -62,-21 -7,-2 -14,-4 -20,-6 -10,-3 -19,-4 -28,-3 -11,0 -21,3 -31,6 l -9,3 v -9 c 0,-10 -2,-21 -5,-31 -3,-9 -7,-17 -13,-25 -4,-5 -9,-11 -13,-17 -11,-15 -23,-31 -42,-50 -17,-18 -30,-35 -37,-52 -7,-19 -9,-37 -3,-57 8,-26 21,-43 36,-56 15,-13 32,-21 49,-29 15,-7 26,-12 38,-16 11,-4 22,-7 35,-11 8,-2 26,-5 35,-7 l -7,11 12,2 h -3 c -8,2 -26,4 -33,6 -14,4 -24,7 -35,11 -11,4 -22,9 -36,16 -17,7 -33,15 -47,27 -13,11 -24,26 -31,50 -6,17 -4,32 2,48 6,16 18,32 34,48 20,20 32,36 43,51 5,6 9,12 13,17 7,9 12,19 15,29 3,9 5,17 6,26 8,-2 17,-4 26,-4 11,-1 22,1 33,4 7,2 13,4 20,6 18,5 38,10 63,22 21,9 40,14 57,15 17,0 32,-4 46,-15 19,-15 30,-31 36,-48 6,-16 7,-34 8,-53 2,-15 2,-27 2,-39 0,-12 -1,-23 -2,-36 -1,-2 -3,-20 -3,-22 0,-1 -1,-3 -1,-5 l 6,-1 z m 98,-10 c -1,3 3,2 3,6 -3,14 -5,27 -5,41 -1,16 -1,33 0,51 2,19 3,37 9,53 6,17 17,33 36,48 14,11 29,15 45,15 18,-1 37,-6 57,-15 26,-12 46,-17 64,-22 7,-2 13,-4 20,-6 11,-3 22,-5 33,-4 9,0 18,2 26,4 1,-9 3,-17 5,-26 4,-10 9,-20 16,-29 4,-5 8,-11 13,-17 11,-15 23,-31 43,-51 15,-16 27,-32 34,-48 6,-16 7,-31 2,-48 -7,-24 -18,-39 -31,-50 -14,-12 -30,-20 -47,-27 -14,-7 -25,-12 -36,-16 -11,-4 -22,-7 -35,-11 -7,-2 -35,-6 -44,-8 h -2 c 0,-2 17,1 19,-4 0,-1 -3,-6 -3,-6 12,2 28,4 34,6 13,4 24,7 35,11 12,4 23,9 38,16 17,8 34,16 49,29 15,13 27,30 36,56 6,20 4,38 -3,57 -7,17 -20,34 -37,52 -19,19 -31,35 -42,50 -4,6 -9,12 -13,17 -6,8 -10,16 -13,25 -4,10 -5,21 -5,31 v 9 l -9,-3 c -10,-3 -20,-6 -31,-6 -9,-1 -19,0 -28,3 -6,2 -13,4 -21,6 -17,5 -36,10 -61,21 -23,10 -43,16 -62,17 -20,0 -38,-5 -54,-18 -22,-17 -33,-35 -40,-53 -6,-19 -8,-37 -9,-57 -2,-19 -2,-36 -1,-53 0,-11 2,-22 3,-34 1,-6 7,-10 9,-16 z m 160,-508 c 1,-3 3,-6 4,-8 0,-2 -2,-3 -1,-5 3,-6 6,-13 9,-18 7,-12 13,-22 20,-32 7,-10 15,-20 25,-32 12,-15 24,-29 40,-40 17,-11 37,-19 64,-20 20,-1 38,5 54,17 15,11 28,28 41,49 13,23 26,39 37,53 5,6 10,12 14,17 6,8 13,14 20,19 9,6 19,10 29,13 l 9,3 -5,7 c -6,9 -11,18 -14,28 -3,9 -5,19 -4,28 0,7 0,14 0,22 1,18 1,38 5,65 4,24 4,46 0,64 -5,19 -14,35 -31,47 -22,17 -42,24 -62,25 -19,2 -37,-1 -56,-5 -16,-3 -29,-6 -40,-9 -12,-3 -22,-7 -36,-12 -8,-3 -16,-7 -23,-11 -3,-1 -6,-1 -7,-3 -1,-2 -5,-8 -9,-10 l 7,-3 c 5,2 4,-1 9,2 2,1 4,2 6,3 7,4 15,8 22,10 13,5 23,9 34,12 12,3 24,6 39,9 18,3 35,6 53,5 18,-2 36,-8 56,-23 13,-10 21,-24 25,-40 4,-17 4,-37 0,-59 -4,-28 -4,-48 -4,-67 -1,-7 -1,-14 -1,-21 0,-11 1,-22 4,-33 3,-8 7,-16 12,-24 -9,-3 -17,-7 -25,-12 -9,-6 -17,-13 -24,-22 -4,-6 -8,-11 -13,-17 -11,-14 -24,-30 -38,-54 -12,-20 -24,-36 -38,-46 -13,-10 -28,-15 -45,-15 -25,2 -43,8 -57,18 -15,10 -26,24 -38,38 -10,12 -18,22 -24,31 -7,10 -13,19 -20,31 -4,7 -7,15 -11,23 -1,3 -10,4 -11,6 z"
           id="path247"
           style="fill:#ffffff;fill-opacity:1" />
        <path
           class="fil2"
           d="m 6886,4887 c 8,-33 13,-59 10,-91 -27,7 -52,19 -80,39 l -4,-13 c 27,-19 56,-33 88,-40 l 7,-2 1,7 c 4,33 2,66 -10,99 z"
           id="path249"
           style="fill:#ffffff;fill-opacity:1" />
        <path
           class="fil2"
           d="m 7037,5514 c 35,-1 60,-5 90,-18 -15,-23 -34,-43 -61,-64 l 11,-8 c 26,21 48,43 65,72 l 4,6 -6,3 c -30,14 -62,22 -98,21 z"
           id="path251"
           style="fill:#ffffff;fill-opacity:1" />
        <path
           class="fil2"
           d="m 6488,5846 c 11,33 22,57 43,82 18,-21 35,-50 45,-82 l 11,9 c -7,24 -29,62 -51,87 l -5,5 -4,-5 c -23,-25 -40,-53 -49,-88 z"
           id="path253"
           style="fill:#ffffff;fill-opacity:1" />
        <path
           class="fil2"
           d="m 6003,5432 c -28,20 -48,36 -66,64 25,11 52,18 86,21 l -5,12 c -33,-3 -64,-10 -94,-25 l -6,-3 4,-6 c 18,-28 40,-52 71,-71 z"
           id="path255"
           style="fill:#ffffff;fill-opacity:1" />
        <path
           class="fil2"
           d="m 6248,4842 c -28,-21 -49,-35 -80,-45 -4,28 -3,57 4,90 l -13,-1 c -6,-33 -8,-65 -3,-98 l 1,-7 7,2 c 32,9 61,24 88,47 z"
           id="path257"
           style="fill:#ffffff;fill-opacity:1" />
        <path
           class="fil1"
           d="m 6532,5281 c 13,0 24,11 24,24 0,13 -11,24 -24,24 -13,0 -24,-11 -24,-24 0,-13 11,-24 24,-24 z m 0,-10 c 19,0 34,15 34,34 0,19 -15,34 -34,34 -19,0 -34,-15 -34,-34 0,-19 15,-34 34,-34 z"
           id="path259"
           style="fill:#ffffff;fill-opacity:1" />
        <path
           class="fil1"
           d="m 6532,5239 c 36,0 66,30 66,66 0,36 -30,65 -66,65 -36,0 -66,-29 -66,-65 0,-36 30,-66 66,-66 z m 0,-11 c 42,0 76,35 76,77 0,42 -34,76 -76,76 -42,0 -76,-34 -76,-76 0,-42 34,-77 76,-77 z"
           id="path261"
           style="fill:#ffffff;fill-opacity:1" />
        <path
           class="fil1"
           d="m 6532,5210 c 52,0 95,43 95,95 0,52 -43,94 -95,94 -52,0 -95,-42 -95,-94 0,-52 43,-95 95,-95 z m 0,-7 c 56,0 102,46 102,102 0,56 -46,102 -102,102 -56,0 -102,-46 -102,-102 0,-56 46,-102 102,-102 z"
           id="path263"
           style="fill:#ffffff;fill-opacity:1" />
        <path
           class="fil2"
           d="m 6352,5528 c -9,10 -18,18 -28,27 -21,20 -43,39 -59,63 -12,19 -18,41 -25,62 -2,8 -4,16 -7,24 7,-5 14,-9 21,-13 19,-12 39,-23 54,-40 19,-21 34,-46 48,-71 7,-12 13,-23 20,-34 -8,-6 -16,-11 -24,-18 z m -4,79 c -4,8 -7,16 -10,24 -2,6 -3,12 -3,18 13,-10 24,-22 34,-37 10,-16 20,-34 29,-53 -5,-3 -11,-6 -16,-10 -7,11 -14,23 -20,34 -5,8 -9,16 -14,24 z m 56,-45 c -3,6 -6,12 -9,18 -4,8 -6,17 -7,25 -2,7 -2,14 -2,21 6,-7 11,-15 15,-24 6,-10 10,-24 12,-36 -3,-1 -6,-3 -9,-4 z m -23,44 c -3,4 -5,7 -7,10 -11,18 -25,32 -41,42 l -6,3 1,-6 c 0,-7 1,-14 2,-20 -5,7 -11,14 -17,21 -16,17 -36,29 -56,41 -14,9 -27,17 -40,27 8,-16 12,-28 17,-45 6,-23 13,-45 25,-64 5,-8 11,-14 16,-21 -5,3 -11,5 -17,7 l -6,1 1,-6 c 5,-14 13,-28 23,-41 0,0 -1,1 -1,1 -5,1 -10,2 -16,3 l -7,1 4,-7 c 6,-7 11,-15 17,-21 -3,0 -6,1 -10,1 l -7,1 4,-6 c 6,-9 12,-17 20,-25 -5,2 -10,4 -16,4 l -7,1 4,-6 c 4,-6 8,-12 13,-18 -4,2 -9,2 -15,3 h -5 l 2,-6 c 3,-5 7,-10 12,-15 -4,0 -7,1 -10,1 h -6 l 3,-5 c 2,-6 6,-11 11,-15 -5,1 -9,1 -14,0 h -5 l 2,-4 c 2,-6 5,-10 9,-15 1,0 1,0 1,0 -4,0 -8,0 -12,0 l -5,-1 2,-4 c 2,-4 5,-8 9,-11 -4,-1 -8,-2 -12,-4 l -4,-1 2,-4 c 3,-3 6,-6 9,-9 -4,-1 -9,-2 -13,-4 l -4,-2 3,-4 c 2,-2 4,-4 7,-6 -4,-1 -8,-2 -12,-4 l -4,-2 3,-3 c 3,-3 6,-6 9,-8 -4,0 -8,-1 -12,-2 l -6,-2 4,-4 c 4,-4 9,-7 13,-9 l 1,-1 c -1,0 -1,0 -2,0 -6,-1 -12,-2 -17,-4 l -7,-2 6,-4 c 4,-3 9,-6 14,-8 -1,0 -1,0 -2,0 -7,-1 -14,-3 -21,-6 l -7,-3 6,-3 c 5,-3 10,-5 16,-7 -9,-1 -18,-3 -27,-7 l -6,-2 6,-4 c 3,-2 6,-4 9,-5 -7,-2 -15,-5 -23,-8 l -7,-4 8,-3 c 5,-1 10,-3 15,-4 -9,-2 -19,-4 -30,-9 l -6,-3 5,-3 c 3,-2 6,-4 10,-5 -16,-4 -30,-11 -42,-21 l -5,-3 6,-3 c 7,-2 13,-3 20,-4 -9,-3 -17,-6 -26,-9 -21,-9 -40,-23 -58,-38 -12,-10 -24,-18 -37,-27 16,1 30,0 46,-1 23,-2 47,-4 69,1 9,2 17,5 25,8 -5,-4 -9,-9 -12,-14 l -4,-5 6,-1 c 18,-1 37,3 55,10 v 0 c -4,-5 -7,-9 -9,-14 l -3,-6 7,1 c 11,3 22,6 32,11 v -1 c -4,-5 -7,-10 -9,-15 l -3,-7 7,3 c 12,3 23,9 33,15 -5,-6 -9,-13 -12,-20 l -2,-7 6,2 c 7,2 14,5 20,9 -2,-4 -4,-8 -6,-12 l -2,-6 6,1 c 7,2 13,4 19,7 -2,-3 -4,-7 -5,-12 l -2,-6 6,2 c 5,1 9,3 13,5 -1,-3 -3,-6 -3,-10 l -2,-5 6,1 c 4,1 8,3 12,5 -2,-4 -3,-7 -4,-11 l -1,-6 5,2 c 6,1 11,4 15,7 -1,-5 -2,-10 -2,-15 l -1,-7 6,4 c 2,2 4,3 6,5 -1,-4 -2,-8 0,-12 v -4 l 4,1 c 3,1 6,3 8,5 0,-3 0,-5 0,-8 v -4 l 4,1 c 4,1 7,3 10,6 -1,-4 -2,-8 -2,-12 v -6 l 5,3 c 3,1 5,2 7,4 -1,-4 -1,-8 0,-12 v -6 l 5,3 c 4,2 7,5 10,8 -1,-6 -2,-11 -2,-16 v -7 l 5,4 c 5,3 8,6 11,9 -2,-6 -2,-13 -2,-20 v -6 l 5,3 c 6,3 11,8 16,13 h -1 c -2,-11 -2,-21 -2,-32 l 1,-7 5,4 c 5,4 9,8 13,13 -1,-5 -1,-10 0,-15 0,-9 2,-19 4,-28 l 2,-5 4,4 c 5,4 9,10 12,17 -1,-21 0,-40 7,-57 l 2,-6 4,5 c 4,5 7,10 10,16 -1,-9 -1,-17 0,-26 2,-23 10,-45 19,-66 5,-14 10,-27 15,-41 5,14 10,27 15,41 8,21 17,43 18,66 1,9 1,19 1,28 3,-6 6,-12 10,-18 l 4,-5 2,6 c 6,15 8,32 8,50 2,-5 5,-8 8,-11 l 4,-4 1,6 c 2,10 2,20 2,30 0,3 0,7 0,10 4,-6 8,-12 13,-17 l 6,-5 v 8 c 0,9 0,17 -1,26 2,-3 5,-7 9,-11 l 5,-6 1,8 c 1,9 0,18 -1,27 0,2 -1,4 -1,5 4,-5 8,-10 13,-15 l 6,-6 v 8 c 1,5 0,11 -1,16 3,-3 6,-6 9,-8 l 6,-4 -1,7 c 0,6 -1,13 -2,19 4,-4 8,-7 12,-10 l 5,-2 1,5 c 0,5 -1,10 -2,14 3,-2 6,-4 9,-5 l 5,-2 v 5 c 0,4 0,8 -1,12 3,-2 6,-4 8,-6 l 5,-2 v 5 c 1,6 0,12 -1,17 1,0 1,-1 2,-1 3,-3 7,-5 11,-7 l 5,-1 v 5 c -1,5 -2,10 -4,14 0,0 1,0 1,-1 4,-2 9,-5 14,-6 l 5,-3 -1,6 c 0,4 -1,7 -3,10 4,-1 8,-3 11,-4 l 6,-1 -1,5 c -1,4 -2,7 -3,10 4,-2 8,-4 13,-5 h 5 l -1,4 c -1,4 -2,8 -4,12 6,-3 11,-6 16,-8 l 6,-2 -1,6 c -1,5 -3,10 -5,14 7,-4 15,-7 22,-9 l 6,-1 -2,5 c -2,6 -5,12 -9,18 9,-5 18,-9 27,-12 l 8,-2 -4,7 c -2,5 -5,10 -9,15 3,-1 5,-2 7,-3 8,-4 16,-7 25,-8 l 5,-2 -1,6 c -2,5 -4,10 -7,14 v 0 c 17,-6 34,-9 50,-8 l 7,1 -4,5 c -4,5 -8,9 -12,14 8,-3 16,-6 24,-8 23,-5 46,-3 69,-2 15,2 29,2 43,3 -11,9 -22,17 -34,26 -18,15 -36,29 -57,38 -9,3 -18,6 -27,8 7,1 14,3 20,5 l 6,2 -5,4 c -14,12 -31,19 -51,24 2,0 4,0 6,1 v 0 c 6,1 11,3 15,5 l 8,3 -8,3 c -12,5 -24,8 -37,10 8,1 16,4 22,7 l 6,4 -7,2 c -11,4 -20,6 -29,7 6,2 12,4 17,8 l 6,4 -8,2 c -8,2 -16,3 -25,4 6,2 11,5 16,8 l 6,4 -7,2 c -7,2 -13,2 -20,3 5,2 10,6 13,10 l 4,4 -5,2 c -5,1 -10,1 -14,2 3,2 6,4 7,7 l 2,4 -4,1 c -3,1 -7,2 -11,2 4,3 7,6 10,10 l 2,3 -4,2 c -4,1 -9,2 -14,2 3,3 6,6 8,9 l 2,3 -4,2 c -4,1 -8,2 -13,2 v 1 c 5,3 9,7 12,11 l 2,4 -5,1 c -5,1 -10,2 -15,2 4,3 7,6 9,11 l 2,4 h -5 c -3,1 -6,1 -9,1 2,2 5,4 7,7 l 3,4 -5,1 c -5,2 -10,2 -15,2 h 1 c 4,4 8,8 11,13 l 2,5 h -5 c -4,1 -8,1 -12,1 5,3 10,7 14,11 l 4,6 h -7 c -5,0 -10,-1 -15,-2 6,5 11,11 14,17 l 4,5 h -6 c -6,0 -12,-1 -18,-3 8,7 14,14 19,23 l 5,6 -8,-1 c -6,-1 -12,-3 -17,-5 2,3 4,5 6,8 7,9 13,19 19,28 -12,-2 -22,-5 -33,-10 13,16 27,36 37,55 -9,-3 -15,-6 -24,-10 7,7 13,15 18,23 13,19 19,41 26,64 5,16 9,29 16,45 -13,-11 -25,-18 -40,-27 -20,-12 -40,-24 -55,-41 -7,-7 -12,-14 -18,-21 2,6 3,13 3,20 v 6 l -5,-3 c -17,-10 -30,-24 -41,-41 0,1 0,2 0,3 0,6 -1,11 -3,16 l -1,7 -5,-5 c -8,-11 -16,-23 -22,-35 -1,-1 -1,-2 -1,-2 1,12 2,24 -1,36 -9,-9 -14,-18 -19,-29 0,6 -1,12 -2,18 l -1,7 -5,-6 c -5,-7 -10,-15 -13,-23 -1,5 -2,11 -4,16 l -3,6 -3,-5 c -5,-6 -8,-12 -10,-19 -1,5 -3,10 -5,15 l -2,6 -4,-5 c -3,-4 -5,-8 -7,-12 -1,4 -3,7 -5,11 l -3,5 -3,-5 c -1,-3 -3,-7 -4,-10 -1,3 -2,6 -4,9 l -2,4 -4,-4 c -2,-3 -4,-5 -5,-9 -1,4 -3,8 -5,12 l -3,4 -3,-4 c -2,-3 -4,-7 -6,-12 -1,-1 -2,-3 -2,-5 0,1 0,1 0,1 -2,5 -4,9 -8,13 l -2,2 -3,-3 c -3,-3 -5,-7 -6,-11 v 0 c -2,5 -5,10 -7,14 l -4,6 -2,-6 c -2,-4 -3,-8 -4,-13 -2,5 -5,8 -8,12 l -4,4 -2,-5 c -1,-4 -2,-7 -3,-11 v 0 c -3,7 -6,11 -11,15 l -4,3 -1,-5 c -1,-4 -2,-8 -3,-12 -2,6 -6,12 -11,18 l -5,5 -1,-7 c -1,-6 -1,-12 -1,-17 -1,0 -1,1 -1,2 -5,9 -10,16 -15,20 l -6,4 v -7 c 0,-4 0,-8 1,-13 -6,10 -10,17 -18,25 -1,-6 -1,-13 -2,-19 -4,7 -10,14 -16,20 l -6,5 v -8 c 0,-8 0,-18 2,-28 z m 39,-37 c -3,12 -6,23 -11,33 0,4 -1,9 -1,13 0,1 0,2 0,4 4,-6 7,-12 10,-18 4,-8 8,-17 11,-27 v -1 c -3,-1 -6,-3 -9,-4 z m 263,34 c -8,-13 -15,-27 -22,-42 -3,2 -6,3 -9,5 4,11 9,23 15,33 5,10 11,19 17,28 1,-2 1,-5 1,-7 0,-5 -1,-11 -2,-17 z m -16,-45 c 10,20 19,38 30,54 10,15 21,27 34,37 -1,-6 -2,-12 -4,-18 -2,-8 -5,-16 -10,-24 v 0 c -4,-8 -9,-16 -13,-24 -7,-12 -14,-23 -21,-34 -5,3 -10,6 -16,9 z m -231,17 v 1 c -3,9 -5,17 -7,24 -1,6 -2,11 -2,16 3,-3 5,-7 7,-12 4,-7 7,-16 10,-26 -3,-1 -5,-2 -8,-3 z m 15,5 c -1,7 -2,13 -2,19 0,4 0,9 0,14 5,-8 8,-18 11,-30 0,0 0,0 0,0 -3,-1 -6,-2 -9,-3 z m 16,5 c 0,4 -1,9 0,14 0,4 0,8 1,11 2,-2 4,-4 5,-8 2,-4 4,-9 5,-15 -3,-1 -7,-2 -11,-2 z m 19,3 c -1,4 -1,8 0,12 0,2 0,5 1,7 2,-2 3,-5 4,-7 2,-4 3,-7 4,-11 -3,0 -6,0 -9,-1 z m 16,2 c 0,4 0,8 0,12 1,2 1,4 2,6 1,-2 2,-4 3,-7 1,-3 2,-6 4,-10 -3,0 -6,0 -9,-1 z m 17,2 c 0,3 0,6 1,9 0,2 1,4 2,6 1,-2 2,-4 3,-6 1,-3 2,-6 3,-9 -3,0 -6,0 -9,0 z m 17,0 c 1,5 3,9 4,12 1,2 2,4 3,6 2,-6 3,-12 4,-19 -4,1 -7,1 -11,1 z m 18,-1 c 0,5 1,8 2,11 1,2 2,4 2,5 1,-2 2,-5 3,-8 0,-2 1,-6 1,-9 -3,1 -5,1 -8,1 z m 15,-2 c 0,5 1,9 2,12 1,2 2,4 2,6 1,-2 2,-5 3,-8 1,-3 1,-6 1,-10 0,0 0,-1 0,-1 -2,1 -5,1 -8,1 z m 16,-2 c -1,1 -1,1 -1,2 0,4 1,8 2,11 1,3 2,6 4,9 1,-4 2,-8 3,-11 1,-5 1,-9 2,-13 -4,1 -7,1 -10,2 z m 17,-4 c 1,6 2,11 4,16 1,4 2,8 4,12 2,-5 2,-10 3,-15 0,-5 0,-10 -1,-15 v -1 c -3,1 -6,2 -10,3 z m 17,-5 c 0,1 0,2 0,2 1,7 3,14 6,21 2,5 5,10 8,15 0,-5 0,-10 0,-16 -1,-7 -2,-15 -4,-23 0,-1 0,-1 0,-2 -3,1 -7,2 -10,3 z m 16,-5 c 1,0 1,1 1,2 2,10 5,18 9,26 2,7 6,13 9,19 0,-8 -1,-16 -2,-24 -1,-9 -3,-18 -6,-28 -4,2 -7,3 -11,5 z m 139,4 c 5,2 9,4 13,6 3,2 6,3 9,5 -12,-17 -23,-34 -37,-49 -12,-6 -23,-14 -33,-23 -2,2 -5,5 -8,7 9,9 18,18 28,27 10,9 19,18 28,27 z m -85,-32 c 7,11 14,23 20,35 15,25 29,50 49,71 15,17 34,28 54,40 7,4 14,8 20,13 -2,-8 -4,-16 -7,-24 -6,-21 -12,-43 -25,-62 -16,-24 -37,-43 -59,-63 -9,-9 -19,-18 -28,-27 -8,6 -16,12 -24,17 z m 42,-34 c 10,9 21,17 33,23 9,5 19,9 29,12 -3,-4 -6,-9 -10,-13 -4,-6 -10,-12 -15,-17 h -1 c -9,-4 -17,-9 -26,-15 -2,2 -4,5 -6,7 -1,1 -3,2 -4,3 z m 15,-15 c 8,5 16,10 24,13 7,4 15,6 23,8 -5,-5 -10,-11 -15,-16 -7,-6 -14,-11 -22,-17 -3,4 -7,8 -10,12 z m 14,-17 c 6,4 12,7 19,10 5,2 10,4 15,4 -3,-4 -7,-7 -11,-11 -5,-4 -11,-7 -17,-11 -2,3 -4,5 -6,8 z m 10,-14 c 5,3 10,5 15,6 4,1 7,2 11,3 -2,-2 -5,-4 -8,-6 -4,-3 -9,-6 -14,-8 -2,2 -3,4 -4,5 z m 7,-12 c 4,2 8,3 12,3 3,1 7,1 11,1 -2,-3 -4,-5 -7,-7 -3,-3 -6,-5 -9,-8 -2,4 -4,8 -7,11 z m 11,-18 c 3,1 6,2 9,3 2,0 5,0 7,0 -1,-2 -3,-3 -5,-4 -3,-2 -6,-3 -9,-4 0,2 -1,3 -2,5 z m 6,-12 c 3,0 5,1 8,1 3,0 5,0 8,0 -2,-1 -3,-3 -5,-4 -2,-2 -5,-4 -8,-5 -1,2 -2,5 -3,8 z m 6,-16 c 3,0 6,1 9,1 3,0 6,0 9,-1 -1,-1 -4,-3 -6,-5 -3,-2 -5,-3 -8,-5 -1,4 -3,7 -4,10 z m 6,-18 c 3,1 6,1 9,1 2,0 5,-1 7,-1 -1,-2 -3,-3 -5,-4 -2,-2 -5,-3 -8,-4 -1,3 -2,5 -3,8 z m 5,-16 c 3,0 7,1 10,1 3,0 6,-1 9,-1 -2,-2 -5,-4 -7,-5 -3,-2 -7,-3 -10,-4 -1,3 -1,6 -2,9 z m 3,-17 c 4,1 7,1 11,1 3,0 5,-1 8,-1 -1,-1 -3,-2 -5,-4 -4,-1 -8,-3 -12,-4 -1,3 -1,5 -2,8 z m 3,-16 c 4,1 9,2 13,2 4,0 7,0 11,-1 -3,-2 -6,-4 -10,-5 -4,-2 -8,-3 -13,-4 -1,3 -1,5 -1,8 z m 1,-16 c 6,0 11,0 16,0 4,0 8,0 12,-1 -3,-2 -7,-3 -10,-4 -6,-2 -11,-3 -17,-4 0,3 -1,6 -1,9 z m 1,-16 c 7,0 14,0 21,-1 6,0 12,-1 17,-2 -11,-5 -24,-6 -38,-7 0,2 0,5 0,7 0,1 0,2 0,3 z m 0,-17 h 2 c 15,0 29,-1 49,-6 -6,-2 -13,-3 -20,-4 -10,-1 -21,-1 -32,0 0,3 0,7 1,10 z m -2,-18 c 3,0 5,0 8,0 v 0 c 21,-2 42,-4 61,-10 -2,0 -4,-1 -6,-2 v 0 c -6,-1 -13,-2 -20,-4 -14,3 -29,4 -44,6 0,3 1,7 1,10 z m -2,-17 c 20,-2 39,-4 57,-8 17,-4 33,-10 46,-19 -6,-2 -12,-3 -18,-3 -8,-1 -17,0 -26,1 v 0 c -9,1 -18,3 -27,4 -12,2 -24,4 -36,6 1,7 3,13 4,19 z m -17,-60 c 11,-5 22,-11 33,-16 8,-4 16,-9 25,-13 8,-4 15,-8 21,-14 5,-3 9,-7 13,-12 -16,0 -32,4 -48,11 -17,6 -35,16 -53,26 3,6 6,12 9,18 z m 11,35 c 12,-3 25,-5 37,-7 29,-4 57,-9 84,-20 21,-8 38,-22 56,-36 6,-5 13,-10 19,-15 -8,0 -16,-1 -24,-2 -23,-1 -45,-3 -67,2 -28,6 -54,20 -80,33 -11,6 -23,11 -34,16 4,10 7,19 9,29 z m -23,-60 c 15,-8 30,-16 45,-22 4,-3 7,-7 10,-11 2,-2 3,-4 4,-6 -6,1 -12,4 -17,6 -8,3 -15,7 -22,12 -7,6 -14,12 -21,18 0,1 1,2 1,3 z m -193,-147 c 1,-7 3,-15 5,-22 v 0 c 0,-9 1,-19 1,-28 -1,-7 -1,-14 -2,-21 0,1 -1,3 -2,4 -2,5 -5,9 -7,14 -1,16 -5,33 -8,51 4,0 9,1 13,2 z m 188,138 c 8,-6 15,-12 22,-19 5,-6 10,-12 14,-19 -7,3 -13,6 -20,10 -8,4 -16,9 -24,16 3,4 6,8 8,12 z m -12,-19 2,-1 c 9,-9 20,-18 25,-28 -5,1 -10,4 -14,6 -7,4 -14,9 -20,13 3,4 5,7 7,10 z m -11,-15 c 7,-7 14,-14 17,-23 -3,2 -7,4 -11,6 -4,3 -8,6 -12,10 2,2 4,4 6,7 z m -10,-13 c 2,-3 5,-6 6,-9 v 0 c 2,-3 4,-6 5,-10 -3,1 -6,3 -9,4 -3,2 -6,5 -10,8 3,2 5,5 8,7 z m -13,-13 c 3,-2 5,-5 6,-8 1,-2 2,-4 3,-6 -2,1 -4,2 -7,3 -2,2 -5,4 -7,6 2,2 3,3 5,5 0,0 0,0 0,0 z m -10,-10 c 2,-4 5,-8 7,-13 -2,1 -4,2 -6,3 -3,2 -5,3 -7,5 2,2 4,3 6,5 z m -13,-11 c 2,-4 4,-8 5,-12 -2,1 -3,1 -4,2 -3,2 -5,4 -7,6 2,1 4,3 6,4 z m -13,-10 c 1,-5 3,-10 3,-15 -2,2 -4,3 -5,5 -2,1 -4,3 -6,5 3,2 5,3 8,5 z m -14,-9 c 1,-3 2,-5 3,-8 0,-2 1,-5 1,-7 -2,1 -4,3 -5,5 -2,2 -4,4 -5,6 2,1 4,3 6,4 z m -13,-8 c 2,-5 4,-11 5,-18 -3,1 -5,3 -7,5 -2,3 -5,6 -7,8 3,2 6,4 9,5 z m -16,-8 c 2,-4 3,-7 3,-11 1,-3 2,-7 2,-10 -2,2 -4,4 -6,6 -2,4 -5,7 -7,11 3,1 6,3 8,4 z m -15,-7 c 3,-7 6,-15 7,-24 -2,3 -5,6 -7,9 -3,4 -5,8 -8,12 3,1 6,2 8,3 z m -15,-6 c 2,-6 3,-13 4,-20 1,-6 1,-11 1,-17 -4,5 -7,11 -9,16 -2,4 -3,8 -4,12 0,2 -1,4 -1,6 3,1 6,2 9,3 z m -16,-5 c 0,-1 1,-3 1,-5 2,-8 3,-15 4,-23 1,-7 2,-14 2,-22 -4,6 -7,12 -10,19 -3,9 -6,19 -7,29 3,1 7,2 10,2 z m -37,-7 c 4,-21 8,-41 9,-60 2,-18 1,-34 -4,-49 -3,5 -6,10 -8,16 -3,7 -5,16 -7,25 v 0 c -1,9 -2,18 -4,27 -2,13 -3,26 -5,39 7,0 13,1 19,2 z m -62,-3 c -1,-12 -3,-25 -6,-38 -1,-9 -3,-18 -4,-27 v 0 c -2,-9 -4,-18 -7,-25 -2,-6 -5,-11 -8,-16 -5,15 -5,31 -4,49 1,19 5,39 9,60 7,-1 14,-2 20,-3 z m 36,0 c 2,-13 4,-26 6,-39 4,-29 8,-58 6,-86 -2,-22 -10,-44 -19,-65 -3,-7 -5,-15 -8,-22 -3,7 -6,15 -9,22 -8,21 -17,43 -18,65 -2,28 2,57 7,86 2,13 5,26 6,39 5,0 9,0 14,0 5,0 10,0 15,0 z m -68,-22 c -2,-11 -5,-21 -8,-29 -3,-6 -5,-11 -9,-15 -1,7 -2,14 -2,21 -1,9 -1,18 0,27 4,8 6,16 8,25 6,-1 11,-2 17,-3 -2,-9 -4,-18 -6,-26 z m -17,30 c -2,-8 -5,-16 -8,-24 -4,-6 -8,-12 -13,-18 0,8 1,16 2,23 2,8 4,15 8,22 3,-1 7,-2 11,-3 z m -18,6 c -3,-6 -7,-11 -10,-15 -3,-5 -7,-9 -11,-12 0,5 1,10 2,15 2,6 4,11 6,16 4,-2 9,-3 13,-4 z m -20,7 v -1 c -5,-6 -9,-12 -15,-18 1,3 1,7 2,10 1,4 2,8 4,12 3,-1 6,-2 9,-3 z m -16,7 c -2,-3 -4,-6 -6,-9 -2,-3 -4,-5 -7,-7 0,4 1,7 2,10 1,3 2,6 4,9 2,-1 5,-2 7,-3 z m -14,7 c -2,-4 -5,-8 -9,-12 0,3 1,5 1,7 1,3 2,5 3,8 2,-1 4,-2 5,-3 z m -12,7 c -3,-4 -6,-7 -10,-10 1,5 3,9 5,13 2,-1 3,-2 5,-3 z m -11,7 c -4,-4 -7,-9 -12,-12 0,3 0,5 1,8 1,2 3,5 5,8 2,-1 4,-3 6,-4 z m -12,9 c -2,-2 -4,-4 -6,-5 -1,-1 -3,-2 -4,-3 1,2 1,3 1,5 1,3 2,5 3,7 2,-1 4,-3 6,-4 z m -13,10 c -2,-2 -4,-4 -6,-6 -2,-1 -4,-2 -6,-3 1,2 2,4 3,7 1,2 3,4 4,6 2,-1 4,-3 5,-4 z m -11,10 c -2,-2 -4,-4 -7,-6 -2,-1 -4,-2 -7,-3 1,2 2,5 4,7 1,3 3,5 5,7 1,-2 3,-4 5,-5 z m -11,11 c -3,-3 -6,-5 -9,-8 -2,-1 -5,-2 -7,-4 1,4 3,7 4,10 2,2 5,5 7,7 2,-1 3,-3 5,-5 z m -10,11 c -4,-3 -8,-6 -12,-8 -4,-2 -8,-4 -12,-5 2,3 4,6 7,9 3,4 7,8 11,12 2,-3 4,-5 6,-8 z m -11,14 c -6,-5 -11,-9 -17,-12 -4,-3 -9,-5 -13,-7 3,5 6,9 9,13 5,5 9,10 15,14 2,-3 4,-6 6,-8 z m -11,15 -1,-1 c -14,-9 -28,-17 -43,-23 1,2 3,4 4,6 4,5 8,9 12,13 8,4 16,9 23,13 2,-3 4,-6 5,-8 z m -9,14 c -10,-6 -20,-12 -31,-17 -10,-5 -20,-9 -31,-12 1,2 3,4 4,5 3,4 6,8 10,11 14,7 29,15 43,23 2,-4 4,-7 5,-10 z m -8,16 c -19,-11 -37,-20 -54,-27 -17,-7 -33,-11 -49,-11 4,5 8,9 13,13 7,5 14,9 22,14 8,4 17,8 25,12 11,6 23,12 35,17 2,-6 5,-12 8,-18 z m -86,48 c -10,-1 -18,-2 -26,-1 -6,0 -12,1 -18,3 13,9 28,15 46,19 18,4 38,6 58,8 1,-6 3,-12 4,-18 -12,-3 -25,-5 -37,-7 -9,-1 -18,-3 -27,-4 z m 59,36 c -19,-2 -38,-4 -55,-8 -4,0 -8,1 -11,2 -2,0 -3,1 -5,1 20,8 37,8 54,8 6,0 11,0 17,1 0,-2 0,-3 0,-4 z m 16,-60 c -12,-5 -24,-11 -35,-17 -26,-13 -52,-26 -80,-33 -22,-5 -45,-3 -67,-1 -8,0 -16,1 -25,1 7,5 13,10 20,15 17,14 35,28 56,37 26,10 55,15 84,20 13,2 25,4 38,6 3,-9 6,-19 9,-28 z m -19,88 c -7,1 -15,1 -23,1 -4,1 -8,2 -12,3 -1,1 -3,1 -4,2 6,2 12,4 19,5 7,1 13,1 20,1 0,-4 0,-8 0,-12 z m 2,-17 c -10,0 -20,0 -30,1 -8,1 -16,2 -23,4 8,3 16,5 24,6 9,1 18,0 28,-1 0,-3 0,-7 1,-10 z m 52,297 c 7,-7 14,-13 21,-19 9,-9 18,-17 27,-26 -5,-4 -10,-9 -15,-14 -16,14 -31,27 -43,40 -12,14 -21,27 -27,42 6,-2 11,-5 17,-8 7,-4 13,-9 20,-15 z m 28,-63 c -3,-3 -5,-6 -8,-8 -10,9 -20,17 -29,27 -9,8 -16,16 -23,26 2,-1 4,-1 6,-2 5,-1 9,-3 14,-6 12,-13 25,-25 40,-37 z m -12,-14 c -2,-2 -4,-3 -5,-5 -2,1 -4,3 -6,4 -7,5 -12,10 -18,16 -6,6 -11,12 -16,18 2,0 3,0 5,-1 3,-1 7,-3 11,-5 9,-9 18,-18 29,-27 z m -10,-11 c -2,-3 -4,-6 -6,-9 -6,5 -12,9 -17,14 -4,4 -8,8 -11,13 5,-1 11,-3 16,-6 4,-2 8,-5 13,-7 1,-2 3,-3 5,-5 z m -10,-14 c -2,-3 -4,-6 -6,-10 -1,1 -2,1 -3,2 -4,3 -8,6 -11,9 -4,4 -7,7 -9,11 4,-1 9,-2 13,-4 5,-2 11,-5 16,-8 z m -10,-16 c -1,-2 -2,-4 -4,-6 -4,2 -7,4 -10,7 -3,2 -5,5 -7,8 3,-1 6,-2 9,-3 3,-1 7,-2 10,-4 1,0 1,-1 2,-2 z m -7,-13 c -2,-4 -4,-8 -6,-11 -3,2 -6,4 -9,6 -2,3 -4,5 -6,8 4,0 7,-1 11,-1 3,-1 6,-1 10,-2 z m -9,-19 c -1,-2 -3,-5 -4,-8 -2,2 -5,4 -7,5 -2,2 -3,3 -5,5 3,0 5,0 8,0 3,0 5,-1 8,-2 z m -6,-15 c -2,-3 -3,-6 -4,-10 -2,1 -4,3 -6,4 -2,2 -4,4 -5,6 2,1 5,1 7,1 3,0 5,0 8,-1 z m -6,-17 c -1,-3 -2,-6 -3,-9 -2,1 -4,2 -6,3 -2,2 -4,3 -6,4 3,1 6,2 8,2 2,0 5,0 7,0 z m -4,-17 c -1,-2 -2,-5 -2,-8 -3,1 -6,2 -8,4 -2,1 -4,2 -6,4 2,1 5,1 7,1 3,0 6,0 9,-1 z m -4,-16 c 0,-3 -1,-5 -1,-8 -3,1 -6,2 -8,4 -3,1 -5,2 -7,4 3,0 5,1 7,1 3,0 6,-1 9,-1 z m -2,-17 c -1,-3 -1,-6 -1,-10 -4,1 -8,3 -11,4 -3,1 -5,2 -8,4 3,0 6,1 9,1 4,1 7,1 11,1 z m -2,-17 c 0,-4 0,-8 0,-11 -5,1 -10,2 -16,3 -4,1 -7,2 -11,3 4,2 8,3 12,3 5,1 10,2 15,2 z m 483,-211 c -50,-51 -119,-82 -196,-82 -77,0 -146,31 -196,82 -50,50 -81,119 -81,196 0,76 31,146 81,196 50,50 119,81 196,81 77,0 146,-31 196,-81 50,-50 81,-120 81,-196 0,-77 -31,-146 -81,-196 z"
           id="path265"
           style="fill:#ffffff;fill-opacity:1" />
        <path
           class="fil1"
           d="m 6532,5087 c 120,0 218,98 218,218 0,120 -98,218 -218,218 -120,0 -218,-98 -218,-218 0,-120 98,-218 218,-218 z m 0,95 c 68,0 123,55 123,123 0,68 -55,123 -123,123 -68,0 -123,-55 -123,-123 0,-68 55,-123 123,-123 z m 10,-73 3,-2 4,-2 4,-2 h 4 l 5,-1 h 5 l 5,1 h 6 l 5,2 6,1 5,2 6,2 5,3 5,2 5,3 4,4 4,3 4,3 4,4 2,3 3,4 1,3 1,4 v 3 3 l -1,3 -2,4 -26,36 -2,-2 -2,-1 -2,-2 -5,-3 -6,-3 -5,-2 c -3,-2 -6,-3 -9,-4 -3,-1 -6,-2 -9,-3 -3,-1 -6,-2 -9,-2 l -6,-2 c -2,0 -5,-1 -8,-1 h -4 -2 -2 -2 -1 l -1,-41 v -5 l 2,-5 1,-4 2,-3 z m 113,43 h 4 l 4,1 4,1 4,2 5,3 4,3 4,3 3,4 4,4 4,5 3,4 3,5 3,5 2,5 2,6 2,5 2,5 1,5 v 5 l 1,4 -1,4 v 4 l -2,3 -1,3 -3,3 -2,2 -4,1 -42,14 -1,-2 -1,-3 -2,-5 -2,-5 -3,-6 -3,-5 c -2,-3 -4,-6 -5,-9 -2,-2 -4,-5 -6,-7 -2,-2 -4,-5 -6,-7 l -3,-4 -4,-4 c -3,-2 -6,-5 -10,-6 l 24,-34 3,-4 4,-3 4,-3 3,-1 z m 66,102 4,2 2,3 3,4 2,4 2,4 2,5 1,5 1,5 v 6 5 6 6 l -1,6 -1,6 -1,5 -2,5 -2,5 -2,5 -2,4 -2,4 -3,3 -3,3 -3,2 -3,1 -3,1 h -4 l -3,-1 -43,-14 1,-2 1,-3 1,-2 1,-6 1,-6 1,-6 c 0,-4 0,-7 1,-10 0,-3 0,-6 0,-9 0,-3 -1,-7 -1,-10 v -5 l -1,-6 c -1,-4 -2,-9 -4,-13 l 38,-14 6,-1 h 5 4 l 4,1 z m -6,121 1,4 1,4 v 4 l -1,5 -1,4 -1,5 -2,5 -3,5 -3,4 -3,5 -3,5 -4,4 -4,5 -4,4 -4,3 -5,4 -4,2 -5,3 -4,2 -4,2 -4,1 h -4 -4 l -3,-1 -3,-1 -3,-2 -2,-3 -26,-36 2,-1 2,-2 4,-3 5,-4 4,-5 c 2,-2 4,-5 6,-7 2,-3 4,-5 6,-8 2,-2 4,-5 5,-7 2,-3 4,-5 5,-8 l 2,-4 c 3,-5 5,-9 5,-14 l 39,12 5,2 4,3 4,2 2,4 z m -76,94 -1,4 -2,4 -3,3 -3,3 -3,4 -5,2 -4,3 -5,3 -5,2 -5,2 -6,2 -6,1 -5,1 -6,1 h -6 -5 -5 -5 l -5,-1 -4,-1 -4,-2 -4,-2 -2,-2 -3,-3 -1,-2 -1,-4 -1,-3 v -45 h 3 2 6 l 6,-1 6,-1 c 3,-1 6,-1 9,-2 3,-1 6,-2 10,-3 2,-1 5,-2 8,-3 3,-1 6,-2 8,-3 l 5,-2 c 4,-3 8,-5 12,-9 l 24,33 3,5 2,4 1,4 v 4 z m -117,32 -3,2 -4,2 -4,1 -5,1 h -4 -5 -6 l -5,-1 -5,-1 -6,-2 -5,-2 -6,-2 -5,-2 -5,-3 -5,-3 -4,-3 -5,-3 -3,-4 -4,-3 -2,-4 -3,-3 -1,-4 -1,-3 -1,-3 1,-4 1,-3 2,-3 26,-36 2,1 2,2 2,1 5,3 6,3 5,3 6,2 c 3,1 6,3 9,4 3,1 6,1 9,2 l 6,2 c 3,0 5,1 8,1 5,1 9,1 14,0 l 1,41 -1,6 -1,4 -1,4 -3,4 z m -113,-44 h -4 -4 l -4,-2 -5,-2 -4,-2 -4,-3 -4,-3 -4,-4 -3,-4 -4,-5 -3,-5 -3,-5 -3,-5 -2,-5 -3,-5 -1,-5 -2,-5 -1,-5 -1,-5 v -5 l 1,-4 v -4 l 2,-3 1,-3 2,-2 3,-2 4,-2 42,-13 1,2 v 2 l 2,6 3,5 3,6 3,5 c 2,3 3,5 5,8 2,3 4,5 6,8 l 4,4 c 1,3 3,5 5,7 l 4,3 3,3 2,2 2,1 1,1 h 1 l -23,34 -3,4 -4,3 -4,2 -4,2 z m -67,-101 -3,-3 -3,-3 -2,-3 -2,-4 -2,-4 -2,-5 -1,-5 -1,-6 v -5 -6 -6 -6 l 1,-5 1,-6 1,-5 2,-6 1,-5 3,-4 2,-5 2,-3 3,-3 3,-3 3,-2 3,-1 3,-1 h 4 l 3,1 42,14 v 2 l -1,2 -1,3 -1,6 -1,6 -1,6 c 0,3 -1,6 -1,9 v 7 6 c 0,3 1,6 1,9 v 6 l 1,5 1,4 1,2 1,2 v 2 l 1,1 -38,13 -6,1 -5,1 -4,-1 -4,-1 z m 6,-125 -1,-4 v -5 l 1,-4 1,-5 1,-4 2,-5 3,-5 2,-5 4,-5 3,-4 4,-5 4,-4 4,-4 4,-4 5,-3 4,-3 4,-2 5,-3 4,-1 4,-1 4,-1 3,1 h 4 l 3,2 2,2 3,3 26,35 -2,2 -2,1 -2,2 -4,4 -4,4 -5,5 c -1,3 -3,5 -5,8 -2,2 -4,5 -6,7 -1,3 -3,5 -4,8 -2,2 -3,5 -5,7 -1,3 -2,5 -3,7 l -2,4 c 0,2 -1,3 -2,5 l -39,-12 -5,-2 -4,-3 -4,-3 -2,-3 -2,-3 z m 77,-91 1,-3 2,-4 3,-4 3,-3 3,-3 4,-3 5,-3 5,-2 5,-2 5,-2 6,-2 5,-1 6,-1 6,-1 5,-1 h 6 5 l 5,1 5,1 4,1 4,2 3,1 3,3 3,2 1,3 1,3 1,4 v 44 h -3 -3 l -5,1 h -6 l -6,1 c -3,1 -6,2 -9,3 -4,0 -7,1 -10,2 -3,1 -6,2 -8,3 l -6,3 c -2,1 -5,2 -7,3 -4,2 -9,5 -12,8 l -25,-32 -2,-5 -2,-5 -1,-4 v -4 z"
           id="path267"
           style="fill:#ffffff;fill-opacity:1" />
        <path
           class="fil2"
           d="m 6377,5201 13,-19 2,-5 4,4 c 3,2 5,4 8,6 5,3 9,7 14,11 v 0 0 0 c 3,3 4,8 3,13 -1,5 -2,10 -5,13 v 0 c 0,0 0,0 -1,1 -3,3 -7,6 -12,9 -5,2 -10,3 -16,1 l 3,-9 c 3,1 6,1 10,-1 3,-1 6,-4 9,-7 v 0 0 c 2,-2 3,-5 3,-8 0,-3 0,-5 0,-5 -5,-4 -9,-8 -13,-11 -2,-1 -3,-2 -4,-3 l -10,15 z"
           id="path269"
           style="fill:#ffffff;fill-opacity:1" />
        <path
           class="fil2"
           d="m 6355,5325 c 7,0 15,0 22,-1 0,-2 0,-4 0,-7 -1,-7 -1,-14 -2,-21 0,-2 -1,-5 -4,-8 -2,-2 -5,-3 -7,-3 -2,0 -5,1 -6,3 -3,2 -4,5 -5,8 -1,7 -1,12 -1,17 1,4 2,8 3,12 z m 23,8 c -9,1 -18,2 -27,1 h -2 l -2,-3 c -2,-6 -3,-11 -4,-17 0,-6 0,-12 1,-19 1,-5 4,-10 7,-14 4,-3 8,-5 13,-5 5,0 10,2 13,6 4,4 7,9 8,13 0,7 0,15 1,22 0,4 0,7 0,11 v 4 l -4,1 c -6,0 -3,0 -4,0 z"
           id="path271"
           style="fill:#ffffff;fill-opacity:1" />
        <path
           class="fil2"
           d="m 6456,5175 c -1,-1 -1,-2 -2,-4 -3,-3 -6,-7 -7,-11 -3,-8 -1,-15 2,-21 4,-6 11,-11 18,-14 2,0 3,-1 5,-1 7,-2 14,-2 20,-1 6,2 11,6 14,13 0,1 0,2 0,3 1,4 2,8 2,13 0,2 0,4 0,5 l -9,1 c 0,-2 0,-4 0,-5 0,-3 0,-6 -1,-8 -7,1 -14,3 -21,6 -7,2 -13,6 -20,9 1,2 3,4 4,6 1,1 2,3 3,4 z m 1,-31 c -2,2 -2,5 -2,7 6,-3 12,-6 19,-9 7,-2 14,-4 21,-6 -1,-2 -3,-3 -6,-4 -4,-1 -9,-1 -15,1 -1,0 -3,1 -4,1 -6,2 -11,5 -13,10 z"
           id="path273"
           style="fill:#ffffff;fill-opacity:1" />
        <path
           class="fil2"
           d="m 6615,5139 c 1,7 1,12 -1,18 -1,5 -3,11 -7,16 l -7,-6 c 2,-3 4,-6 5,-9 -6,-4 -13,-6 -19,-8 -7,-2 -13,-3 -19,-4 -1,4 -1,7 -1,10 l -9,1 c -1,-6 0,-12 2,-17 2,-6 5,-11 10,-16 l 7,6 c -3,2 -4,5 -6,8 6,0 12,1 18,3 6,2 13,4 18,7 1,-2 0,-5 0,-7 z"
           id="path275"
           style="fill:#ffffff;fill-opacity:1" />
        <path
           class="fil2"
           d="m 6634,5198 c 2,-5 5,-11 9,-15 3,-4 8,-7 14,-7 5,-1 9,1 13,3 4,4 7,8 8,13 1,2 0,4 -1,7 3,0 5,0 6,1 1,0 1,0 1,1 4,2 7,5 8,10 1,4 1,8 -1,12 0,0 0,1 0,1 -3,5 -8,8 -13,11 -5,2 -11,3 -17,3 l 1,-9 c 4,0 9,-1 12,-3 4,-1 7,-4 9,-7 0,0 0,0 0,0 1,-2 1,-4 0,-6 0,-2 -1,-4 -3,-5 0,0 -1,0 -1,0 0,0 -2,0 -3,-1 -2,0 -4,0 -5,1 h -8 l 3,-7 c 0,-1 1,-2 2,-3 1,-2 2,-4 1,-5 0,-2 -2,-4 -5,-6 -1,-2 -4,-3 -6,-3 -3,1 -6,3 -9,6 -3,2 -5,6 -6,10 z"
           id="path277"
           style="fill:#ffffff;fill-opacity:1" />
        <path
           class="fil2"
           d="m 6680,5277 h 1 c 8,-2 19,-4 27,1 4,3 8,7 11,11 2,5 4,10 4,15 0,6 -1,12 -4,17 -2,4 -5,8 -10,11 -8,5 -18,2 -27,0 0,0 -1,0 -2,0 l 2,-9 c 0,0 1,0 2,0 2,1 4,1 5,2 1,-7 2,-14 2,-20 0,-7 0,-14 -1,-21 -2,1 -5,1 -8,2 h -1 z m 23,9 c -1,-1 -2,-1 -3,-2 0,7 0,14 0,21 0,7 -1,14 -2,21 3,0 5,-1 6,-2 3,-2 5,-4 7,-7 2,-4 3,-8 3,-13 0,-3 -1,-7 -3,-10 -2,-3 -5,-6 -8,-8 z"
           id="path279"
           style="fill:#ffffff;fill-opacity:1" />
        <path
           class="fil2"
           d="m 6662,5373 c 5,3 9,6 14,8 5,3 9,5 15,8 l 3,2 -2,4 -2,4 c -8,15 -23,41 -43,30 -14,-7 -12,-20 -5,-32 2,-5 6,-10 9,-14 2,-3 3,-6 5,-8 l 2,-4 z m 10,16 c -4,-2 -7,-4 -11,-6 -1,2 -2,3 -3,5 -3,4 -6,9 -8,13 -4,8 -6,16 2,20 11,6 23,-14 30,-26 -3,-2 -7,-4 -10,-6 z"
           id="path281"
           style="fill:#ffffff;fill-opacity:1" />
        <path
           class="fil2"
           d="m 6565,5450 c 0,3 0,7 0,11 6,-1 13,-2 19,-5 7,-2 14,-5 21,-8 -1,-3 -3,-6 -5,-8 l 7,-6 c 4,4 7,10 9,16 2,5 2,9 2,14 -1,5 -4,9 -8,13 -3,3 -8,6 -14,8 -19,6 -29,1 -35,-8 -5,-8 -5,-19 -5,-27 z m 2,20 c 1,1 1,2 2,2 3,6 10,8 24,4 5,-2 9,-3 11,-6 3,-2 4,-5 5,-8 0,-2 0,-4 0,-6 -8,4 -15,7 -22,9 -7,2 -13,4 -20,5 z"
           id="path283"
           style="fill:#ffffff;fill-opacity:1" />
        <path
           class="fil2"
           d="m 6463,5468 c 0,1 1,1 2,2 4,5 9,7 14,8 5,0 10,-2 15,-6 0,0 1,0 1,-1 1,0 1,-1 1,-1 2,-2 2,-5 1,-7 0,-3 -2,-6 -5,-9 -2,-2 -3,-3 -6,-5 -6,-4 -11,-5 -16,-4 -3,1 -6,3 -10,7 3,2 6,3 9,5 4,2 8,3 13,4 l -1,9 c -6,-1 -11,-3 -16,-5 -5,-2 -10,-5 -15,-9 l -3,-3 3,-3 c 6,-8 12,-12 18,-14 7,-2 14,0 23,6 3,1 5,3 7,5 5,4 7,9 8,14 1,5 1,9 -2,13 -1,1 -1,2 -2,3 -1,1 -1,2 -2,2 -7,6 -14,8 -21,8 -8,-1 -15,-5 -21,-10 -1,-1 -1,-2 -2,-3 z"
           id="path285"
           style="fill:#ffffff;fill-opacity:1" />
        <path
           class="fil2"
           d="m 6401,5379 c -4,2 -7,3 -10,5 3,7 7,13 11,19 4,5 9,11 14,15 2,-2 4,-5 6,-8 l 8,5 c -5,7 -9,13 -14,16 -5,3 -9,4 -14,5 -4,0 -9,-2 -13,-4 -4,-3 -9,-7 -13,-13 -1,-3 -3,-5 -4,-7 -2,-7 -2,-13 0,-19 v 0 c 2,-6 7,-11 13,-16 4,-2 8,-4 13,-6 z m -17,11 c -2,2 -3,4 -4,6 v 0 c -1,4 -1,8 1,12 0,2 1,4 3,5 3,5 6,9 10,11 3,2 5,3 8,2 2,0 5,0 7,-2 -6,-5 -10,-10 -15,-16 -4,-6 -7,-12 -10,-18 z"
           id="path287"
           style="fill:#ffffff;fill-opacity:1" />
      </g>
    </g>
  </g>
</svg>
