<?xml version="1.0" encoding="UTF-8"?>
<!DOCTYPE svg PUBLIC "-//W3C//DTD SVG 1.1//EN" "http://www.w3.org/Graphics/SVG/1.1/DTD/svg11.dtd">
<!-- Creator: CorelDRAW X5 -->
<svg xmlns="http://www.w3.org/2000/svg" xml:space="preserve" width="600px" height="593px" style="shape-rendering:geometricPrecision; text-rendering:geometricPrecision; image-rendering:optimizeQuality; fill-rule:evenodd; clip-rule:evenodd"
viewBox="0 0 600000 592765"
 xmlns:xlink="http://www.w3.org/1999/xlink">
 <defs>
  <style type="text/css">
   <![CDATA[
    .fil3 {fill:#1C6F0A}
    .fil0 {fill:#F8EE05}
    .fil4 {fill:#1C6F0A;fill-rule:nonzero}
    .fil1 {fill:#842B24;fill-rule:nonzero}
    .fil2 {fill:red;fill-rule:nonzero}
   ]]>
  </style>
 </defs>
 <g id="Pertanian">
  <metadata id="CorelCorpID_0Corel-Layer"/>
  <path class="fil0" d="M300281 577686c13061,-13864 30370,-33817 47591,-46329 19124,-13895 76514,-15246 110319,-39806 33804,-24560 46383,-74046 64193,-86986 18535,-13466 42214,-23284 63109,-35036 -9149,-16706 -22777,-39334 -29354,-59579 -7305,-22481 9145,-77480 -3767,-117220 -12912,-39739 -56089,-66994 -62891,-87931 -7080,-21789 -9099,-47343 -13820,-70847 -18715,3539 -44447,9507 -65734,9507 -23639,0 -70862,-32640 -112647,-32640 -41784,0 -81047,32641 -103062,32641 -22911,0 -47838,-5976 -71650,-8750 -2418,18893 -4693,45210 -11271,65455 -7305,22481 -52940,57308 -65852,97047 -12912,39739 5999,87167 -805,108104 -7080,21790 -20466,43650 -30462,65440 17222,8138 41547,18434 58768,30946 19124,13894 38144,68058 71948,92618 33804,24560 84755,21231 102565,34171 18535,13467 35189,32953 52823,49194z"/>
  <path class="fil1" d="M314996 577338c-3466,3746 -6791,7340 -7023,7586l-7169 7609 -7679 -7072c-6167,-5680 -12348,-11889 -18531,-18100 -10937,-10987 -21882,-21981 -33341,-30308 -5602,-4070 -17875,-6428 -32097,-9159 -22382,-4298 -48992,-9409 -70467,-25012 -20984,-15246 -36065,-39892 -49011,-61050 -8751,-14302 -16419,-26833 -22937,-31568 -13501,-9809 -32178,-18429 -47701,-25593 -3148,-1453 -6169,-2847 -9371,-4360l-9436 -4459 4349 -9479c3527,-7688 7504,-15449 11482,-23212 7060,-13778 14125,-27567 18526,-41111 2122,-6530 567,-18969 -1236,-33382 -2823,-22579 -6180,-49422 2041,-74722 8013,-24662 26786,-46613 42903,-65457 10904,-12750 20457,-23921 22949,-31590 5127,-15778 7558,-36245 9579,-53256 220,-1855 433,-3645 1279,-10255l1329 -10385 10334 1204c8086,942 16853,2351 25623,3761 15387,2473 30784,4948 44827,4948l0 -42c6996,0 18285,-5295 31367,-11430 20660,-9690 45222,-21211 71695,-21211 25908,0 52600,11077 75515,20587 15481,6424 29044,12053 37132,12053 16699,0 36881,-4006 53655,-7335 2669,-530 5240,-1040 10134,-1965l10225 -1933 2058 10246c1698,8455 3030,16991 4362,25529 2387,15294 4775,30598 9168,44118 2138,6580 10676,15695 20570,26258 15586,16640 34117,36422 42321,61674 8029,24711 5746,53473 3787,78166 -1330,16755 -2495,31435 -19,39054 5168,15906 15208,33851 23553,48766 1653,2955 3238,5787 5016,9034l5010 9147 -9104 5121c-7232,4068 -15084,8046 -22938,12025 -13833,7008 -27675,14023 -39138,22350 -5581,4054 -11613,14995 -18604,27673 -11007,19962 -24093,43695 -45589,59313 -20925,15202 -49048,21935 -73193,27714 -16283,3898 -30549,7313 -37127,12092 -13605,9885 -27516,24921 -39080,37419zm-15157 -14646c12257,-13247 26953,-29088 41829,-39896 9840,-7149 26098,-11041 44654,-15483 22174,-5308 48003,-11491 65665,-24322 17677,-12843 29513,-34309 39469,-52365 8225,-14918 15324,-27792 24724,-34621 12689,-9219 27366,-16656 42033,-24087 4293,-2175 8585,-4350 12866,-6599 -8783,-15699 -19277,-34516 -24991,-52100 -3795,-11681 -2477,-28288 -973,-47243 1808,-22786 3915,-49327 -2794,-69977 -6758,-20800 -23513,-38688 -37606,-53733 -11648,-12436 -21701,-23168 -25285,-34198 -4831,-14870 -7373,-31155 -9912,-47428 -746,-4780 -1492,-9559 -2292,-14260 -17639,3501 -38775,7668 -57299,7668 -12207,0 -27632,-6401 -45238,-13708 -21074,-8745 -45622,-18932 -67409,-18932 -21949,0 -44116,10397 -62762,19142 -15448,7246 -28779,13498 -40300,13498l0 -42c-15810,0 -31979,-2599 -48136,-5196 -4740,-762 -9480,-1524 -14302,-2223 -2116,17817 -4682,39146 -10433,56845 -3779,11631 -14624,24312 -27003,38786 -14839,17351 -32124,37561 -38849,58261 -6743,20751 -3694,45123 -1131,65623 2107,16855 3927,31401 326,42482 -4824,14848 -12340,29515 -19849,44171 -2204,4302 -4408,8602 -6539,12914 16326,7535 35864,16586 50848,27472 9901,7193 18615,21434 28561,37689 11911,19466 25786,42141 43387,54929 17698,12858 41777,17483 62030,21373 16724,3212 31156,5984 40535,12798 12692,9221 24302,20885 35905,32541 3408,3424 6816,6847 10272,10219z"/>
  <path class="fil2" d="M297279 86064c53912,0 102721,21853 138052,57184 35331,35331 57184,84140 57184,138052 0,53912 -21853,102721 -57184,138052 -35331,35331 -84140,57184 -138052,57184 -53912,0 -102721,-21853 -138052,-57184 -35331,-35331 -57184,-84140 -57184,-138052 0,-53912 21853,-102721 57184,-138052 35331,-35331 84140,-57184 138052,-57184zm129069 66167c-33031,-33031 -78664,-53461 -129069,-53461 -50405,0 -96038,20430 -129069,53461 -33031,33031 -53461,78664 -53461,129069 0,50405 20430,96038 53461,129069 33031,33031 78664,53462 129069,53462 50405,0 96038,-20430 129069,-53462 33031,-33031 53462,-78664 53462,-129069 0,-50405 -20430,-96038 -53462,-129069z"/>
  <path class="fil3" d="M291462 334102l24 0c1682,-22102 3023,-44205 -3943,-66307 -3877,2103 -7887,3771 -11985,5042 -17814,5524 -37169,3474 -54053,-2888 -16861,-6353 -31427,-17113 -39635,-28986 -2676,-3871 -4709,-7894 -5973,-11969l-1516 -4890 4494 -2505c2561,-1428 5032,-2704 7413,-3836 30337,-14422 54572,-10581 72628,-667 3929,2158 7554,4608 10875,7220 -7369,-42347 25267,-85750 25392,-85920l5045 -6826 5104 6777c18,24 26406,35129 26406,72859l25 0c0,4304 -335,8636 -1076,12951 3266,-2552 6822,-4946 10671,-7060 18055,-9914 42291,-13756 72627,667 2382,1132 4852,2408 7413,3836l4494 2505 -1516 4890c-1264,4075 -3297,8098 -5973,11969 -8208,11874 -22774,22633 -39635,28986 -16884,6362 -36239,8412 -54053,2888 -4005,-1242 -7927,-2864 -11723,-4901 -6912,22047 -5577,44093 -3900,66139 2743,-11083 7874,-24036 17683,-34420 17277,-18292 48313,-28324 104388,-5613l7966 3226 -5434 6650c-38250,46806 -106942,55503 -119049,56695l0 27827 -29222 0 0 -27874c-13325,-1364 -80795,-10419 -118573,-56647l-5434 -6650 7965 -3226c56075,-22711 87112,-12678 104389,5613 9816,10393 14949,23358 17689,34447zm9268 -56929l2872 -4974 2872 -4974 -5743 0 -5743 0 2872 4974 2872 4974zm-465 -123586c-11493,18662 -35762,67437 16,100406 13985,-12871 18778,-28040 18778,-42787l25 0c0,-23540 -11811,-46229 -18819,-57619zm-18727 103056c-5038,-8425 -14605,-20676 -28726,-28430 -14951,-8210 -35248,-11283 -61114,1014 -561,266 -1121,538 -1680,815 658,1243 1419,2487 2275,3724 6794,9828 19168,18854 33680,24322 14489,5459 30942,7267 45864,2640 3317,-1029 6564,-2380 9701,-4084zm65926 -28430c-14121,7754 -23687,20004 -28726,28430 3137,1704 6383,3055 9701,4084 14922,4627 31375,2820 45864,-2640 14512,-5468 26886,-14494 33680,-24322 855,-1237 1617,-2481 2275,-3724 -559,-277 -1119,-549 -1680,-815 -25866,-12297 -46162,-9224 -61114,-1014zm-11455 80126c-11090,11742 -15026,28094 -16544,38924 18569,-2558 66982,-12130 98488,-44696 -44384,-16004 -68643,-8311 -81944,5771zm-54923 38924c-1518,-10830 -5454,-27182 -16544,-38924 -13301,-14082 -37560,-21775 -81944,-5771 31506,32566 79919,42137 98488,44696z"/>
  <path class="fil4" d="M353732 399246c0,5114 -1738,9745 -4548,13097 -2810,3352 -6692,5425 -10979,5425 -4288,0 -8170,-2073 -10979,-5425 -355,-423 -692,-866 -1011,-1328 -319,462 -656,905 -1011,1328 -2810,3352 -6692,5425 -10979,5425 -4288,0 -8170,-2073 -10979,-5425 -355,-423 -692,-866 -1011,-1328 -319,462 -656,905 -1011,1328 -2810,3352 -6692,5425 -10979,5425 -4288,0 -8169,-2073 -10979,-5425 -355,-423 -692,-866 -1011,-1328 -319,462 -657,905 -1011,1328 -2810,3352 -6692,5425 -10979,5425 -4288,0 -8169,-2073 -10979,-5425 -2810,-3352 -4548,-7982 -4548,-13097l7075 0c0,2785 946,5306 2475,7130 1530,1824 3643,2953 5977,2953 2335,0 4448,-1129 5978,-2953 1529,-1824 2475,-4345 2475,-7130l7074 0c0,2785 946,5306 2476,7130 1530,1824 3643,2953 5977,2953 2335,0 4448,-1129 5977,-2953 1530,-1824 2476,-4345 2476,-7130l7074 0c0,2785 946,5306 2476,7130 1529,1824 3643,2953 5977,2953 2334,0 4448,-1129 5977,-2953 1530,-1824 2476,-4345 2476,-7130l7074 0c0,2785 946,5306 2475,7130 1530,1824 3643,2953 5978,2953 2334,0 4448,-1129 5977,-2953 1530,-1824 2475,-4345 2475,-7130l7075 0z"/>
  <path class="fil4" d="M369181 410768c0,6691 -2260,12750 -5913,17135 -3653,4386 -8700,7098 -14273,7098 -5574,0 -10620,-2712 -14273,-7098 -461,-553 -899,-1133 -1314,-1738 -415,604 -853,1185 -1314,1738 -3653,4386 -8700,7098 -14273,7098 -5574,0 -10620,-2712 -14273,-7098 -461,-553 -899,-1133 -1314,-1738 -415,604 -854,1185 -1314,1738 -3653,4386 -8699,7098 -14273,7098 -5574,0 -10620,-2712 -14273,-7098 -461,-553 -899,-1133 -1314,-1738 -415,604 -853,1185 -1314,1738 -3653,4386 -8700,7098 -14273,7098 -5574,0 -10620,-2712 -14273,-7098 -3653,-4385 -5913,-10444 -5913,-17135l9197 0c0,3644 1230,6942 3218,9329 1988,2387 4736,3863 7771,3863 3035,0 5783,-1476 7771,-3863 1988,-2387 3218,-5685 3218,-9329l9197 0c0,3644 1230,6942 3218,9329 1988,2387 4736,3863 7771,3863 3035,0 5782,-1476 7771,-3863 1988,-2387 3218,-5685 3218,-9329l9197 0c0,3644 1230,6942 3218,9329 1988,2387 4736,3863 7771,3863 3035,0 5783,-1476 7771,-3863 1988,-2387 3218,-5685 3218,-9329l9197 0c0,3644 1230,6942 3218,9329 1988,2387 4736,3863 7771,3863 3035,0 5782,-1476 7771,-3863 1988,-2387 3218,-5685 3218,-9329l9197 0z"/>
 </g>
</svg>
